<?xml version="1.0" encoding="UTF-8" standalone="no"?>
<!-- Created with Inkscape (http://www.inkscape.org/) -->

<svg
   width="147.39073mm"
   height="149.0444mm"
   viewBox="0 0 147.39073 149.0444"
   version="1.1"
   id="svg1"
   xml:space="preserve"
   xmlns:inkscape="http://www.inkscape.org/namespaces/inkscape"
   xmlns:sodipodi="http://sodipodi.sourceforge.net/DTD/sodipodi-0.dtd"
   xmlns="http://www.w3.org/2000/svg"
   xmlns:svg="http://www.w3.org/2000/svg"><sodipodi:namedview
     id="namedview1"
     pagecolor="#ffffff"
     bordercolor="#000000"
     borderopacity="0.25"
     inkscape:showpageshadow="2"
     inkscape:pageopacity="0.0"
     inkscape:pagecheckerboard="true"
     inkscape:deskcolor="#d1d1d1"
     inkscape:document-units="mm" /><defs
     id="defs1" /><g
     inkscape:label="Layer 1"
     inkscape:groupmode="layer"
     id="layer1"
     transform="translate(-35.464524,-56.890051)"><ellipse
       style="fill:#d5e925;fill-opacity:0.844891;stroke:#000000;stroke-width:0.00705519;paint-order:stroke fill markers"
       id="path4"
       cx="109.1599"
       cy="131.41225"
       rx="73.691841"
       ry="74.518669" /><g
       id="g5"
       transform="matrix(0.08493569,0,0,0.08706169,27.476379,123.90244)"><g
         id="Background"
         style="fill:#d5e925;fill-opacity:0">&#10;	<rect
   style="fill:#d5e925;fill-opacity:0"
   width="2200"
   height="2200"
   id="rect1"
   x="0"
   y="0" />&#10;</g><g
         id="Objects"
         transform="translate(-137.66936,-1007.3066)">&#10;	<g
   id="g6">&#10;		<radialGradient
   id="SVGID_1_"
   cx="742.48181"
   cy="737.55182"
   r="1257.2716"
   gradientUnits="userSpaceOnUse">&#10;			<stop
   offset="0"
   style="stop-color:#63DFFC"
   id="stop1" />&#10;			<stop
   offset="1"
   style="stop-color:#3F7CD1"
   id="stop2" />&#10;		</radialGradient>&#10;		<path
   style="fill:url(#SVGID_1_)"
   d="m 1903,1100 c 0,215.52 -84.91,411.21 -223.1,555.44 C 1533.74,1808.01 1327.96,1903 1100,1903 872.04,1903 666.26,1808.01 520.1,1655.44 381.91,1511.21 297,1315.52 297,1100 c 0,-443.48 359.52,-803 803,-803 443.48,0 803,359.52 803,803 z"
   id="path2" />&#10;		&#10;			<radialGradient
   id="SVGID_00000104698309287865493900000001749800286949306755_"
   cx="1024.0569"
   cy="699.49402"
   r="480.55759"
   gradientUnits="userSpaceOnUse">&#10;			<stop
   offset="0"
   style="stop-color:#FFFFFF"
   id="stop3" />&#10;			<stop
   offset="0.9989"
   style="stop-color:#D1D1D1"
   id="stop4" />&#10;		</radialGradient>&#10;		<circle
   style="fill:url(#SVGID_00000104698309287865493900000001749800286949306755_)"
   cx="1100"
   cy="815.047"
   r="328.04599"
   id="circle4" />&#10;		&#10;			<radialGradient
   id="SVGID_00000123438996930488595010000002696201408001185471_"
   cx="965.75238"
   cy="1455.6234"
   r="674.95911"
   gradientUnits="userSpaceOnUse">&#10;			<stop
   offset="0"
   style="stop-color:#FFFFFF"
   id="stop5" />&#10;			<stop
   offset="0.9989"
   style="stop-color:#D1D1D1"
   id="stop6" />&#10;		</radialGradient>&#10;		<path
   style="fill:url(#SVGID_00000123438996930488595010000002696201408001185471_)"
   d="M 1679.9,1655.44 C 1533.74,1808.01 1327.96,1903 1100,1903 c -227.96,0 -433.74,-94.99 -579.9,-247.56 82.54,-240.93 311,-414.12 579.9,-414.12 268.9,0 497.36,173.19 579.9,414.12 z"
   id="path6" />&#10;	</g>&#10;</g></g></g></svg>
