<?xml version="1.0" encoding="utf-8"?>
<!-- Generator: Adobe Illustrator 27.5.0, SVG Export Plug-In . SVG Version: 6.00 Build 0)  -->
<svg version="1.1" xmlns="http://www.w3.org/2000/svg" xmlns:xlink="http://www.w3.org/1999/xlink" x="0px" y="0px"
	 viewBox="0 0 500 500" style="enable-background:new 0 0 500 500;" xml:space="preserve">
<g id="Background_Complete">
	<g>
		<g>
			<g>
				<g>
					<g>
						<g>
							<path style="fill:#EBEBEB;" d="M205.631,68.015l-95.196,123.658l256.01-63.64L223.853,63.43
								C217.452,60.53,209.897,62.431,205.631,68.015z"/>
							<path style="fill:#E0E0E0;" d="M109.094,192.55l96.119-124.857c4.44-5.812,12.194-7.76,18.858-4.743l143.974,65.229
								L109.094,192.55z M217.594,62.597c-4.418,0-8.706,2.023-11.544,5.738l-0.002,0.002l-94.273,122.459l253.068-62.909
								L223.635,63.911C221.68,63.025,219.623,62.597,217.594,62.597z"/>
						</g>
						<g>
							<path style="fill:#F0F0F0;" d="M394.138,280.016l-236.12,58.696c-5.738,1.426-11.545-2.069-12.971-7.806l-34.612-139.233
								l256.898-63.861l34.612,139.233C403.371,272.782,399.876,278.59,394.138,280.016z"/>
						</g>
						<g>
							<path style="fill:#FFFFFF;" d="M351.518,135.436l-89,90.933l-134.557-30.278l-15.392-71.351
								c-1.772-7.657,2.924-15.32,10.551-17.216l194.601-48.375c7.715-1.918,15.525,2.782,17.442,10.497L351.518,135.436z"/>
						</g>
					</g>
					<g>
						<path style="fill:#E0E0E0;" d="M250.298,219.215L144.615,329.665l0,0c1.57,6.312,7.96,10.157,14.272,8.587l234.304-58.274
							c6.312-1.57,10.157-7.96,8.587-14.272l-0.219-0.879l-138.195-48.728C258.774,214.48,253.662,215.699,250.298,219.215z"/>
					</g>
					<g>
						
							<rect x="140.207" y="127.423" transform="matrix(0.9704 -0.2414 0.2414 0.9704 -26.4171 47.1937)" style="fill:#E0E0E0;" width="78.455" height="8.014"/>
					</g>
					<g>
						
							<rect x="143.817" y="135.567" transform="matrix(0.9704 -0.2414 0.2414 0.9704 -26.9874 59.8594)" style="fill:#E0E0E0;" width="174.064" height="9.047"/>
					</g>
					<g>
						
							<rect x="149.155" y="157.03" transform="matrix(0.9704 -0.2414 0.2414 0.9704 -32.0097 61.7821)" style="fill:#E0E0E0;" width="174.064" height="9.047"/>
					</g>
					<g>
						<polygon style="fill:#E0E0E0;" points="323.115,164.568 317.825,169.86 176.023,206.933 157.493,202.596 156.794,200.588 
							325.164,158.712 325.888,161.622 						"/>
					</g>
					<g>
						<polygon style="fill:#E0E0E0;" points="286.843,201.516 222.958,217.404 203.43,212.938 298.904,189.193 						"/>
					</g>
				</g>
				<g>
					<g>
						<path style="fill:#FAFAFA;" d="M246.443,223.245c0.007,0.007-0.076,0.106-0.244,0.295c-0.189,0.208-0.439,0.482-0.755,0.829
							c-0.695,0.745-1.683,1.802-2.943,3.152c-2.595,2.746-6.312,6.678-10.895,11.526c-9.218,9.715-21.961,23.127-36.141,37.841
							c-14.182,14.721-27.158,27.914-36.639,37.374c-4.739,4.732-8.592,8.542-11.274,11.156c-1.326,1.286-2.364,2.293-3.095,3.003
							c-0.342,0.323-0.611,0.578-0.815,0.771c-0.186,0.172-0.284,0.256-0.291,0.249c-0.007-0.007,0.079-0.105,0.251-0.289
							c0.194-0.203,0.451-0.47,0.776-0.81c0.714-0.727,1.728-1.758,3.022-3.076c2.656-2.686,6.459-6.534,11.149-11.278
							c9.409-9.529,22.338-22.763,36.519-37.482c14.148-14.723,26.957-28.051,36.256-37.727c4.636-4.798,8.396-8.689,11.021-11.406
							c1.293-1.32,2.305-2.353,3.018-3.081c0.333-0.332,0.596-0.594,0.795-0.792C246.34,223.325,246.436,223.238,246.443,223.245z"
							/>
					</g>
				</g>
				<g>
					<g>
						<path style="fill:#FAFAFA;" d="M401.557,264.826c-0.05,0.143-29.521-10.086-65.815-22.844
							c-36.308-12.762-65.69-23.221-65.64-23.364c0.05-0.143,29.514,10.083,65.822,22.846
							C372.219,254.222,401.608,264.683,401.557,264.826z"/>
					</g>
				</g>
				<g>
					<g>
						<path style="fill:#FAFAFA;" d="M355.753,131.059c0.007,0.006-0.058,0.091-0.193,0.249c-0.157,0.18-0.357,0.408-0.607,0.694
							c-0.569,0.631-1.363,1.512-2.373,2.632c-2.111,2.294-5.119,5.562-8.825,9.589c-7.486,8.066-17.91,19.132-29.587,31.197
							c-11.682,12.068-22.407,22.844-30.232,30.581c-3.909,3.83-7.082,6.939-9.308,9.12c-1.089,1.044-1.944,1.865-2.557,2.452
							c-0.278,0.259-0.5,0.466-0.675,0.628c-0.154,0.139-0.236,0.207-0.243,0.201c-0.007-0.007,0.063-0.088,0.204-0.241
							c0.165-0.172,0.374-0.392,0.637-0.667c0.595-0.605,1.427-1.451,2.484-2.526c2.197-2.211,5.327-5.361,9.184-9.243
							c7.754-7.806,18.433-18.623,30.112-30.689c11.674-12.062,22.14-23.084,29.698-31.08c3.759-3.976,6.811-7.204,8.952-9.468
							c1.042-1.09,1.862-1.948,2.448-2.562c0.267-0.271,0.48-0.487,0.647-0.657C355.667,131.124,355.746,131.052,355.753,131.059z"
							/>
					</g>
				</g>
				<g>
					<g>
						<path style="fill:#FAFAFA;" d="M246.443,223.245c-0.002,0.009-0.123-0.012-0.356-0.063c-0.26-0.06-0.601-0.139-1.031-0.238
							c-0.937-0.229-2.262-0.554-3.951-0.968c-3.426-0.86-8.395-2.061-14.543-3.508c-12.293-2.911-29.337-6.659-48.177-10.74
							c-18.846-4.082-35.885-7.892-48.159-10.901c-6.139-1.495-11.094-2.755-14.505-3.679c-1.679-0.456-2.995-0.814-3.926-1.067
							c-0.424-0.122-0.76-0.218-1.017-0.291c-0.228-0.069-0.344-0.108-0.342-0.117c0.003-0.009,0.123,0.012,0.356,0.063
							c0.26,0.06,0.601,0.139,1.031,0.238c0.937,0.229,2.262,0.554,3.951,0.967c3.426,0.86,8.394,2.061,14.542,3.508
							c12.293,2.911,29.339,6.659,48.185,10.741c18.84,4.081,35.876,7.89,48.15,10.899c6.139,1.496,11.095,2.755,14.506,3.679
							c1.679,0.457,2.995,0.814,3.926,1.068c0.424,0.121,0.761,0.217,1.018,0.291C246.329,223.196,246.445,223.235,246.443,223.245z
							"/>
					</g>
				</g>
			</g>
			<g>
				<g>
					<path style="fill:#E0E0E0;" d="M351.518,135.436c0,0-0.1-0.323-0.268-0.961c-0.168-0.652-0.413-1.598-0.733-2.834
						c-0.636-2.508-1.567-6.182-2.765-10.91c-2.381-9.493-5.821-23.207-10.071-40.149c-0.53-2.119-1.072-4.289-1.627-6.507
						c-0.277-1.109-0.557-2.23-0.841-3.364c-0.139-0.568-0.279-1.139-0.459-1.689c-0.148-0.564-0.371-1.104-0.606-1.643
						c-0.918-2.167-2.491-4.077-4.417-5.567c-1.96-1.438-4.317-2.478-6.836-2.744c-1.254-0.188-2.538-0.103-3.81,0.051
						c-1.258,0.218-2.539,0.569-3.826,0.885c-2.576,0.643-5.192,1.295-7.847,1.958c-5.311,1.324-10.776,2.687-16.381,4.084
						c-22.423,5.581-47.073,11.716-72.946,18.156c-25.886,6.427-50.545,12.549-72.975,18.118c-5.607,1.39-11.076,2.745-16.389,4.062
						c-1.328,0.329-2.647,0.656-3.956,0.98c-1.31,0.339-2.611,0.602-3.797,1.153c-1.2,0.511-2.324,1.182-3.31,2.007
						c-1.012,0.794-1.87,1.755-2.607,2.778c-0.762,1.013-1.293,2.162-1.758,3.311c-0.409,1.172-0.705,2.376-0.809,3.593
						c-0.293,2.449,0.381,4.804,0.862,7.14c1,4.663,1.959,9.139,2.875,13.412c3.647,17.083,6.599,30.908,8.643,40.479
						c1.007,4.772,1.789,8.48,2.322,11.011c0.258,1.25,0.455,2.207,0.591,2.866c0.13,0.646,0.183,0.981,0.183,0.981
						s-0.09-0.326-0.238-0.969c-0.148-0.657-0.363-1.609-0.644-2.855c-0.557-2.526-1.373-6.227-2.423-10.989
						c-2.084-9.561-5.094-23.374-8.813-40.44c-0.927-4.27-1.898-8.743-2.91-13.403c-0.481-2.307-1.183-4.743-0.887-7.272
						c0.105-1.256,0.407-2.498,0.827-3.708c0.476-1.186,1.024-2.372,1.808-3.419c0.759-1.058,1.642-2.051,2.686-2.874
						c1.017-0.853,2.177-1.549,3.416-2.079c1.229-0.573,2.575-0.848,3.868-1.185c1.308-0.326,2.626-0.655,3.954-0.986
						c5.311-1.324,10.777-2.687,16.383-4.084c22.426-5.582,47.082-11.718,72.964-18.16c25.877-6.425,50.531-12.546,72.957-18.114
						c5.607-1.39,11.074-2.745,16.387-4.062c2.656-0.658,5.274-1.306,7.851-1.945c1.291-0.314,2.553-0.66,3.87-0.887
						c1.314-0.158,2.641-0.241,3.934-0.046c2.6,0.281,5.029,1.357,7.046,2.845c1.983,1.54,3.598,3.513,4.539,5.748
						c0.24,0.556,0.469,1.112,0.62,1.693c0.185,0.573,0.323,1.143,0.46,1.71c0.28,1.134,0.558,2.256,0.832,3.366
						c0.549,2.22,1.085,4.391,1.609,6.512c4.178,16.96,7.56,30.688,9.901,40.191c1.155,4.739,2.053,8.421,2.665,10.935
						c0.297,1.242,0.523,2.192,0.68,2.847C351.454,135.103,351.518,135.436,351.518,135.436z"/>
				</g>
			</g>
		</g>
	</g>
</g>
<g id="Background_Simple" style="display:none;">
	<path style="display:inline;opacity:0.32;fill:#E0E0E0;" d="M53.921,191.686c11.763,92.649,58.061,158.627,193.871,183.974
		c75.531,14.097,213.269-30.933,204.185-113.138c-10.086-91.279-105.19-53.047-183.647-82.472
		c-46.924-17.598-71.955-113.388-148.07-107.723C60.094,76.805,47.624,142.091,53.921,191.686z"/>
</g>
<g id="Floor">
	<g>
		<g>
			<line style="fill:#263238;" x1="47.994" y1="449.008" x2="451.984" y2="449.008"/>
		</g>
		<g>
			<g>
				<path style="fill:#263238;" d="M451.984,449.008c0,0.152-90.443,0.275-201.985,0.275c-111.581,0-202.005-0.123-202.005-0.275
					c0-0.152,90.424-0.275,202.005-0.275C361.54,448.733,451.984,448.856,451.984,449.008z"/>
			</g>
		</g>
	</g>
</g>
<g id="Mail_Sent">
	<g>
		<g>
			<polygon style="fill:#E8505B;" points="239.706,82.659 229.822,90.188 230.303,104.568 221.248,97.379 216.25,101.659 
				197.249,78.203 			"/>
		</g>
		<g>
			<g>
				<path style="fill:#E8505B;" d="M226.105,93.25c0.015,0.44,4.198,11.318,4.198,11.318l-9.055-7.189L226.105,93.25z"/>
			</g>
			<g style="opacity:0.3;">
				<path d="M226.105,93.25c0.015,0.44,4.198,11.318,4.198,11.318l-9.055-7.189L226.105,93.25z"/>
			</g>
		</g>
		<g>
			<polygon style="fill:#E8505B;" points="197.249,78.203 226.105,93.25 230.303,104.568 229.822,90.188 			"/>
			<polygon style="opacity:0.1;" points="197.249,78.203 226.105,93.25 230.303,104.568 229.822,90.188 			"/>
		</g>
		<g>
			<g>
				<g>
					<g>
						<path style="fill:#263238;" d="M277.247,272.222c-0.036,0.147-1.213-0.013-2.628-0.359c-1.416-0.346-2.534-0.746-2.497-0.893
							c0.036-0.147,1.212,0.013,2.628,0.359C276.165,271.675,277.284,272.074,277.247,272.222z"/>
					</g>
				</g>
				<g>
					<g>
						<path style="fill:#263238;" d="M285.43,274.222c-0.036,0.147-0.75,0.1-1.594-0.107c-0.844-0.206-1.5-0.493-1.464-0.641
							c0.036-0.147,0.75-0.1,1.594,0.107C284.811,273.788,285.466,274.074,285.43,274.222z"/>
					</g>
				</g>
			</g>
			<g>
				<g>
					<g>
						<path style="fill:#263238;" d="M251.674,102.686c-0.045,0.147-1.203-0.079-2.613-0.405c-1.409-0.329-2.549-0.635-2.524-0.787
							c0.023-0.148,1.218-0.081,2.649,0.252C250.616,102.076,251.718,102.543,251.674,102.686z"/>
					</g>
				</g>
				<g>
					<g>
						<path style="fill:#263238;" d="M261.35,106.838c-0.078,0.132-1.151-0.359-2.445-1.006c-1.293-0.649-2.329-1.215-2.27-1.357
							c0.057-0.138,1.203,0.207,2.516,0.865C260.464,105.997,261.427,106.709,261.35,106.838z"/>
					</g>
				</g>
				<g>
					<g>
						<path style="fill:#263238;" d="M269.741,113.201c-0.109,0.109-1.024-0.637-2.121-1.581c-1.095-0.946-1.966-1.744-1.875-1.868
							c0.089-0.12,1.12,0.49,2.233,1.451C269.093,112.163,269.848,113.096,269.741,113.201z"/>
					</g>
				</g>
				<g>
					<g>
						<path style="fill:#263238;" d="M276.139,121.55c-0.135,0.074-0.803-0.898-1.6-2.103c-0.794-1.207-1.423-2.204-1.302-2.299
							c0.117-0.093,0.952,0.768,1.761,1.997C275.809,120.372,276.271,121.48,276.139,121.55z"/>
					</g>
				</g>
				<g>
					<g>
						<path style="fill:#263238;" d="M279.772,131.416c-0.152,0.029-0.492-1.099-0.887-2.489c-0.392-1.391-0.694-2.53-0.55-2.584
							c0.139-0.054,0.679,1.018,1.078,2.435C279.816,130.193,279.919,131.389,279.772,131.416z"/>
					</g>
				</g>
				<g>
					<g>
						<path style="fill:#263238;" d="M280.309,141.917c-0.153-0.017-0.143-1.196-0.111-2.639c0.036-1.444,0.084-2.622,0.238-2.632
							c0.149-0.01,0.348,1.173,0.311,2.645C280.714,140.762,280.457,141.935,280.309,141.917z"/>
					</g>
				</g>
				<g>
					<g>
						<path style="fill:#263238;" d="M277.575,152.062c-0.139-0.067,0.256-1.176,0.742-2.534c0.491-1.357,0.896-2.463,1.046-2.425
							c0.144,0.036-0.029,1.225-0.529,2.611C278.337,151.102,277.709,152.128,277.575,152.062z"/>
					</g>
				</g>
				<g>
					<g>
						<path style="fill:#263238;" d="M271.473,160.596c-0.105-0.114,0.677-0.994,1.623-2.081c0.95-1.084,1.713-1.979,1.841-1.891
							c0.123,0.083-0.454,1.141-1.427,2.252C272.54,159.99,271.572,160.706,271.473,160.596z"/>
					</g>
				</g>
				<g>
					<g>
						<path style="fill:#263238;" d="M262.648,166.283c-0.058-0.144,0.985-0.691,2.262-1.362c1.279-0.667,2.323-1.211,2.408-1.082
							c0.083,0.123-0.846,0.887-2.154,1.569C263.859,166.093,262.702,166.421,262.648,166.283z"/>
					</g>
				</g>
				<g>
					<g>
						<path style="fill:#263238;" d="M252.385,168.488c-0.002-0.155,1.168-0.287,2.598-0.462c1.431-0.171,2.6-0.317,2.634-0.165
							c0.034,0.144-1.103,0.536-2.569,0.711C253.585,168.75,252.385,168.636,252.385,168.488z"/>
					</g>
				</g>
				<g>
					<g>
						<path style="fill:#263238;" d="M242.091,166.542c0.063-0.14,1.179,0.229,2.558,0.644c1.377,0.42,2.511,0.733,2.485,0.887
							c-0.023,0.146-1.228,0.07-2.644-0.361C243.072,167.285,242.027,166.678,242.091,166.542z"/>
					</g>
				</g>
				<g>
					<g>
						<path style="fill:#263238;" d="M234.789,159.301c0.149-0.046,0.607,1.022,1.431,2.182c0.81,1.169,1.607,2.033,1.497,2.151
							c-0.092,0.108-1.091-0.603-1.949-1.838C234.897,160.565,234.645,159.335,234.789,159.301z"/>
					</g>
				</g>
				<g>
					<g>
						<path style="fill:#263238;" d="M239.226,151.111c0.043,0.161-1.088,0.505-2.223,1.324c-1.148,0.806-1.75,1.815-1.893,1.739
							c-0.138-0.041,0.301-1.285,1.572-2.185C237.939,151.09,239.21,150.975,239.226,151.111z"/>
					</g>
				</g>
				<g>
					<g>
						<path style="fill:#263238;" d="M248.269,154.864c-0.14,0.078-0.777-0.909-1.816-1.864c-1.024-0.957-2.103-1.437-2.042-1.589
							c0.032-0.136,1.284,0.135,2.416,1.186C247.946,153.633,248.4,154.807,248.269,154.864z"/>
					</g>
				</g>
				<g>
					<g>
						<path style="fill:#263238;" d="M248.609,165.073c-0.145-0.064,0.226-1.175,0.488-2.577c0.272-1.401,0.336-2.57,0.494-2.576
							c0.145-0.012,0.331,1.206,0.046,2.679C249.36,164.073,248.739,165.138,248.609,165.073z"/>
					</g>
				</g>
				<g>
					<g>
						<path style="fill:#263238;" d="M241.761,172.924c-0.088-0.129,0.819-0.881,1.91-1.818c1.095-0.933,1.954-1.73,2.071-1.628
							c0.114,0.096-0.587,1.085-1.713,2.045C242.908,172.486,241.843,173.047,241.761,172.924z"/>
					</g>
				</g>
				<g>
					<g>
						<path style="fill:#263238;" d="M232.408,177.779c-0.06-0.139,0.961-0.743,2.282-1.349c1.321-0.606,2.447-0.987,2.515-0.851
							c0.068,0.135-0.953,0.739-2.282,1.349C233.594,177.537,232.468,177.918,232.408,177.779z"/>
					</g>
				</g>
				<g>
					<g>
						<path style="fill:#263238;" d="M223.01,182.56c-0.085-0.126,0.869-0.841,2.13-1.596c1.271-0.738,2.406-1.124,2.464-1.001
							c0.074,0.151-0.944,0.754-2.194,1.48C224.17,182.186,223.095,182.686,223.01,182.56z"/>
					</g>
				</g>
				<g>
					<g>
						<path style="fill:#263238;" d="M215.043,189.437c-0.112-0.098,0.582-1.074,1.63-2.103c1.047-1.031,2.036-1.707,2.132-1.593
							c0.1,0.117-0.716,0.969-1.747,1.985C216.026,188.739,215.158,189.539,215.043,189.437z"/>
					</g>
				</g>
				<g>
					<g>
						<path style="fill:#263238;" d="M209.003,198.062c-0.133-0.069,0.31-1.181,1.08-2.431c0.768-1.252,1.56-2.149,1.681-2.062
							c0.125,0.089-0.457,1.116-1.213,2.35C209.793,197.15,209.139,198.133,209.003,198.062z"/>
					</g>
				</g>
				<g>
					<g>
						<path style="fill:#263238;" d="M205.158,207.864c-0.145-0.036,0.024-1.221,0.48-2.617c0.454-1.397,1.014-2.455,1.152-2.398
							c0.143,0.058-0.183,1.192-0.63,2.568C205.711,206.792,205.307,207.901,205.158,207.864z"/>
					</g>
				</g>
				<g>
					<g>
						<path style="fill:#263238;" d="M203.783,218.297c-0.149,0.002-0.281-1.189-0.179-2.653c0.099-1.465,0.39-2.625,0.538-2.604
							c0.152,0.022,0.108,1.2,0.01,2.641C204.052,217.123,203.937,218.296,203.783,218.297z"/>
					</g>
				</g>
				<g>
					<g>
						<path style="fill:#263238;" d="M205.16,228.73c-0.146,0.042-0.518-1.088-0.83-2.524c-0.345-1.431-0.364-2.63-0.215-2.647
							c0.152-0.018,0.413,1.132,0.754,2.538C205.176,227.508,205.306,228.688,205.16,228.73z"/>
					</g>
				</g>
				<g>
					<g>
						<path style="fill:#263238;" d="M209.233,238.435c-0.129,0.076-0.84-0.887-1.493-2.202c-0.656-1.315-0.993-2.464-0.854-2.52
							c0.142-0.058,0.7,0.981,1.346,2.276C208.875,237.284,209.366,238.357,209.233,238.435z"/>
					</g>
				</g>
				<g>
					<g>
						<path style="fill:#263238;" d="M215.553,246.858c-0.107,0.105-1.026-0.663-1.974-1.783c-0.951-1.119-1.557-2.151-1.436-2.239
							c0.124-0.091,0.918,0.781,1.856,1.884C214.932,245.824,215.663,246.751,215.553,246.858z"/>
					</g>
				</g>
				<g>
					<g>
						<path style="fill:#263238;" d="M223.671,253.563c-0.079,0.127-1.153-0.402-2.338-1.27c-1.186-0.866-2.017-1.727-1.921-1.841
							c0.099-0.118,1.076,0.545,2.245,1.398C222.825,252.704,223.753,253.433,223.671,253.563z"/>
					</g>
				</g>
				<g>
					<g>
						<path style="fill:#263238;" d="M233.167,258.104c-0.045,0.143-1.218-0.1-2.58-0.651c-1.363-0.548-2.378-1.185-2.311-1.319
							c0.068-0.138,1.175,0.27,2.517,0.809C232.133,257.486,233.214,257.958,233.167,258.104z"/>
					</g>
				</g>
				<g>
					<g>
						<path style="fill:#263238;" d="M238.463,259.445c-0.027,0.149-0.091,0.263-0.142,0.253c-0.051-0.009-0.071-0.138-0.044-0.287
							c0.027-0.149,0.091-0.263,0.142-0.253C238.47,259.167,238.49,259.296,238.463,259.445z"/>
					</g>
				</g>
			</g>
		</g>
		<g>
			<g>
				<g>
					
						<rect x="218.452" y="231.301" transform="matrix(0.9501 0.3121 -0.3121 0.9501 84.5006 -58.2396)" style="fill:#E8505B;" width="11.507" height="7.158"/>
				</g>
				<g style="opacity:0.3;">
					
						<rect x="218.452" y="231.301" transform="matrix(0.9501 0.3121 -0.3121 0.9501 84.5006 -58.2396)" width="11.507" height="7.158"/>
				</g>
			</g>
			<g>
				<g>
					<g>
						<path style="fill:#E8505B;" d="M230.788,233.275c0.051,0.139-2.76,1.293-6.338,2.605l-0.19,0.07l-0.123-0.162
							c-0.058-0.076-0.12-0.158-0.182-0.24c-2.385-3.148-4.219-5.773-4.098-5.865c0.121-0.092,2.152,2.385,4.536,5.533
							c0.062,0.082,0.124,0.164,0.182,0.24l-0.313-0.092C227.844,234.064,230.737,233.137,230.788,233.275z"/>
					</g>
				</g>
				<g style="opacity:0.1;">
					<g>
						<path d="M230.788,233.275c0.051,0.139-2.76,1.293-6.338,2.605l-0.19,0.07l-0.123-0.162c-0.058-0.076-0.12-0.158-0.182-0.24
							c-2.385-3.148-4.219-5.773-4.098-5.865c0.121-0.092,2.152,2.385,4.536,5.533c0.062,0.082,0.124,0.164,0.182,0.24l-0.313-0.092
							C227.844,234.064,230.737,233.137,230.788,233.275z"/>
					</g>
				</g>
			</g>
			<g>
				<g>
					<g>
						<path style="fill:#E8505B;" d="M223.014,233.853c0.067,0.136-1.087,0.836-2.575,1.563c-1.489,0.727-2.75,1.206-2.817,1.069
							s1.086-0.836,2.576-1.563C221.686,234.195,222.947,233.717,223.014,233.853z"/>
					</g>
				</g>
				<g style="opacity:0.1;">
					<g>
						<path d="M223.014,233.853c0.067,0.136-1.087,0.836-2.575,1.563c-1.489,0.727-2.75,1.206-2.817,1.069s1.086-0.836,2.576-1.563
							C221.686,234.195,222.947,233.717,223.014,233.853z"/>
					</g>
				</g>
			</g>
			<g>
				<g>
					<g>
						<path style="fill:#E8505B;" d="M228.753,240.142c-0.139,0.06-0.755-1.079-1.401-2.533c-0.663-1.492-1.102-2.765-0.898-2.752
							c0.151,0.009,0.766,1.073,1.401,2.533C228.49,238.849,228.892,240.081,228.753,240.142z"/>
					</g>
				</g>
				<g style="opacity:0.1;">
					<g>
						<path d="M228.753,240.142c-0.139,0.06-0.755-1.079-1.401-2.533c-0.663-1.492-1.102-2.765-0.898-2.752
							c0.151,0.009,0.766,1.073,1.401,2.533C228.49,238.849,228.892,240.081,228.753,240.142z"/>
					</g>
				</g>
			</g>
		</g>
		<g>
			<g>
				
					<rect x="243.641" y="254.851" transform="matrix(0.9501 0.3121 -0.3121 0.9501 95.3162 -67.467)" style="fill:#E8505B;" width="29.602" height="18.416"/>
			</g>
			<g>
				<g>
					<g>
						<path style="fill:#E8505B;" d="M275.378,259.93c0.013,0.035-0.434,0.235-1.254,0.569c-0.923,0.361-2.096,0.82-3.5,1.369
							c-2.969,1.136-7.095,2.676-11.7,4.359l-0.19,0.07l-0.123-0.162c-0.148-0.195-0.308-0.406-0.468-0.617
							c-3.068-4.049-5.82-7.733-7.79-10.415c-0.927-1.282-1.702-2.353-2.311-3.194c-0.536-0.762-0.818-1.194-0.788-1.217
							c0.03-0.023,0.37,0.365,0.958,1.087c0.645,0.813,1.467,1.849,2.45,3.089c2.05,2.623,4.851,6.269,7.919,10.318
							c0.16,0.212,0.32,0.422,0.468,0.618l-0.313-0.092c4.607-1.678,8.755-3.158,11.757-4.201c1.428-0.484,2.62-0.889,3.559-1.207
							C274.895,260.03,275.366,259.895,275.378,259.93z"/>
					</g>
				</g>
				<g style="opacity:0.2;">
					<g>
						<path d="M275.378,259.93c0.013,0.035-0.434,0.235-1.254,0.569c-0.923,0.361-2.096,0.82-3.5,1.369
							c-2.969,1.136-7.095,2.676-11.7,4.359l-0.19,0.07l-0.123-0.162c-0.148-0.195-0.308-0.406-0.468-0.617
							c-3.068-4.049-5.82-7.733-7.79-10.415c-0.927-1.282-1.702-2.353-2.311-3.194c-0.536-0.762-0.818-1.194-0.788-1.217
							c0.03-0.023,0.37,0.365,0.958,1.087c0.645,0.813,1.467,1.849,2.45,3.089c2.05,2.623,4.851,6.269,7.919,10.318
							c0.16,0.212,0.32,0.422,0.468,0.618l-0.313-0.092c4.607-1.678,8.755-3.158,11.757-4.201c1.428-0.484,2.62-0.889,3.559-1.207
							C274.895,260.03,275.366,259.895,275.378,259.93z"/>
					</g>
				</g>
			</g>
			<g>
				<g>
					<g>
						<path style="fill:#E8505B;" d="M255.379,261.415c0.067,0.136-2.985,1.763-6.815,3.633c-3.832,1.871-6.991,3.276-7.057,3.139
							c-0.067-0.136,2.984-1.763,6.816-3.633C252.153,262.685,255.313,261.279,255.379,261.415z"/>
					</g>
				</g>
				<g style="opacity:0.2;">
					<g>
						<path d="M255.379,261.415c0.067,0.136-2.985,1.763-6.815,3.633c-3.832,1.871-6.991,3.276-7.057,3.139
							c-0.067-0.136,2.984-1.763,6.816-3.633C252.153,262.685,255.313,261.279,255.379,261.415z"/>
					</g>
				</g>
			</g>
			<g>
				<g>
					<g>
						<path style="fill:#E8505B;" d="M270.144,277.594c-0.139,0.061-1.576-2.934-3.209-6.688c-1.634-3.755-2.845-6.847-2.706-6.908
							c0.139-0.061,1.576,2.934,3.209,6.689C269.071,274.441,270.283,277.534,270.144,277.594z"/>
					</g>
				</g>
				<g style="opacity:0.2;">
					<g>
						<path d="M270.144,277.594c-0.139,0.061-1.576-2.934-3.209-6.688c-1.634-3.755-2.845-6.847-2.706-6.908
							c0.139-0.061,1.576,2.934,3.209,6.689C269.071,274.441,270.283,277.534,270.144,277.594z"/>
					</g>
				</g>
			</g>
		</g>
		<g>
			<g>
				<g>
					<path style="fill:#263238;" d="M248.803,254.99c-1.955,1.437-4.705,1.016-6.142-0.939c-1.436-1.955-1.016-4.705,0.939-6.142
						c1.956-1.437,4.705-1.016,6.142,0.939C251.179,250.804,250.759,253.553,248.803,254.99z"/>
				</g>
			</g>
			<g>
				<g>
					<g>
						<path style="fill:#FFFFFF;" d="M248.973,250.646c0.04,0.072-1.28,0.889-2.949,1.826c-0.243,0.135-0.478,0.265-0.705,0.391
							l-0.126,0.07l-0.07-0.124c-0.751-1.33-1.266-2.34-1.205-2.375c0.061-0.035,0.678,0.916,1.456,2.23l-0.196-0.054
							c0.227-0.129,0.46-0.261,0.701-0.398C247.547,251.277,248.933,250.575,248.973,250.646z"/>
					</g>
				</g>
			</g>
		</g>
		<g>
			<g>
				<g>
					
						<rect x="240.688" y="233.68" transform="matrix(0.9501 0.3121 -0.3121 0.9501 86.8421 -65.6229)" style="fill:#E8505B;" width="15.509" height="9.648"/>
				</g>
				<g style="opacity:0.2;">
					
						<rect x="240.688" y="233.68" transform="matrix(0.9501 0.3121 -0.3121 0.9501 86.8421 -65.6229)" width="15.509" height="9.648"/>
				</g>
			</g>
			<g>
				<g>
					<g>
						<path style="fill:#E8505B;" d="M257.315,236.34c0.007,0.018-0.227,0.123-0.657,0.298c-0.484,0.189-1.098,0.43-1.834,0.717
							c-1.555,0.595-3.717,1.402-6.129,2.284l-0.1,0.036l-0.064-0.085c-0.078-0.102-0.161-0.213-0.245-0.323
							c-1.607-2.121-3.049-4.051-4.081-5.457c-0.486-0.671-0.892-1.233-1.21-1.673c-0.281-0.399-0.428-0.625-0.413-0.637
							c0.016-0.012,0.194,0.191,0.502,0.57c0.338,0.426,0.769,0.969,1.283,1.618c1.074,1.374,2.541,3.284,4.149,5.406
							c0.084,0.111,0.167,0.221,0.245,0.324l-0.164-0.048c2.414-0.879,4.587-1.654,6.16-2.201c0.748-0.254,1.373-0.466,1.865-0.633
							C257.062,236.393,257.308,236.322,257.315,236.34z"/>
					</g>
				</g>
				<g style="opacity:0.2;">
					<g>
						<path style="fill:#E8505B;" d="M257.315,236.34c0.007,0.018-0.227,0.123-0.657,0.298c-0.484,0.189-1.098,0.43-1.834,0.717
							c-1.555,0.595-3.717,1.402-6.129,2.284l-0.1,0.036l-0.064-0.085c-0.078-0.102-0.161-0.213-0.245-0.323
							c-1.607-2.121-3.049-4.051-4.081-5.457c-0.486-0.671-0.892-1.233-1.21-1.673c-0.281-0.399-0.428-0.625-0.413-0.637
							c0.016-0.012,0.194,0.191,0.502,0.57c0.338,0.426,0.769,0.969,1.283,1.618c1.074,1.374,2.541,3.284,4.149,5.406
							c0.084,0.111,0.167,0.221,0.245,0.324l-0.164-0.048c2.414-0.879,4.587-1.654,6.16-2.201c0.748-0.254,1.373-0.466,1.865-0.633
							C257.062,236.393,257.308,236.322,257.315,236.34z"/>
					</g>
				</g>
			</g>
			<g>
				<g>
					<g>
						<path style="fill:#E8505B;" d="M246.837,237.119c0.035,0.071-1.564,0.924-3.57,1.903c-2.007,0.98-3.662,1.716-3.697,1.645
							c-0.035-0.071,1.564-0.923,3.571-1.903C245.147,237.784,246.803,237.047,246.837,237.119z"/>
					</g>
				</g>
				<g style="opacity:0.2;">
					<g>
						<path style="fill:#E8505B;" d="M246.837,237.119c0.035,0.071-1.564,0.924-3.57,1.903c-2.007,0.98-3.662,1.716-3.697,1.645
							c-0.035-0.071,1.564-0.923,3.571-1.903C245.147,237.784,246.803,237.047,246.837,237.119z"/>
					</g>
				</g>
			</g>
			<g>
				<g>
					<g>
						<path style="fill:#E8505B;" d="M254.573,245.595c-0.073,0.032-0.826-1.537-1.681-3.504c-0.856-1.967-1.49-3.587-1.417-3.619
							c0.073-0.032,0.826,1.537,1.681,3.504C254.011,243.943,254.645,245.563,254.573,245.595z"/>
					</g>
				</g>
				<g style="opacity:0.2;">
					<g>
						<path style="fill:#E8505B;" d="M254.573,245.595c-0.073,0.032-0.826-1.537-1.681-3.504c-0.856-1.967-1.49-3.587-1.417-3.619
							c0.073-0.032,0.826,1.537,1.681,3.504C254.011,243.943,254.645,245.563,254.573,245.595z"/>
					</g>
				</g>
			</g>
		</g>
		<g>
			<g>
				<path style="fill:#263238;" d="M138.974,121.57c-2.837,11.18-14.2,17.944-25.38,15.107c-11.18-2.837-17.944-14.2-15.107-25.38
					c2.837-11.18,14.2-17.944,25.38-15.107C135.047,99.026,141.81,110.389,138.974,121.57z"/>
			</g>
			<g>
				<g>
					<path style="fill:#FFFFFF;" d="M126.475,105.114c0.364,0.142-2.012,7.133-5.307,15.613c-0.484,1.228-0.952,2.415-1.407,3.567
						l-0.252,0.638l-0.631-0.243c-6.773-2.614-11.716-4.761-11.599-5.074c0.117-0.313,5.256,1.312,12.081,3.785l-0.882,0.395
						c0.442-1.156,0.899-2.349,1.37-3.581C123.144,111.735,126.111,104.973,126.475,105.114z"/>
				</g>
			</g>
		</g>
	</g>
</g>
<g id="Plant">
	<g>
		<g>
			<g>
				<path style="fill:#E8505B;" d="M395.652,417.085c3.653-1.885,7.955-2.13,12.011-1.46c2.179,0.36,4.451,1.012,5.933,2.649
					c1.483,1.637,1.764,4.517,0.061,5.923c-1.013,0.837-2.427,0.964-3.741,0.949c-3.175-0.037-6.698-0.596-9.235,1.314
					c-1.447,1.09-2.41,2.902-4.141,3.438c-1.693,0.524-3.603-0.475-4.501-2.002c-0.898-1.528-0.927-3.438-0.509-5.159
					C391.531,422.737,391.972,418.984,395.652,417.085z"/>
			</g>
			<g style="opacity:0.2;">
				<path style="fill:#FFFFFF;" d="M395.652,417.085c3.653-1.885,7.955-2.13,12.011-1.46c2.179,0.36,4.451,1.012,5.933,2.649
					c1.483,1.637,1.764,4.517,0.061,5.923c-1.013,0.837-2.427,0.964-3.741,0.949c-3.175-0.037-6.698-0.596-9.235,1.314
					c-1.447,1.09-2.41,2.902-4.141,3.438c-1.693,0.524-3.603-0.475-4.501-2.002c-0.898-1.528-0.927-3.438-0.509-5.159
					C391.531,422.737,391.972,418.984,395.652,417.085z"/>
			</g>
		</g>
		<g>
			<path style="fill:#E8505B;" d="M387.282,400.928c2.234,3.19,6.576,2.134,8.589,0.187c2.013-1.947,2.864-4.77,3.639-7.462
				c1.77-6.15,3.554-12.602,2.238-18.864c-0.393-1.872-1.093-3.74-2.409-5.129c-1.316-1.389-3.339-2.215-5.189-1.727
				c-2.189,0.578-3.55,2.723-4.533,4.762c-2.891,5.995-4.421,12.642-4.444,19.298C385.162,395.102,385.529,398.362,387.282,400.928"
				/>
		</g>
		<g>
			<g>
				<path style="fill:#E8505B;" d="M381.148,405.506c2.425-2.879,2.886-7.077,1.806-10.684c-1.079-3.606-3.518-6.674-6.328-9.179
					c-3.295-2.936-7.168-5.222-11.331-6.686c-1.638-0.576-3.367-1.031-5.096-0.866c-1.729,0.165-3.47,1.049-4.277,2.587
					c-1.192,2.274-0.049,5.033,1.188,7.283c2.179,3.965,4.67,7.758,7.442,11.333c2.231,2.876,4.786,5.713,8.185,7.012
					c3.4,1.3,6.931,1.147,8.733-1.211"/>
			</g>
			<g style="opacity:0.1;">
				<path d="M381.148,405.506c2.425-2.879,2.886-7.077,1.806-10.684c-1.079-3.606-3.518-6.674-6.328-9.179
					c-3.295-2.936-7.168-5.222-11.331-6.686c-1.638-0.576-3.367-1.031-5.096-0.866c-1.729,0.165-3.47,1.049-4.277,2.587
					c-1.192,2.274-0.049,5.033,1.188,7.283c2.179,3.965,4.67,7.758,7.442,11.333c2.231,2.876,4.786,5.713,8.185,7.012
					c3.4,1.3,6.931,1.147,8.733-1.211"/>
			</g>
		</g>
		<g>
			<g>
				<path style="fill:#263238;" d="M387.131,449.057c0.042,0.002,0.11-0.514,0.202-1.45c0.103-1.055,0.232-2.38,0.385-3.957
					c0.184-1.665,0.428-3.646,0.89-5.804c0.461-2.152,1.183-4.484,2.109-6.85c0.96-2.351,2.13-4.488,3.498-6.198
					c1.358-1.717,2.937-2.959,4.422-3.676c1.479-0.731,2.807-1.028,3.724-1.16c0.925-0.095,1.443-0.168,1.443-0.209
					c0-0.041-0.519-0.048-1.469-0.023c-0.942,0.063-2.324,0.301-3.883,1.011c-1.564,0.694-3.24,1.956-4.664,3.708
					c-1.436,1.745-2.649,3.929-3.625,6.322c-0.943,2.407-1.654,4.763-2.094,6.962c-0.439,2.195-0.64,4.198-0.771,5.877
					c-0.126,1.68-0.173,3.041-0.196,3.981C387.079,448.534,387.09,449.055,387.131,449.057z"/>
			</g>
		</g>
		<g>
			<g>
				<path style="fill:#263238;" d="M387.404,446.013c0.021-0.001,0.033-0.233,0.039-0.673c-0.001-0.505-0.003-1.142-0.005-1.924
					c-0.005-1.669-0.004-4.085,0.086-7.069c0.148-5.967,0.661-14.203,1.654-23.256c1-9.056,2.324-17.202,3.532-23.047
					c0.285-1.465,0.573-2.784,0.844-3.938c0.258-1.157,0.478-2.154,0.691-2.961c0.183-0.76,0.331-1.379,0.449-1.87
					c0.096-0.43,0.138-0.658,0.118-0.664c-0.02-0.006-0.1,0.211-0.234,0.631c-0.147,0.484-0.332,1.094-0.559,1.843
					c-0.248,0.8-0.501,1.791-0.791,2.943c-0.302,1.15-0.619,2.465-0.932,3.927c-1.317,5.837-2.711,13.994-3.713,23.069
					c-0.995,9.072-1.442,17.333-1.482,23.314c-0.035,2.991,0.028,5.412,0.105,7.082c0.048,0.781,0.087,1.418,0.117,1.923
					C387.355,445.784,387.383,446.014,387.404,446.013z"/>
			</g>
		</g>
		<g>
			<g>
				<path style="fill:#263238;" d="M387.444,430.081c0.041-0.001,0.034-0.715-0.014-2.009c-0.074-1.291-0.252-3.158-0.616-5.444
					c-0.385-2.281-0.924-4.99-1.771-7.932c-0.805-2.954-1.911-6.143-3.317-9.386c-2.751-6.527-6.49-11.863-9.741-15.168
					c-0.763-0.877-1.612-1.51-2.292-2.13c-0.352-0.297-0.662-0.594-0.979-0.829c-0.318-0.219-0.614-0.423-0.889-0.613
					c-1.07-0.732-1.67-1.118-1.692-1.083c-0.096,0.131,2.397,1.598,5.546,4.947c3.135,3.342,6.769,8.642,9.498,15.114
					c1.394,3.216,2.508,6.375,3.336,9.3c0.87,2.915,1.448,5.596,1.884,7.854c0.415,2.263,0.655,4.111,0.8,5.391
					C387.317,429.372,387.402,430.082,387.444,430.081z"/>
			</g>
		</g>
	</g>
</g>
<g id="Device">
	<g>
		<polygon style="fill:#455A64;" points="235.354,298.252 277.218,298.252 293.803,251.927 291.478,251.927 275.037,295.991 
			235.354,296.216 		"/>
	</g>
</g>
<g id="Desk">
	<g>
		<g>
			<polygon style="fill:#263238;" points="216.847,304.1 218.4,449.187 222.656,449.187 220.925,303.027 			"/>
		</g>
		<g>
			<path style="fill:#263238;" d="M306.47,302.689c-0.574,2.77,3.839,146.835,3.839,146.835h4.02l-3.253-146.835H306.47z"/>
		</g>
		<g>
			<polygon style="fill:#263238;" points="355.42,298.252 177.388,298.252 177.388,305.586 192.08,305.586 182.522,448.719 
				186.704,448.946 196.274,305.586 340.439,305.586 347.426,449.008 351.618,449.008 344.631,305.586 355.42,305.586 			"/>
		</g>
	</g>
</g>
<g id="Character">
	<g>
		<g>
			<g>
				<g>
					<g>
						<g>
							<path style="fill:#E8505B;" d="M254.947,443.735l0.042-11.001l-20.605-0.21l-0.232,16.093l1.277,0.095
								c5.683,0.374,28.921,1.499,32.733,0.386C272.414,447.856,254.947,443.735,254.947,443.735z"/>
						</g>
					</g>
					<g>
						<g>
							<path style="fill:#F5F5F5;" d="M241.625,448.532c-0.276-1.724-1.217-3.334-2.585-4.42c-1.368-1.086-3.059-1.669-4.801-1.547
								l-0.063,5.759L241.625,448.532z"/>
						</g>
					</g>
				</g>
				<g>
					<g>
						<path style="fill:#F5F5F5;" d="M263.479,446.053c0,0,6.118,1.833,5.342,2.835c-0.776,1.003-24.302,0.749-34.669-0.271
							l0.038-0.46l27.439,0.53C261.629,448.688,262.279,446.091,263.479,446.053z"/>
					</g>
				</g>
				<g>
					<g>
						<g>
							<path style="fill:#263238;" d="M233.866,448.141c0,0.009,0.121,0.023,0.354,0.042c0.305,0.022,0.64,0.046,1.017,0.072
								c1.017,0.055,2.268,0.122,3.743,0.202c3.162,0.148,7.533,0.294,12.363,0.351c4.831,0.055,9.205,0.01,12.369-0.065
								c1.477-0.045,2.729-0.084,3.747-0.115c0.378-0.018,0.712-0.034,1.018-0.049c0.233-0.014,0.355-0.025,0.354-0.034
								c0-0.009-0.123-0.014-0.356-0.016c-0.306,0-0.641,0.001-1.019,0.002c-1.018,0.01-2.27,0.022-3.747,0.036
								c-3.164,0.03-7.535,0.047-12.364-0.008c-4.827-0.057-9.196-0.175-12.359-0.277c-1.477-0.048-2.728-0.089-3.745-0.122
								c-0.378-0.009-0.713-0.018-1.019-0.025C233.989,448.13,233.867,448.133,233.866,448.141z"/>
						</g>
					</g>
				</g>
				<g>
					<g>
						<g>
							<path style="fill:#263238;" d="M261.62,449.008c0.076,0.01,0.144-0.883,0.719-1.78c0.559-0.907,1.335-1.356,1.292-1.42
								c-0.014-0.062-0.901,0.317-1.504,1.287C261.514,448.058,261.557,449.022,261.62,449.008z"/>
						</g>
					</g>
				</g>
				<g>
					<g>
						<g>
							<path style="fill:#263238;" d="M255.573,445.857c0.058,0.038,0.352-0.313,0.658-0.783c0.306-0.47,0.507-0.882,0.449-0.92
								c-0.058-0.038-0.353,0.313-0.658,0.784C255.716,445.408,255.515,445.82,255.573,445.857z"/>
						</g>
					</g>
				</g>
				<g>
					<g>
						<g>
							<path style="fill:#263238;" d="M253.914,444.957c0.046,0.052,0.373-0.162,0.732-0.477c0.358-0.315,0.612-0.612,0.566-0.664
								c-0.046-0.052-0.373,0.162-0.731,0.477C254.122,444.608,253.869,444.905,253.914,444.957z"/>
						</g>
					</g>
				</g>
				<g>
					<g>
						<g>
							<path style="fill:#263238;" d="M252.88,443.001c-0.001,0.069,0.479,0.136,1.074,0.149c0.594,0.013,1.078-0.032,1.079-0.101
								c0.001-0.069-0.479-0.135-1.074-0.148C253.365,442.887,252.882,442.932,252.88,443.001z"/>
						</g>
					</g>
				</g>
				<g>
					<g>
						<g>
							<path style="fill:#263238;" d="M252.533,441.626c-0.024,0.061,0.498,0.304,1.196,0.362c0.698,0.062,1.253-0.087,1.24-0.152
								c-0.011-0.071-0.556-0.037-1.219-0.097C253.087,441.684,252.556,441.557,252.533,441.626z"/>
						</g>
					</g>
				</g>
				<g>
					<g>
						<g>
							<path style="fill:#263238;" d="M256.291,444.068c-0.002,0.028,0.506,0.096,1.324,0.006c0.408-0.045,0.892-0.136,1.413-0.296
								c0.259-0.089,0.53-0.155,0.811-0.324c0.132-0.086,0.279-0.207,0.332-0.408c0.057-0.198-0.047-0.422-0.195-0.531
								c-1.259-0.669-2.534,0.029-3.01,0.678c-0.262,0.331-0.384,0.655-0.441,0.879c-0.056,0.226-0.053,0.355-0.038,0.357
								c0.047,0.018,0.095-0.52,0.615-1.123c0.257-0.295,0.643-0.581,1.139-0.723c0.469-0.134,1.135-0.164,1.577,0.124
								c0.208,0.158,0.124,0.404-0.111,0.541c-0.219,0.138-0.502,0.221-0.748,0.31c-0.503,0.167-0.971,0.274-1.367,0.34
								C256.797,444.031,256.292,444.027,256.291,444.068z"/>
						</g>
					</g>
				</g>
				<g>
					<g>
						<g>
							<path style="fill:#263238;" d="M256.634,444.137c0.019,0.015,0.217-0.321,0.163-0.918c-0.029-0.293-0.133-0.641-0.351-0.971
								c-0.231-0.296-0.527-0.705-1.095-0.687c-0.307,0.036-0.461,0.384-0.415,0.607c0.022,0.232,0.124,0.432,0.219,0.594
								c0.193,0.333,0.413,0.603,0.617,0.808c0.411,0.41,0.737,0.569,0.752,0.544c0.024-0.032-0.261-0.24-0.622-0.664
								c-0.179-0.212-0.374-0.48-0.546-0.801c-0.179-0.282-0.298-0.786,0.035-0.842c0.332-0.028,0.667,0.305,0.866,0.572
								c0.205,0.289,0.317,0.599,0.365,0.865C256.717,443.784,256.59,444.127,256.634,444.137z"/>
						</g>
					</g>
				</g>
				<g>
					<g>
						<g>
							<path style="fill:#263238;" d="M234.348,442.508c0.004,0.047,0.591-0.05,1.521,0.07c0.921,0.112,2.2,0.505,3.307,1.405
								c1.105,0.902,1.748,2.076,2.044,2.955c0.305,0.887,0.329,1.481,0.376,1.475c0.015-0.001,0.024-0.149,0.005-0.416
								c-0.018-0.267-0.078-0.652-0.213-1.114c-0.26-0.917-0.902-2.154-2.054-3.095c-1.153-0.938-2.494-1.317-3.445-1.387
								c-0.479-0.039-0.869-0.019-1.133,0.017C234.489,442.454,234.346,442.493,234.348,442.508z"/>
						</g>
					</g>
				</g>
				<g>
					<g>
						<g>
							<path style="fill:#263238;" d="M236.576,433.956c-0.069-0.002-0.169,1.892-0.224,4.23c-0.055,2.339-0.044,4.235,0.025,4.237
								c0.069,0.002,0.169-1.892,0.224-4.231C236.656,435.855,236.645,433.958,236.576,433.956z"/>
						</g>
					</g>
				</g>
				<g>
					<g>
						<g>
							<path style="fill:#263238;" d="M244.239,446.551c-0.01,0.064,1.331,0.299,3.005,0.331c1.674,0.036,3.023-0.144,3.016-0.209
								c-0.006-0.072-1.352-0.005-3.011-0.041C245.591,446.601,244.248,446.479,244.239,446.551z"/>
						</g>
					</g>
				</g>
				<g>
					<g>
						<g>
							<path style="fill:#263238;" d="M240.201,446.501c-0.051,0.05,0.107,0.286,0.241,0.597c0.139,0.309,0.206,0.585,0.277,0.581
								c0.067,0,0.11-0.325-0.049-0.682C240.514,446.639,240.246,446.452,240.201,446.501z"/>
						</g>
					</g>
				</g>
				<g>
					<g>
						<g>
							<path style="fill:#263238;" d="M238.699,444.591c-0.05,0.048,0.081,0.264,0.292,0.482c0.211,0.219,0.422,0.357,0.472,0.309
								c0.05-0.048-0.081-0.264-0.292-0.482C238.96,444.681,238.749,444.543,238.699,444.591z"/>
						</g>
					</g>
				</g>
				<g>
					<g>
						<g>
							<path style="fill:#263238;" d="M236.531,443.702c0.014,0.07,0.287,0.07,0.589,0.18c0.304,0.103,0.518,0.273,0.572,0.227
								c0.056-0.037-0.115-0.333-0.49-0.463C236.828,443.514,236.511,443.638,236.531,443.702z"/>
						</g>
					</g>
				</g>
				<g>
					<g>
						<g>
							<path style="fill:#263238;" d="M234.985,443.277c-0.026,0.064,0.092,0.171,0.262,0.239c0.17,0.068,0.329,0.072,0.355,0.008
								c0.026-0.064-0.092-0.171-0.262-0.239C235.169,443.216,235.011,443.213,234.985,443.277z"/>
						</g>
					</g>
				</g>
			</g>
		</g>
		<g>
			<g>
				<g>
					<g>
						<g>
							<path style="fill:#E8505B;" d="M295.516,432.626l-4.488-10.044l-18.867,8.286l6.41,14.763l1.203-0.439
								c5.333-1.997,26.976-10.532,29.993-13.116C313.131,429.196,295.516,432.626,295.516,432.626z"/>
						</g>
					</g>
					<g>
						<g>
							<path style="fill:#F5F5F5;" d="M285.346,442.48c-0.961-1.458-2.481-2.538-4.174-2.965c-1.693-0.427-3.475-0.262-5.013,0.565
								l2.312,5.275L285.346,442.48z"/>
						</g>
					</g>
				</g>
				<g>
					<g>
						<path style="fill:#F5F5F5;" d="M304.245,431.229c0,0,6.33-0.847,6.036,0.386c-0.294,1.233-21.841,10.681-31.71,14.017
							l-0.155-0.435l25.227-10.806C303.643,434.392,303.167,431.758,304.245,431.229z"/>
					</g>
				</g>
				<g>
					<g>
						<g>
							<path style="fill:#263238;" d="M278.115,445.316c0.003,0.008,0.12-0.029,0.34-0.107c0.287-0.106,0.602-0.221,0.957-0.352
								c0.95-0.369,2.117-0.822,3.495-1.356c2.943-1.166,6.987-2.831,11.412-4.767c4.426-1.938,8.394-3.778,11.247-5.149
								c1.328-0.649,2.453-1.199,3.368-1.647c0.337-0.172,0.635-0.324,0.908-0.463c0.206-0.108,0.313-0.169,0.309-0.177
								c-0.004-0.008-0.118,0.038-0.331,0.131c-0.279,0.126-0.584,0.265-0.928,0.421c-0.924,0.428-2.06,0.954-3.401,1.574
								c-2.872,1.329-6.849,3.143-11.272,5.08c-4.423,1.934-8.454,3.624-11.378,4.832c-1.366,0.564-2.523,1.041-3.464,1.43
								c-0.348,0.147-0.657,0.277-0.939,0.396C278.222,445.255,278.111,445.308,278.115,445.316z"/>
						</g>
					</g>
				</g>
				<g>
					<g>
						<g>
							<path style="fill:#263238;" d="M303.767,434.687c0.073-0.022-0.232-0.864-0.077-1.918c0.137-1.057,0.659-1.785,0.594-1.826
								c-0.039-0.051-0.691,0.659-0.841,1.792C303.279,433.865,303.716,434.725,303.767,434.687z"/>
						</g>
					</g>
				</g>
				<g>
					<g>
						<g>
							<path style="fill:#263238;" d="M296.959,434.303c0.068,0.01,0.193-0.43,0.277-0.985c0.085-0.554,0.099-1.012,0.031-1.023
								c-0.068-0.011-0.192,0.43-0.277,0.985C296.905,433.835,296.891,434.293,296.959,434.303z"/>
						</g>
					</g>
				</g>
				<g>
					<g>
						<g>
							<path style="fill:#263238;" d="M295.077,434.165c0.063,0.028,0.273-0.301,0.47-0.735c0.197-0.435,0.306-0.81,0.243-0.839
								c-0.063-0.028-0.273,0.301-0.47,0.736C295.123,433.761,295.014,434.137,295.077,434.165z"/>
						</g>
					</g>
				</g>
				<g>
					<g>
						<g>
							<path style="fill:#263238;" d="M293.33,432.808c0.027,0.064,0.493-0.074,1.04-0.306c0.547-0.233,0.969-0.473,0.942-0.536
								c-0.027-0.063-0.492,0.074-1.04,0.306C293.725,432.504,293.303,432.744,293.33,432.808z"/>
						</g>
					</g>
				</g>
				<g>
					<g>
						<g>
							<path style="fill:#263238;" d="M292.447,431.697c0.004,0.066,0.579,0.072,1.239-0.162c0.662-0.23,1.107-0.595,1.068-0.649
								c-0.039-0.061-0.522,0.195-1.151,0.413C292.977,431.522,292.44,431.625,292.447,431.697z"/>
						</g>
					</g>
				</g>
				<g>
					<g>
						<g>
							<path style="fill:#263238;" d="M296.878,432.376c0.01,0.026,0.5-0.121,1.209-0.539c0.354-0.209,0.757-0.491,1.166-0.851
								c0.199-0.188,0.419-0.359,0.605-0.629c0.085-0.133,0.169-0.304,0.135-0.508c-0.03-0.204-0.216-0.365-0.396-0.404
								c-1.423-0.092-2.298,1.069-2.465,1.856c-0.103,0.41-0.08,0.755-0.041,0.983c0.042,0.229,0.098,0.345,0.112,0.341
								c0.05-0.003-0.127-0.513,0.099-1.277c0.112-0.375,0.347-0.795,0.741-1.127c0.372-0.315,0.967-0.616,1.488-0.535
								c0.255,0.058,0.279,0.318,0.121,0.539c-0.143,0.216-0.367,0.408-0.554,0.59c-0.39,0.359-0.772,0.649-1.106,0.872
								C297.323,432.135,296.861,432.339,296.878,432.376z"/>
						</g>
					</g>
				</g>
				<g>
					<g>
						<g>
							<path style="fill:#263238;" d="M297.218,432.299c0.023,0.006,0.066-0.383-0.229-0.903c-0.147-0.255-0.384-0.529-0.72-0.741
								c-0.332-0.175-0.77-0.425-1.281-0.176c-0.265,0.159-0.262,0.539-0.128,0.724c0.115,0.203,0.291,0.343,0.444,0.451
								c0.313,0.224,0.625,0.38,0.895,0.483c0.543,0.205,0.906,0.215,0.909,0.187c0.008-0.039-0.337-0.112-0.84-0.349
								c-0.25-0.119-0.538-0.283-0.827-0.505c-0.279-0.183-0.595-0.594-0.315-0.782c0.291-0.162,0.733,0.004,1.025,0.165
								c0.306,0.179,0.535,0.415,0.689,0.638C297.149,431.943,297.174,432.307,297.218,432.299z"/>
						</g>
					</g>
				</g>
				<g>
					<g>
						<g>
							<path style="fill:#263238;" d="M276.236,439.983c0.023,0.041,0.518-0.288,1.415-0.562c0.886-0.277,2.213-0.445,3.592-0.08
								c1.378,0.367,2.447,1.173,3.079,1.853c0.643,0.683,0.909,1.214,0.949,1.19c0.014-0.007-0.039-0.146-0.166-0.381
								c-0.127-0.236-0.339-0.562-0.652-0.927c-0.615-0.729-1.708-1.593-3.146-1.976c-1.437-0.381-2.815-0.174-3.711,0.153
								c-0.453,0.162-0.8,0.34-1.026,0.482C276.342,439.876,276.227,439.97,276.236,439.983z"/>
						</g>
					</g>
				</g>
				<g>
					<g>
						<g>
							<path style="fill:#263238;" d="M274.748,431.272c-0.064,0.027,0.624,1.795,1.536,3.948c0.912,2.154,1.703,3.878,1.766,3.851
								c0.063-0.027-0.624-1.794-1.536-3.948C275.602,432.969,274.811,431.245,274.748,431.272z"/>
						</g>
					</g>
				</g>
				<g>
					<g>
						<g>
							<path style="fill:#263238;" d="M286.914,439.599c0.018,0.063,1.336-0.275,2.875-0.935c1.541-0.656,2.696-1.375,2.663-1.431
								c-0.035-0.064-1.234,0.552-2.761,1.202C288.167,439.088,286.893,439.529,286.914,439.599z"/>
						</g>
					</g>
				</g>
				<g>
					<g>
						<g>
							<path style="fill:#263238;" d="M283.213,441.215c-0.026,0.066,0.215,0.217,0.465,0.445c0.253,0.224,0.428,0.448,0.492,0.415
								c0.061-0.027-0.034-0.341-0.325-0.601C283.556,441.212,283.234,441.151,283.213,441.215z"/>
						</g>
					</g>
				</g>
				<g>
					<g>
						<g>
							<path style="fill:#263238;" d="M281.059,440.091c-0.026,0.064,0.182,0.207,0.464,0.319c0.282,0.112,0.531,0.151,0.557,0.087
								c0.025-0.064-0.182-0.207-0.465-0.319C281.334,440.066,281.084,440.027,281.059,440.091z"/>
						</g>
					</g>
				</g>
				<g>
					<g>
						<g>
							<path style="fill:#263238;" d="M278.717,440.173c0.041,0.058,0.291-0.054,0.611-0.078c0.319-0.031,0.585,0.036,0.615-0.029
								c0.035-0.057-0.241-0.256-0.637-0.22C278.91,439.879,278.672,440.123,278.717,440.173z"/>
						</g>
					</g>
				</g>
				<g>
					<g>
						<g>
							<path style="fill:#263238;" d="M277.133,440.422c0.003,0.069,0.154,0.118,0.337,0.11c0.183-0.008,0.329-0.07,0.326-0.139
								c-0.003-0.069-0.154-0.118-0.337-0.11C277.276,440.29,277.13,440.353,277.133,440.422z"/>
						</g>
					</g>
				</g>
			</g>
		</g>
		<g>
			<g>
				<path style="fill:#E8505B;" d="M108.506,359.122L93.627,247.928c-0.398-2.973,2.058-5.552,5.047-5.299l35.862,3.029
					c3.304,0.279,5.924,2.903,6.198,6.207l8.733,105.277L108.506,359.122z"/>
			</g>
			<g style="opacity:0.2;">
				<path d="M108.506,359.122L93.627,247.928c-0.398-2.973,2.058-5.552,5.047-5.299l35.862,3.029
					c3.304,0.279,5.924,2.903,6.198,6.207l8.733,105.277L108.506,359.122z"/>
			</g>
		</g>
		<g>
			<g>
				<path style="fill:#263238;" d="M143.108,195.706c-0.3-4.233-1.412-8.363-2.027-12.562c-0.616-4.199-0.706-8.627,0.952-12.533
					c1.875-4.417,5.866-7.724,10.338-9.462c4.473-1.738,9.397-2.03,14.177-1.618c0.86,0.074,1.741,0.177,2.509,0.572
					c0.768,0.395,1.409,1.145,1.437,2.008c0.027,0.863-0.743,1.737-1.598,1.619c1.818,0.252,3.653,0.508,5.372,1.151
					c0.684,0.256,1.39,0.611,1.738,1.254c0.395,0.73,0.213,1.663-0.24,2.358c-0.452,0.695-1.134,1.204-1.802,1.696
					c0.839-0.266,1.754,0.455,1.944,1.314c0.191,0.859-0.173,1.754-0.686,2.469c-0.513,0.715-1.175,1.312-1.704,2.016
					c-2.163,2.876-1.739,6.868-1.214,10.428"/>
			</g>
			<g>
				<g>
					<g>
						<g>
							<path style="fill:#B78876;" d="M143.503,220.551l20.209-0.365c0.27-2.34,0.663-11.434,0.663-11.434s8.447-0.785,9.067-9.144
								c0.619-8.359,0.355-27.658,0.355-27.658l0,0c-9.427-4.759-20.691-4.044-29.441,1.87l-1.298,0.878L143.503,220.551z"/>
						</g>
					</g>
					<g>
						<g>
							<g>
								<path style="fill:#263238;" d="M170.984,186.455c-0.469-0.482-0.459-1.252,0.022-1.721c0.481-0.469,1.252-0.459,1.721,0.022
									c0.469,0.481,0.459,1.252-0.022,1.721C172.224,186.946,171.453,186.936,170.984,186.455z"/>
							</g>
						</g>
						<g>
							<g>
								<g>
									<path style="fill:#263238;" d="M173.13,184.424c-0.14,0.137-0.923-0.546-2.074-0.623c-1.151-0.093-2.025,0.467-2.143,0.311
										c-0.058-0.07,0.089-0.323,0.471-0.578c0.375-0.254,1.006-0.482,1.724-0.429c0.717,0.053,1.308,0.371,1.642,0.677
										C173.09,184.092,173.197,184.364,173.13,184.424z"/>
								</g>
							</g>
						</g>
					</g>
					<g>
						<g>
							<g>
								<path style="fill:#263238;" d="M159.793,184.609c0.55,0.387,0.682,1.146,0.295,1.696c-0.387,0.55-1.146,0.682-1.696,0.295
									c-0.55-0.387-0.682-1.146-0.295-1.695C158.484,184.355,159.244,184.223,159.793,184.609z"/>
							</g>
						</g>
						<g>
							<g>
								<g>
									<path style="fill:#263238;" d="M160.553,184.667c-0.14,0.137-0.923-0.546-2.074-0.622
										c-1.151-0.094-2.025,0.467-2.143,0.311c-0.058-0.07,0.088-0.323,0.471-0.578c0.375-0.254,1.006-0.482,1.724-0.429
										c0.717,0.053,1.308,0.371,1.642,0.677C160.512,184.334,160.62,184.606,160.553,184.667z"/>
								</g>
							</g>
						</g>
					</g>
					<g>
						<g>
							<g>
								<path style="fill:#263238;" d="M164.586,194.457c-0.002-0.091,0.719-0.191,1.888-0.28c0.303-0.014,0.544-0.068,0.576-0.229
									c0.065-0.179-0.031-0.508-0.163-0.876c-0.249-0.78-0.502-1.57-0.767-2.397c-1.053-3.413-1.766-6.223-1.593-6.276
									c0.173-0.053,1.167,2.669,2.22,6.082c0.247,0.833,0.484,1.627,0.717,2.413c0.089,0.355,0.274,0.775,0.088,1.263
									c-0.099,0.244-0.347,0.409-0.549,0.449c-0.203,0.048-0.373,0.038-0.518,0.035
									C165.314,194.611,164.588,194.548,164.586,194.457z"/>
							</g>
						</g>
					</g>
					<g>
						<g>
							<path style="fill:#FFFFFF;" d="M160.764,195.499c-1.157-0.789,3.197,1.96,5.549,1.99c0,0-1.478,2.067-3.835,1.036
								C160.031,197.454,160.764,195.499,160.764,195.499z"/>
						</g>
					</g>
					<g>
						<g>
							<path style="fill:#A36957;" d="M164.396,208.632c0,0-5.313,0.104-10.715-3.772c0,0,2.206,6.18,10.6,5.941L164.396,208.632z"
								/>
						</g>
					</g>
				</g>
			</g>
			<g>
				<path style="fill:#263238;" d="M142.788,181.038l0.437,10.85c0,0,3.804-1.156,4.06-1.267c0.256-0.111-0.072-13.288-0.072-13.288
					s-0.533-4.969,2.709-6.148c3.406-1.239,4.892,1.235,9.72,2.048c15.932,2.684,14.833-2.204,14.833-2.204s2.01-2.146-2.081-4.51
					c-4.226-2.442-14.325-3.158-19.928-1.229c-11.028,3.796-11.66,7.56-11.66,10.891
					C140.806,180.837,142.788,181.038,142.788,181.038z"/>
			</g>
			<g>
				<g>
					<g>
						<path style="fill:#B78876;" d="M144.663,182.12c-0.181-0.069-6.206-0.852-5.637,6.263c0.569,7.115,7.566,4.187,7.562,3.982
							C146.584,192.16,144.663,182.12,144.663,182.12z"/>
					</g>
				</g>
				<g>
					<g>
						<g>
							<path style="fill:#A36957;" d="M144.208,190.042c-0.033-0.02-0.117,0.097-0.319,0.21c-0.197,0.109-0.543,0.202-0.925,0.093
								c-0.774-0.216-1.502-1.359-1.639-2.638c-0.07-0.646,0.016-1.274,0.205-1.802c0.176-0.538,0.483-0.928,0.856-1.026
								c0.37-0.117,0.656,0.088,0.759,0.281c0.111,0.191,0.078,0.337,0.116,0.346c0.021,0.016,0.143-0.131,0.063-0.421
								c-0.041-0.139-0.138-0.3-0.316-0.423c-0.182-0.125-0.439-0.176-0.7-0.126c-0.546,0.082-0.999,0.626-1.206,1.207
								c-0.237,0.586-0.35,1.292-0.271,2.017c0.16,1.43,1.001,2.713,2.054,2.928c0.511,0.09,0.916-0.094,1.118-0.279
								C144.21,190.215,144.234,190.053,144.208,190.042z"/>
						</g>
					</g>
				</g>
			</g>
		</g>
		<g>
			<path style="fill:#B78876;" d="M224.084,278.031c0,0,9.956-0.477,12.031,0.428c3.467,1.512,13.762,17.657,13.242,17.66
				c-1.554,0.009-4.764-0.013-4.764-0.013l-16.024-6.066l-3.766,0.954L224.084,278.031z"/>
		</g>
		<g>
			<g>
				<path style="fill:#263238;" d="M267.078,324.374c0,0,29.95,103.646,29.993,103.114c0.043-0.532-26.819,12.93-26.819,12.93
					l-18.141-74.942L267.078,324.374z"/>
			</g>
			<g>
				<polygon style="fill:#455A64;" points="269.659,441.051 298.005,427.219 296.774,423.434 268.209,437.282 				"/>
			</g>
			<g>
				<g>
					<g>
						<path style="fill:#455A64;" d="M265.939,402.925c-0.146,0.043-0.463-0.601-0.709-1.44c-0.246-0.839-0.328-1.552-0.182-1.595
							c0.146-0.042,0.463,0.602,0.709,1.44C266.003,402.168,266.085,402.882,265.939,402.925z"/>
					</g>
				</g>
				<g>
					<g>
						<path style="fill:#455A64;" d="M267.786,408.975c-0.145,0.046-0.471-0.595-0.73-1.43c-0.258-0.835-0.35-1.548-0.205-1.592
							c0.145-0.044,0.472,0.596,0.73,1.43C267.839,408.217,267.931,408.93,267.786,408.975z"/>
					</g>
				</g>
				<g>
					<g>
						<path style="fill:#455A64;" d="M269.719,415c-0.144,0.047-0.48-0.588-0.75-1.42c-0.27-0.832-0.372-1.543-0.227-1.59
							c0.145-0.046,0.48,0.589,0.75,1.42C269.761,414.241,269.863,414.952,269.719,415z"/>
					</g>
				</g>
				<g>
					<g>
						<path style="fill:#455A64;" d="M271.737,420.998c-0.144,0.049-0.488-0.581-0.77-1.409c-0.282-0.828-0.394-1.538-0.25-1.587
							c0.144-0.048,0.488,0.583,0.77,1.409C271.768,420.238,271.88,420.948,271.737,420.998z"/>
					</g>
				</g>
				<g>
					<g>
						<path style="fill:#455A64;" d="M273.839,426.968c-0.143,0.052-0.496-0.575-0.79-1.398c-0.293-0.824-0.415-1.533-0.272-1.583
							c0.143-0.05,0.497,0.576,0.79,1.399C273.86,426.208,273.982,426.916,273.839,426.968z"/>
					</g>
				</g>
				<g>
					<g>
						<path style="fill:#455A64;" d="M276.026,432.909c-0.142,0.053-0.504-0.568-0.809-1.388c-0.305-0.82-0.437-1.527-0.294-1.579
							c0.142-0.052,0.505,0.569,0.809,1.388C276.036,432.148,276.168,432.856,276.026,432.909z"/>
					</g>
				</g>
			</g>
			<g>
				<g>
					<path style="fill:#455A64;" d="M274.429,435.401c-0.034,0.016-0.246-0.371-0.599-1.085c-0.35-0.715-0.833-1.762-1.381-3.076
						c-1.112-2.621-2.484-6.309-3.861-10.424c-1.38-4.116-2.535-7.87-3.361-10.589c-0.376-1.276-0.694-2.355-0.951-3.229
						c-0.215-0.766-0.316-1.195-0.28-1.207c0.036-0.012,0.206,0.395,0.483,1.141c0.278,0.745,0.659,1.831,1.118,3.176
						c0.938,2.814,2.16,6.479,3.512,10.533c1.375,4.109,2.684,7.805,3.7,10.454c0.481,1.238,0.887,2.286,1.217,3.134
						C274.318,434.969,274.464,435.385,274.429,435.401z"/>
				</g>
			</g>
		</g>
		<g>
			<path style="fill:#263238;" d="M127.491,317.171c0.252-5.494-2.871,30.126,24.508,31.072c27.407,0.947,83.322,0.527,83.322,0.527
				l-6.55,90.328h32.846l6.863-96.057c0,0,3.497-27.839-15.549-31.393c-11.923-2.225-86.052-2.941-86.052-2.941L127.491,317.171z"/>
		</g>
		<g>
			<polygon style="fill:#455A64;" points="228.021,439.293 262.609,439.293 262.609,433.914 228.021,433.956 			"/>
		</g>
		<g>
			<g>
				<path style="fill:#455A64;" d="M173.905,343.973c0-0.009,0.119-0.021,0.352-0.037c0.258-0.015,0.601-0.034,1.036-0.059
					c0.942-0.042,2.283-0.101,4.001-0.178c3.513-0.134,8.565-0.326,14.845-0.565c12.633-0.434,30.205-1.038,50.091-1.721
					l0.318-0.011l-0.039,0.317c-0.452,3.684-0.83,7.568-1.15,11.525c-0.435,5.643-0.859,11.152-1.269,16.474
					c-0.431,5.324-1.009,10.442-1.507,15.319c-1.023,9.748-1.945,18.528-2.72,25.914c-0.792,7.352-1.434,13.311-1.881,17.465
					c-0.231,2.038-0.413,3.631-0.539,4.746c-0.065,0.521-0.116,0.929-0.154,1.233c-0.038,0.277-0.062,0.419-0.071,0.418
					c-0.009-0.001-0.004-0.145,0.015-0.424c0.025-0.305,0.058-0.715,0.1-1.238c0.103-1.117,0.249-2.714,0.437-4.756
					c0.406-4.158,0.989-10.123,1.707-17.483c0.742-7.389,1.624-16.173,2.603-25.926c0.484-4.881,1.052-9.996,1.475-15.312
					c0.406-5.322,0.827-10.831,1.258-16.475c0.321-3.961,0.701-7.852,1.158-11.547l0.279,0.305
					c-19.889,0.611-37.462,1.15-50.097,1.538c-6.283,0.169-11.336,0.306-14.85,0.4c-1.719,0.036-3.061,0.063-4.004,0.083
					c-0.436,0.004-0.779,0.007-1.038,0.009C174.025,343.986,173.906,343.981,173.905,343.973z"/>
			</g>
		</g>
		<g>
			<g>
				<g>
					<path style="fill:#455A64;" d="M177.07,340.091c0.004,0.152-0.702,0.291-1.576,0.312c-0.874,0.021-1.585-0.086-1.589-0.238
						c-0.004-0.152,0.702-0.291,1.576-0.312C176.355,339.833,177.066,339.94,177.07,340.091z"/>
				</g>
			</g>
			<g>
				<g>
					<path style="fill:#455A64;" d="M183.4,339.942c0.004,0.152-0.702,0.292-1.576,0.312c-0.874,0.021-1.585-0.086-1.589-0.238
						c-0.004-0.152,0.702-0.291,1.576-0.312C182.685,339.684,183.396,339.791,183.4,339.942z"/>
				</g>
			</g>
			<g>
				<g>
					<path style="fill:#455A64;" d="M189.729,339.793c0.004,0.152-0.702,0.291-1.576,0.312c-0.874,0.02-1.585-0.086-1.589-0.238
						c-0.004-0.152,0.702-0.291,1.576-0.312C189.014,339.535,189.726,339.642,189.729,339.793z"/>
				</g>
			</g>
			<g>
				<g>
					<path style="fill:#455A64;" d="M196.059,339.645c0.003,0.152-0.702,0.291-1.576,0.312c-0.874,0.02-1.585-0.086-1.589-0.238
						c-0.004-0.152,0.702-0.291,1.576-0.312C195.344,339.387,196.055,339.493,196.059,339.645z"/>
				</g>
			</g>
			<g>
				<g>
					<path style="fill:#455A64;" d="M202.389,339.496c0.004,0.152-0.702,0.292-1.576,0.312c-0.874,0.021-1.585-0.086-1.589-0.238
						c-0.003-0.151,0.702-0.291,1.576-0.312C201.674,339.238,202.385,339.344,202.389,339.496z"/>
				</g>
			</g>
			<g>
				<g>
					<path style="fill:#455A64;" d="M208.718,339.347c0.003,0.152-0.702,0.292-1.576,0.312c-0.874,0.021-1.585-0.086-1.589-0.238
						c-0.004-0.152,0.702-0.291,1.576-0.312C208.003,339.089,208.715,339.195,208.718,339.347z"/>
				</g>
			</g>
			<g>
				<g>
					<path style="fill:#455A64;" d="M215.048,339.198c0.004,0.152-0.702,0.291-1.576,0.312c-0.874,0.021-1.585-0.086-1.589-0.237
						c-0.003-0.152,0.702-0.291,1.576-0.312C214.333,338.94,215.044,339.047,215.048,339.198z"/>
				</g>
			</g>
			<g>
				<g>
					<path style="fill:#455A64;" d="M221.377,339.049c0.004,0.152-0.702,0.291-1.576,0.312c-0.874,0.021-1.585-0.086-1.589-0.237
						c-0.004-0.152,0.702-0.291,1.576-0.312C220.663,338.792,221.374,338.898,221.377,339.049z"/>
				</g>
			</g>
			<g>
				<g>
					<path style="fill:#455A64;" d="M227.707,338.901c0.004,0.152-0.702,0.291-1.576,0.312c-0.874,0.021-1.585-0.086-1.589-0.237
						s0.702-0.291,1.576-0.312C226.992,338.643,227.704,338.749,227.707,338.901z"/>
				</g>
			</g>
			<g>
				<g>
					<path style="fill:#455A64;" d="M234.037,338.752c0.004,0.152-0.702,0.291-1.576,0.312c-0.874,0.021-1.585-0.086-1.589-0.237
						c-0.004-0.152,0.702-0.291,1.576-0.312C233.322,338.494,234.033,338.6,234.037,338.752z"/>
				</g>
			</g>
			<g>
				<g>
					<path style="fill:#455A64;" d="M240.366,338.603c0.004,0.152-0.702,0.291-1.576,0.312c-0.874,0.02-1.585-0.086-1.589-0.238
						s0.702-0.291,1.576-0.312C239.651,338.345,240.363,338.451,240.366,338.603z"/>
				</g>
			</g>
			<g>
				<g>
					<path style="fill:#455A64;" d="M246.696,338.454c0.004,0.152-0.702,0.292-1.576,0.312c-0.874,0.021-1.585-0.086-1.589-0.238
						c-0.004-0.152,0.702-0.291,1.576-0.312C245.981,338.196,246.692,338.303,246.696,338.454z"/>
				</g>
			</g>
			<g>
				<g>
					<path style="fill:#455A64;" d="M246.686,344.191c-0.151-0.015-0.204-0.732-0.119-1.602c0.085-0.87,0.277-1.563,0.428-1.548
						c0.151,0.015,0.204,0.732,0.119,1.602C247.028,343.513,246.836,344.206,246.686,344.191z"/>
				</g>
			</g>
			<g>
				<g>
					<path style="fill:#455A64;" d="M246.067,350.492c-0.151-0.015-0.204-0.732-0.119-1.602c0.085-0.87,0.277-1.563,0.428-1.548
						c0.151,0.015,0.204,0.732,0.119,1.602C246.41,349.814,246.218,350.507,246.067,350.492z"/>
				</g>
			</g>
			<g>
				<g>
					<path style="fill:#455A64;" d="M245.449,356.794c-0.151-0.015-0.204-0.732-0.119-1.602c0.085-0.87,0.277-1.563,0.428-1.548
						c0.151,0.015,0.204,0.732,0.119,1.602C245.792,356.115,245.6,356.809,245.449,356.794z"/>
				</g>
			</g>
			<g>
				<g>
					<path style="fill:#455A64;" d="M244.831,363.095c-0.151-0.015-0.204-0.732-0.119-1.602c0.085-0.87,0.277-1.564,0.428-1.549
						c0.151,0.015,0.204,0.732,0.119,1.602C245.173,362.416,244.982,363.11,244.831,363.095z"/>
				</g>
			</g>
			<g>
				<g>
					<path style="fill:#455A64;" d="M244.212,369.396c-0.151-0.015-0.204-0.732-0.119-1.602c0.085-0.87,0.277-1.563,0.428-1.548
						c0.151,0.015,0.204,0.732,0.119,1.602C244.555,368.717,244.363,369.411,244.212,369.396z"/>
				</g>
			</g>
			<g>
				<g>
					<path style="fill:#455A64;" d="M243.594,375.697c-0.151-0.015-0.204-0.732-0.119-1.602c0.085-0.87,0.277-1.563,0.428-1.548
						c0.151,0.015,0.204,0.732,0.119,1.602C243.937,375.018,243.745,375.712,243.594,375.697z"/>
				</g>
			</g>
			<g>
				<g>
					<path style="fill:#455A64;" d="M242.976,381.998c-0.151-0.015-0.204-0.732-0.119-1.602c0.085-0.87,0.277-1.564,0.428-1.549
						c0.151,0.015,0.204,0.732,0.119,1.602C243.319,381.32,243.127,382.013,242.976,381.998z"/>
				</g>
			</g>
			<g>
				<g>
					<path style="fill:#455A64;" d="M242.358,388.299c-0.151-0.015-0.204-0.732-0.119-1.602c0.085-0.87,0.277-1.563,0.428-1.549
						c0.151,0.015,0.204,0.732,0.119,1.602C242.701,387.621,242.509,388.314,242.358,388.299z"/>
				</g>
			</g>
			<g>
				<g>
					<path style="fill:#455A64;" d="M241.74,394.6c-0.151-0.015-0.204-0.732-0.119-1.602c0.085-0.87,0.277-1.563,0.428-1.548
						c0.151,0.015,0.204,0.732,0.119,1.602C242.082,393.922,241.891,394.615,241.74,394.6z"/>
				</g>
			</g>
			<g>
				<g>
					<path style="fill:#455A64;" d="M241.121,400.901c-0.151-0.015-0.204-0.732-0.119-1.602c0.085-0.87,0.277-1.563,0.428-1.549
						c0.151,0.015,0.204,0.732,0.119,1.602C241.464,400.223,241.272,400.916,241.121,400.901z"/>
				</g>
			</g>
			<g>
				<g>
					<path style="fill:#455A64;" d="M240.503,407.203c-0.151-0.015-0.204-0.732-0.119-1.602c0.085-0.87,0.277-1.563,0.428-1.549
						c0.151,0.015,0.204,0.732,0.119,1.602C240.846,406.524,240.654,407.217,240.503,407.203z"/>
				</g>
			</g>
			<g>
				<g>
					<path style="fill:#455A64;" d="M239.885,413.504c-0.151-0.015-0.204-0.732-0.119-1.602c0.085-0.87,0.277-1.563,0.428-1.549
						c0.151,0.015,0.204,0.732,0.119,1.602C240.228,412.825,240.036,413.519,239.885,413.504z"/>
				</g>
			</g>
			<g>
				<g>
					<path style="fill:#455A64;" d="M239.267,419.805c-0.151-0.015-0.204-0.732-0.119-1.602c0.085-0.87,0.277-1.563,0.428-1.548
						c0.151,0.015,0.204,0.732,0.119,1.602C239.609,419.126,239.418,419.82,239.267,419.805z"/>
				</g>
			</g>
			<g>
				<g>
					<path style="fill:#455A64;" d="M238.648,426.106c-0.151-0.015-0.204-0.732-0.119-1.602c0.085-0.87,0.277-1.563,0.428-1.549
						c0.151,0.015,0.204,0.732,0.119,1.602C238.991,425.428,238.799,426.121,238.648,426.106z"/>
				</g>
			</g>
			<g>
				<g>
					<path style="fill:#455A64;" d="M238.03,432.407c-0.151-0.015-0.204-0.732-0.119-1.602c0.085-0.87,0.277-1.563,0.428-1.549
						c0.151,0.015,0.204,0.732,0.119,1.602C238.373,431.729,238.181,432.422,238.03,432.407z"/>
				</g>
			</g>
			<g>
				<g>
					<path style="fill:#455A64;" d="M237.703,435.746c-0.151-0.015-0.269-0.069-0.264-0.121c0.005-0.052,0.132-0.082,0.283-0.067
						c0.151,0.015,0.269,0.069,0.264,0.121C237.98,435.73,237.854,435.761,237.703,435.746z"/>
				</g>
			</g>
		</g>
		<g>
			<g>
				<path style="fill:#263238;" d="M239.803,344.562c0.098,0.116-0.867,1.166-2.154,2.344c-1.288,1.179-2.419,2.047-2.526,1.939
					c-0.107-0.108,0.857-1.157,2.155-2.345C238.574,345.315,239.705,344.446,239.803,344.562z"/>
			</g>
		</g>
		<g>
			<g>
				<path style="fill:#263238;" d="M242.072,345.779c0.062,0.138-1.52,0.983-3.532,1.887c-2.013,0.904-3.695,1.525-3.758,1.386
					c-0.062-0.138,1.519-0.983,3.533-1.887C240.327,346.261,242.01,345.64,242.072,345.779z"/>
			</g>
		</g>
		<g>
			<path style="fill:#455A64;" d="M175.271,274.099c0,0-3.35-35.889-9.302-51.602l1.186-0.891l-1.772-6.185l-22.26-2.7l0.342,4.829
				c-3.336,1.616-6.134,4.093-7.613,7.236c-7.974,16.944-4.043,36.719-8.295,73.376c0,0-4.976,17.191,0.168,22.569l48.563-11.319
				l-2.317-11.081c21.2-0.405,56.059-4.303,56.059-4.303l-0.972-20.056C229.058,273.973,176.975,274.285,175.271,274.099"/>
		</g>
		<g>
			<g>
				<g>
					<path style="fill:#E0E0E0;" d="M165.342,215.391c0.144-0.047,0.864,1.754,1.608,4.023c0.165,0.577,0.406,1.071,0.443,1.693
						c0.013,0.305-0.101,0.629-0.285,0.837c-0.181,0.212-0.398,0.34-0.601,0.421c-0.84,0.259-1.318,0.074-1.321,0.034
						c-0.019-0.101,0.525-0.09,1.159-0.387c0.306-0.167,0.59-0.468,0.543-0.885c-0.038-0.418-0.291-0.976-0.459-1.541
						C165.684,217.316,165.198,215.438,165.342,215.391z"/>
				</g>
			</g>
			<g>
				<g>
					<path style="fill:#263238;" d="M170.652,242.115c0,0.152-8.951,0.275-19.99,0.275c-11.043,0-19.992-0.123-19.992-0.275
						c0-0.152,8.949-0.275,19.992-0.275C161.701,241.84,170.652,241.963,170.652,242.115z"/>
				</g>
			</g>
			<g>
				<g>
					<path style="fill:#263238;" d="M168.557,232.002c0,0.152-7.934,0.275-17.719,0.275c-9.788,0-17.721-0.123-17.721-0.275
						c0-0.152,7.932-0.275,17.721-0.275C160.623,231.727,168.557,231.85,168.557,232.002z"/>
				</g>
			</g>
			<g>
				<g>
					<path style="fill:#263238;" d="M165.64,223.105c0,0.152-6.563,0.275-14.657,0.275c-8.097,0-14.658-0.123-14.658-0.275
						c0-0.152,6.562-0.275,14.658-0.275C159.077,222.83,165.64,222.953,165.64,223.105z"/>
				</g>
			</g>
			<g>
				<g>
					<path style="fill:#263238;" d="M165.348,216.834c0,0.152-5.028,0.275-11.229,0.275c-6.203,0-11.231-0.123-11.231-0.275
						c0-0.152,5.027-0.275,11.231-0.275C160.32,216.559,165.348,216.682,165.348,216.834z"/>
				</g>
			</g>
			<g>
				<g>
					<path style="fill:#263238;" d="M172.057,251.837c0,0.152-9.469,0.275-21.146,0.275c-11.682,0-21.148-0.123-21.148-0.275
						c0-0.152,9.467-0.275,21.148-0.275C162.589,251.562,172.057,251.685,172.057,251.837z"/>
				</g>
			</g>
			<g>
				<g>
					<path style="fill:#263238;" d="M173.779,261.608c0,0.152-9.854,0.275-22.008,0.275c-12.157,0-22.009-0.123-22.009-0.275
						c0-0.152,9.852-0.275,22.009-0.275C163.925,261.333,173.779,261.457,173.779,261.608z"/>
				</g>
			</g>
			<g>
				<g>
					<path style="fill:#263238;" d="M174.86,270.614c0,0.152-10.096,0.275-22.548,0.275c-12.456,0-22.55-0.123-22.55-0.275
						c0-0.152,10.094-0.275,22.55-0.275C164.764,270.34,174.86,270.463,174.86,270.614z"/>
				</g>
			</g>
			<g>
				<g>
					<path style="fill:#263238;" d="M224.084,280.457c0,0.152-21.302,0.275-47.573,0.275c-26.281,0-47.578-0.123-47.578-0.275
						c0-0.152,21.298-0.275,47.578-0.275C202.782,280.182,224.084,280.305,224.084,280.457z"/>
				</g>
			</g>
			<g>
				<g>
					<path style="fill:#263238;" d="M224.449,288.344c0,0.152-21.463,0.275-47.934,0.275c-26.48,0-47.938-0.123-47.938-0.275
						c0-0.152,21.459-0.275,47.938-0.275C202.986,288.069,224.449,288.192,224.449,288.344z"/>
				</g>
			</g>
			<g>
				<g>
					<path style="fill:#263238;" d="M173.242,298.064c0,0.152-10.256,0.275-22.904,0.275c-12.653,0-22.907-0.123-22.907-0.275
						c0-0.152,10.254-0.275,22.907-0.275C162.986,297.789,173.242,297.913,173.242,298.064z"/>
				</g>
			</g>
			<g>
				<g>
					<path style="fill:#263238;" d="M175.572,307.08c0,0.152-11.149,0.275-24.899,0.275c-13.755,0-24.902-0.123-24.902-0.275
						c0-0.152,11.147-0.275,24.902-0.275C164.423,306.806,175.572,306.929,175.572,307.08z"/>
				</g>
			</g>
			<g>
				<g>
					<path style="fill:#263238;" d="M133.166,309.471c-0.152,0-0.275-17.489-0.275-39.058c0-21.576,0.123-39.062,0.275-39.062
						c0.152,0,0.275,17.485,0.275,39.062C133.441,291.982,133.318,309.471,133.166,309.471z"/>
				</g>
			</g>
			<g>
				<g>
					<path style="fill:#263238;" d="M145.185,308.506c-0.152,0-0.275-21.38-0.275-47.746c0-26.376,0.123-47.751,0.275-47.751
						c0.152,0,0.275,21.375,0.275,47.751C145.459,287.126,145.336,308.506,145.185,308.506z"/>
				</g>
			</g>
			<g>
				<g>
					<path style="fill:#263238;" d="M158.455,307.08c-0.152,0-0.275-20.611-0.275-46.031c0-25.429,0.123-46.036,0.275-46.036
						c0.152,0,0.275,20.607,0.275,46.036C158.729,286.469,158.606,307.08,158.455,307.08z"/>
				</g>
			</g>
			<g>
				<g>
					<path style="fill:#263238;" d="M169.601,309.439c-0.152,0-0.275-16.179-0.275-36.131c0-19.96,0.123-36.135,0.275-36.135
						c0.152,0,0.275,16.175,0.275,36.135C169.875,293.26,169.752,309.439,169.601,309.439z"/>
				</g>
			</g>
			<g>
				<g>
					<path style="fill:#263238;" d="M181.41,274.053c0.076,0.004,0.112,1.347,0.11,3.514c-0.002,2.168-0.043,5.16-0.122,8.463
						c-0.079,3.304-0.181,6.295-0.283,8.46c-0.102,2.165-0.202,3.505-0.278,3.505c-0.076,0-0.113-1.34-0.111-3.507
						c0.002-2.168,0.043-5.163,0.122-8.471c0.079-3.307,0.181-6.301,0.283-8.466C181.233,275.387,181.334,274.05,181.41,274.053z"/>
				</g>
			</g>
			<g>
				<g>
					<path style="fill:#263238;" d="M193.958,274.473c0.076,0.004,0.114,1.262,0.116,3.293c0.001,2.031-0.035,4.833-0.109,7.928
						c-0.074,3.095-0.172,5.897-0.27,7.925c-0.098,2.028-0.197,3.283-0.273,3.283c-0.076,0-0.114-1.255-0.116-3.286
						c-0.001-2.031,0.035-4.837,0.109-7.936c0.074-3.098,0.172-5.902,0.27-7.931C193.784,275.721,193.883,274.469,193.958,274.473z"
						/>
				</g>
			</g>
			<g>
				<g>
					<path style="fill:#263238;" d="M206.522,274.252c0.076,0.004,0.115,1.224,0.118,3.192c0.003,1.969-0.031,4.685-0.103,7.685
						c-0.072,3.001-0.167,5.716-0.264,7.682c-0.097,1.966-0.195,3.183-0.271,3.183c-0.076,0-0.115-1.217-0.118-3.185
						c-0.003-1.968,0.031-4.689,0.103-7.693c0.072-3.003,0.167-5.722,0.264-7.688C206.349,275.462,206.447,274.248,206.522,274.252z
						"/>
				</g>
			</g>
			<g>
				<g>
					<path style="fill:#263238;" d="M219.089,273.895c0.076,0.004,0.116,1.188,0.12,3.098c0.004,1.91-0.028,4.546-0.098,7.457
						c-0.07,2.911-0.163,5.546-0.259,7.454c-0.095,1.908-0.192,3.088-0.268,3.088c-0.076,0-0.116-1.181-0.12-3.09
						c-0.004-1.91,0.028-4.549,0.098-7.465c0.07-2.914,0.164-5.552,0.259-7.46C218.917,275.069,219.014,273.892,219.089,273.895z"/>
				</g>
			</g>
			<g>
				<g>
					<g>
						<path style="fill:#263238;" d="M170.912,278.571c-0.127-0.066,0.556-1.535,1.88-3.009c1.317-1.48,2.7-2.324,2.78-2.205
							c0.095,0.128-1.099,1.14-2.371,2.571C171.922,277.351,171.05,278.652,170.912,278.571z"/>
					</g>
				</g>
				<g>
					<g>
						<path style="fill:#263238;" d="M173.783,278.814c-0.139,0.027-0.383-1.395,0.219-3.015c0.588-1.626,1.693-2.553,1.782-2.442
							c0.121,0.109-0.727,1.13-1.266,2.631C173.959,277.481,173.946,278.809,173.783,278.814z"/>
					</g>
				</g>
				<g>
					<g>
						<path style="fill:#263238;" d="M224.953,293.923c-0.151,0.014-0.663-4.284-1.143-9.598c-0.48-5.316-0.747-9.635-0.595-9.648
							c0.151-0.014,0.663,4.283,1.143,9.599C224.837,289.59,225.104,293.91,224.953,293.923z"/>
					</g>
				</g>
				<g>
					<g>
						<path style="fill:#263238;" d="M225.631,278.463c0.043,0.071-0.28,0.268-0.316,0.769c-0.018,0.237,0.044,0.54,0.241,0.73
							c0.185,0.194,0.525,0.239,0.842,0.104c0.316-0.139,0.516-0.418,0.5-0.686c-0.004-0.273-0.183-0.525-0.368-0.675
							c-0.391-0.315-0.755-0.214-0.777-0.294c-0.055-0.046,0.367-0.359,0.989-0.031c0.282,0.158,0.605,0.472,0.662,0.966
							c0.066,0.504-0.3,1.025-0.787,1.225c-0.478,0.219-1.109,0.13-1.432-0.263c-0.322-0.379-0.33-0.83-0.253-1.143
							C225.118,278.486,225.635,278.391,225.631,278.463z"/>
					</g>
				</g>
				<g>
					<g>
						<path style="fill:#263238;" d="M175.205,274.001c0.001-0.006,0.086-0.004,0.251,0.007c0.185,0.014,0.426,0.033,0.736,0.058
							c0.647,0.071,1.611,0.13,2.871,0.173c2.518,0.106,6.217,0.155,10.924,0.115c9.413-0.065,22.86-0.41,38.979-1.049l0.236-0.009
							l0.012,0.236c0.312,6.23,0.653,13.038,1.011,20.179l0.011,0.227l-0.209,0.04c-2.562,0.486-5.143,0.682-7.796,0.953
							c-2.649,0.23-5.347,0.465-8.086,0.703c-5.481,0.446-11.131,0.865-16.888,1.274c-7.24,0.489-14.31,0.966-21.134,1.427
							l-0.017,0.001l-0.018-0.001c-6.126-0.395-12.081-2.593-16.237-6.632c-2.1-1.973-3.671-4.399-4.716-6.931
							c-1.071-2.528-1.746-5.117-2.368-7.623c-2.47-10.04-4.025-19.107-5.243-26.666c-0.604-3.782-1.111-7.191-1.548-10.175
							c-0.417-2.983-0.883-5.54-0.883-7.667c-0.03-2.122,0.427-3.758,0.983-4.719c0.55-0.969,1.018-1.334,1.018-1.334
							c0.032,0.025-0.419,0.411-0.932,1.38c-0.519,0.961-0.938,2.572-0.879,4.671c0.028,2.099,0.521,4.646,0.965,7.628
							c0.476,2.982,1.019,6.383,1.622,10.16c1.265,7.547,2.859,16.597,5.355,26.609c0.629,2.498,1.307,5.063,2.365,7.543
							c1.035,2.487,2.562,4.829,4.616,6.754c4.059,3.93,9.891,6.081,15.918,6.463h-0.034c6.822-0.464,13.892-0.945,21.13-1.437
							c5.754-0.432,11.402-0.855,16.883-1.267c2.737-0.235,5.433-0.466,8.08-0.694c2.633-0.263,5.264-0.468,7.719-0.928
							l-0.197,0.266c-0.341-7.141-0.667-13.95-0.965-20.181l0.247,0.226c-16.127,0.592-29.578,0.868-38.998,0.852
							c-4.71-0.002-8.411-0.094-10.932-0.247c-1.261-0.066-2.225-0.15-2.872-0.245c-0.309-0.04-0.549-0.071-0.733-0.095
							C175.287,274.022,175.204,274.007,175.205,274.001z"/>
					</g>
				</g>
				<g>
					<g>
						<path style="fill:#263238;" d="M175.205,274.001c-0.037,0.009-0.217-0.55-0.512-1.569c-0.298-1.019-0.698-2.502-1.172-4.339
							c-0.952-3.674-2.151-8.779-3.428-14.423c-1.277-5.646-2.455-10.75-3.335-14.438c-0.42-1.772-0.768-3.243-1.035-4.37
							c-0.239-1.034-0.353-1.61-0.316-1.62c0.037-0.01,0.221,0.548,0.523,1.566c0.305,1.017,0.715,2.497,1.205,4.33
							c0.977,3.668,2.216,8.764,3.493,14.411c1.266,5.597,2.412,10.66,3.27,14.453c0.406,1.775,0.743,3.249,1.002,4.378
							C175.132,273.414,175.242,273.991,175.205,274.001z"/>
					</g>
				</g>
			</g>
			<g>
				<g>
					<path style="fill:#263238;" d="M165.406,215.808c0.037,0.007-0.001,0.4-0.103,1.105c-0.102,0.705-0.266,1.721-0.481,2.975
						c-0.13,0.631-0.174,1.299-0.421,2.075c-0.128,0.372-0.411,0.813-0.897,0.97c-0.476,0.15-0.934,0.04-1.34-0.041
						c-1.653-0.339-3.455-0.779-5.33-1.292c-3.751-1.032-7.094-2.114-9.523-2.861c-1.12-0.351-2.078-0.651-2.873-0.9
						c-0.678-0.215-1.048-0.351-1.039-0.388c0.01-0.037,0.399,0.03,1.095,0.182c0.695,0.155,1.696,0.401,2.925,0.733
						c2.461,0.652,5.825,1.677,9.56,2.704c1.868,0.511,3.655,0.963,5.291,1.327c0.406,0.094,0.788,0.169,1.085,0.076
						c0.295-0.087,0.497-0.354,0.62-0.673c0.228-0.645,0.317-1.378,0.465-1.986c0.264-1.244,0.487-2.249,0.653-2.942
						C165.26,216.18,165.369,215.801,165.406,215.808z"/>
				</g>
			</g>
		</g>
		<g>
			<g>
				<g>
					<polygon style="fill:#263238;" points="147.909,354.249 154.895,449.121 157.82,448.44 156.734,356.252 					"/>
				</g>
				<g>
					<polygon style="fill:#263238;" points="118.287,357.548 97.06,449.008 100.898,449.008 131.288,357.548 					"/>
				</g>
				<g>
					<polygon style="fill:#263238;" points="174.441,357.548 203.401,449.008 206.504,449.008 183.491,357.548 					"/>
				</g>
				<g>
					<polygon style="fill:#263238;" points="178.32,363.692 113.419,406.097 113.419,408.424 180.13,363.692 					"/>
				</g>
				<g>
					<polygon style="fill:#263238;" points="123.245,363.692 193.575,411.01 193.575,407.39 125.313,361.624 					"/>
				</g>
			</g>
			<g>
				<g>
					<path style="fill:#E8505B;" d="M108.59,359.122l83.621-1.517c3.16-0.057,5.581-2.829,5.212-5.968l0,0
						c-0.32-2.725-2.652-4.766-5.395-4.722l-84.807,1.363L108.59,359.122z"/>
				</g>
				<g style="opacity:0.2;">
					<path d="M108.59,359.122l83.621-1.517c3.16-0.057,5.581-2.829,5.212-5.968l0,0c-0.32-2.725-2.652-4.766-5.395-4.722
						l-84.807,1.363L108.59,359.122z"/>
				</g>
			</g>
			<g>
				<path style="fill:#E8505B;" d="M100.072,294.482l8.434,64.64l65.936-1.575l-0.169-39.258c0.09-6.53-5.492-11.702-11.996-11.116
					l-50.28,4.535l-6.617-68.513l-6.681-0.564c-2.997-0.253-5.455,2.338-5.044,5.318L100.072,294.482z"/>
			</g>
		</g>
	</g>
</g>
</svg>
