<?xml version="1.0" encoding="utf-8"?>
<!-- Generator: Adobe Illustrator 27.5.0, SVG Export Plug-In . SVG Version: 6.00 Build 0)  -->
<svg version="1.1" id="Capa_1" xmlns="http://www.w3.org/2000/svg" xmlns:xlink="http://www.w3.org/1999/xlink" x="0px" y="0px"
	 viewBox="0 0 2122 2122" style="enable-background:new 0 0 2122 2122;" xml:space="preserve">
<path style="fill:#92BAE4;" d="M1067.998,406.222c3.339,0.037,6.683,0.051,10.01,0.138c1.888,0.049,3.762,0.15,5.646,0.215
	c3.871,0.134,7.743,0.263,11.598,0.464c2.228,0.116,4.441,0.284,6.664,0.422c3.495,0.217,6.992,0.427,10.472,0.698
	c2.347,0.184,4.68,0.415,7.02,0.624c3.337,0.297,6.677,0.588,10,0.934c2.389,0.249,4.764,0.542,7.145,0.817
	c3.26,0.376,6.52,0.751,9.765,1.175c2.383,0.312,4.755,0.661,7.131,0.998c3.228,0.458,6.454,0.919,9.666,1.424
	c2.354,0.371,4.697,0.772,7.043,1.167c3.219,0.542,6.435,1.093,9.638,1.682c2.302,0.424,4.594,0.872,6.888,1.32
	c3.231,0.63,6.456,1.274,9.67,1.952c2.242,0.473,4.477,0.965,6.712,1.461c3.25,0.721,6.492,1.461,9.724,2.231
	c2.164,0.515,4.322,1.044,6.477,1.581c3.297,0.821,6.583,1.665,9.861,2.536c2.063,0.548,4.124,1.104,6.179,1.672
	c3.356,0.926,6.697,1.883,10.03,2.862c1.951,0.573,3.901,1.147,5.845,1.738c3.44,1.045,6.865,2.126,10.281,3.226
	c1.81,0.583,3.621,1.163,5.423,1.761c3.553,1.179,7.086,2.398,10.612,3.635c1.643,0.577,3.29,1.146,4.927,1.735
	c3.716,1.339,7.41,2.723,11.095,4.126c1.416,0.539,2.838,1.067,4.25,1.615c3.969,1.543,7.911,3.138,11.842,4.756
	c1.106,0.456,2.22,0.896,3.323,1.358c4.373,1.828,8.716,3.712,13.04,5.632c0.641,0.285,1.289,0.557,1.929,0.844
	c40.623,18.193,79.043,40.412,114.774,66.139c0.018,0.013,0.037,0.027,0.055,0.041c4.416,3.18,8.789,6.417,13.122,9.704
	c0.156,0.119,0.31,0.24,0.466,0.358c4.199,3.191,8.356,6.431,12.475,9.72c0.234,0.187,0.465,0.376,0.699,0.563
	c4.044,3.239,8.049,6.524,12.014,9.856c0.262,0.221,0.523,0.443,0.784,0.664c3.936,3.318,7.832,6.682,11.688,10.091
	c0.26,0.23,0.521,0.462,0.782,0.693c3.862,3.425,7.682,6.894,11.461,10.408c0.229,0.213,0.458,0.425,0.686,0.639
	c3.809,3.552,7.575,7.148,11.299,10.789c0.186,0.182,0.374,0.364,0.559,0.547c3.788,3.712,7.529,7.469,11.226,11.272
	c0.101,0.104,0.203,0.207,0.304,0.311c114.025,117.453,184.391,277.512,184.872,454.028h193.996
	c0.001,0.591,0.021,1.177,0.022,1.769c-0.026-468.606-379.915-848.479-848.527-848.479c2.454,0,4.89,0.072,7.338,0.093V406.222z"/>
<path style="fill:#92BAE4;" d="M676.62,1590.685c-0.522-0.379-1.044-0.76-1.565-1.141c-4.802-3.507-9.556-7.073-14.257-10.706
	c-0.279-0.215-0.559-0.427-0.837-0.642c-15.105-11.712-29.677-24.074-43.688-37.038c-0.527-0.487-1.051-0.978-1.576-1.467
	c-4.203-3.915-8.357-7.883-12.455-11.906c-0.408-0.399-0.819-0.795-1.225-1.195c-13.48-13.3-26.382-27.181-38.672-41.601
	c-0.585-0.686-1.164-1.375-1.744-2.063c-3.523-4.167-6.994-8.379-10.414-12.634c-0.543-0.677-1.092-1.349-1.632-2.027
	c-7.906-9.92-15.542-20.064-22.872-30.442c-0.04-0.057-0.079-0.116-0.121-0.174c-3.463-4.907-6.848-9.872-10.179-14.877
	c-0.64-0.961-1.27-1.93-1.905-2.895c-2.808-4.27-5.568-8.574-8.278-12.912c-0.65-1.04-1.304-2.076-1.948-3.12
	c-3.025-4.903-5.994-9.842-8.892-14.829c-0.181-0.313-0.371-0.622-0.553-0.936c-3.219-5.561-6.361-11.172-9.419-16.834
	c-0.129-0.24-0.253-0.484-0.382-0.723c-2.749-5.105-5.422-10.257-8.039-15.442c-0.642-1.273-1.269-2.554-1.904-3.832
	c-2.134-4.3-4.223-8.625-6.264-12.978c-0.659-1.403-1.319-2.805-1.967-4.213c-2.166-4.704-4.275-9.437-6.331-14.2
	c-0.389-0.9-0.793-1.791-1.178-2.693c-2.475-5.803-4.875-11.645-7.185-17.533c-0.16-0.408-0.307-0.821-0.467-1.229
	c-2.055-5.269-4.037-10.576-5.958-15.911c-0.568-1.574-1.114-3.158-1.669-4.738c-1.51-4.294-2.977-8.609-4.4-12.944
	c-0.574-1.748-1.145-3.496-1.705-5.251c-1.447-4.542-2.838-9.108-4.189-13.693c-0.407-1.383-0.834-2.757-1.232-4.144
	c-1.727-6.011-3.383-12.053-4.941-18.135c-0.127-0.497-0.238-1-0.365-1.497c-1.388-5.469-2.7-10.968-3.948-16.491
	c-0.414-1.828-0.799-3.666-1.197-5.499c-0.934-4.307-1.831-8.628-2.68-12.965c-0.397-2.025-0.787-4.05-1.165-6.081
	c-0.827-4.448-1.6-8.914-2.336-13.393c-0.289-1.751-0.596-3.493-0.87-5.249c-0.968-6.203-1.867-12.429-2.66-18.688
	c-0.052-0.41-0.09-0.824-0.141-1.234c-0.725-5.809-1.363-11.644-1.934-17.5c-0.194-1.979-0.353-3.968-0.529-5.952
	c-0.389-4.387-0.739-8.785-1.04-13.198c-0.15-2.197-0.29-4.396-0.418-6.599c-0.259-4.462-0.465-8.938-0.634-13.424
	c-0.074-1.967-0.168-3.929-0.224-5.9c-0.168-5.794-0.264-11.605-0.281-17.436H212.155c-0.001-0.607-0.023-1.21-0.023-1.818
	c0,466.175,375.947,844.474,841.191,848.424v-193.985C912.653,1713.551,782.65,1667.644,676.62,1590.685z"/>
<path style="fill:#65ACD9;" d="M1715.168,1058.842c0.001,0.608,0.023,1.21,0.023,1.818c0,361.488-293.044,654.531-654.531,654.531
	c-2.453,0-4.89-0.066-7.337-0.093v193.996c2.448,0.021,4.884,0.093,7.337,0.093c468.629,0,848.528-379.899,848.528-848.528l0,0
	c0-0.016-0.001-0.033-0.001-0.049c-0.001-0.591-0.021-1.177-0.022-1.769H1715.168z"/>
<path style="fill:#455EA8;" d="M1715.191,1060.66c0-0.608-0.022-1.21-0.023-1.818c-0.481-176.516-70.847-336.575-184.872-454.028
	c3.795,3.91,7.544,7.866,11.242,11.869c-105.019-71.756-231.993-113.745-368.784-113.745
	c-361.488,0-654.531,293.043-654.531,654.531c0,171.356,65.878,327.303,173.651,443.976c-5.141-3.512-10.22-7.106-15.254-10.76
	c106.029,76.959,236.033,122.866,376.702,124.414c2.447,0.026,4.884,0.093,7.337,0.093
	C1422.147,1715.191,1715.191,1422.148,1715.191,1060.66z"/>
<path style="fill:#334C99;" d="M1152.142,1453.192c34.844-5.892,67.946-16.856,98.539-32.135
	c9.36-21.495,18.172-43.853,32.708-54.43c14.685-10.687,38.732-12.26,62.068-14.551c24.252-24.717,44.876-52.975,61.087-83.927
	c-5-22.874-10.863-46.288-5.195-63.743c5.477-16.869,24.017-32.031,41.571-47.585c2.567-17.201,3.925-34.795,3.925-52.711
	c0-17.915-1.358-35.51-3.925-52.71c-10.588-9.382-21.515-18.623-29.738-28.18c1.345,12.501,2.071,25.186,2.071,38.044
	c0,17.915-1.358,35.51-3.925,52.711c-17.554,15.554-36.094,30.716-41.571,47.586c-5.668,17.455,0.195,40.869,5.195,63.743
	c-16.212,30.952-36.836,59.211-61.088,83.928c-23.335,2.292-47.383,3.864-62.068,14.55c-14.534,10.578-23.347,32.936-32.708,54.43
	c-30.593,15.279-63.695,26.243-98.539,32.135c-20.2-11.84-40.78-24.642-59.444-24.642s-39.245,12.802-59.445,24.642
	c-29.459-4.982-57.652-13.626-84.157-25.4c6.382,10.652,11.715,23.497,17.207,36.109c30.594,15.28,63.696,26.244,98.542,32.136
	c20.2-11.839,40.781-24.641,59.444-24.641C1111.361,1428.551,1131.942,1441.353,1152.142,1453.192z"/>
<path style="fill:#FFFFFF;" d="M1061.105,1385.705c18.663,0,39.244,12.802,59.444,24.642c34.844-5.893,67.946-16.856,98.539-32.135
	c9.36-21.494,18.173-43.852,32.708-54.43c14.685-10.686,38.733-12.259,62.068-14.55c24.252-24.717,44.876-52.976,61.088-83.928
	c-5-22.874-10.863-46.288-5.195-63.743c5.477-16.87,24.017-32.032,41.571-47.586c2.567-17.2,3.925-34.796,3.925-52.711
	c0-12.858-0.726-25.544-2.071-38.044c-0.528-4.916-1.13-9.811-1.854-14.666c-3.734-3.309-7.507-6.601-11.196-9.894
	c-13.649-12.188-26.063-24.41-30.375-37.691c-5.668-17.455,0.196-40.868,5.196-63.742c-4.269-8.151-8.862-16.102-13.729-23.864
	c-13.614-21.713-29.493-41.857-47.357-60.065c-20.701-2.033-41.928-3.534-56.717-11.301c-1.881-0.988-3.693-2.044-5.351-3.25
	c-6.007-4.371-11.006-10.819-15.5-18.322c-6.382-10.653-11.716-23.498-17.208-36.11c-30.593-15.279-63.696-26.243-98.54-32.136
	c-20.2,11.839-40.781,24.642-59.445,24.642s-39.245-12.802-59.443-24.642c-34.845,5.893-67.947,16.855-98.54,32.135
	c-9.361,21.494-18.174,43.852-32.709,54.43c-14.685,10.688-38.733,12.26-62.068,14.55c-24.251,24.717-44.876,52.977-61.088,83.929
	c5,22.874,10.864,46.288,5.196,63.743c-5.478,16.87-24.017,32.031-41.572,47.585c-2.567,17.201-3.925,34.796-3.925,52.712
	c0,17.914,1.358,35.509,3.925,52.71c10.589,9.382,21.515,18.623,29.737,28.179c5.411,6.288,9.66,12.711,11.833,19.406
	c0.537,1.651,0.878,3.403,1.218,5.155c3.257,16.771-1.886,37.877-6.413,58.587c12.567,23.996,27.816,46.347,45.322,66.71
	c5.074,5.903,10.313,11.663,15.764,17.218c23.335,2.292,47.382,3.864,62.068,14.552c11.185,8.14,18.977,23.266,26.241,39.595
	c2.177,4.891,4.31,9.881,6.466,14.835c4.73,2.362,9.539,4.583,14.385,6.736c26.504,11.775,54.698,20.418,84.157,25.4
	C1021.86,1398.508,1042.442,1385.705,1061.105,1385.705z M901.893,1061.263c0-87.93,71.281-159.211,159.212-159.211
	c62.152,0,115.948,35.636,142.171,87.57c10.876,21.54,17.04,45.864,17.04,71.641c0,87.931-71.281,159.213-159.211,159.213
	c-42.971,0-81.937-17.054-110.58-44.725C920.558,1146.799,901.893,1106.222,901.893,1061.263z"/>
<path style="fill:#65ACD9;" d="M406.152,1062.478c-0.002-0.607-0.023-1.21-0.023-1.818c0-333.246,249.044-608.325,571.168-649.272
	c27.299-3.47,55.122-5.259,83.363-5.259c2.453,0,4.891,0.066,7.338,0.093V212.225c-2.448-0.02-4.884-0.093-7.338-0.093
	c-468.629,0-848.528,379.899-848.528,848.528c0,0.608,0.022,1.211,0.023,1.818H406.152z"/>
<path style="fill:#334C99;" d="M518.224,1157.469c0-361.488,293.043-654.531,654.531-654.531
	c136.791,0,263.765,41.989,368.784,113.745c-3.698-4.003-7.447-7.96-11.242-11.869c-0.101-0.104-0.204-0.208-0.304-0.311
	c-3.697-3.803-7.439-7.559-11.226-11.272c-0.186-0.183-0.373-0.365-0.559-0.547c-3.724-3.641-7.491-7.238-11.299-10.789
	c-0.229-0.214-0.458-0.426-0.686-0.639c-3.779-3.514-7.6-6.983-11.461-10.408c-0.26-0.231-0.521-0.463-0.782-0.693
	c-3.856-3.409-7.752-6.772-11.688-10.091c-0.261-0.221-0.522-0.443-0.784-0.664c-3.964-3.332-7.969-6.617-12.014-9.856
	c-0.234-0.187-0.465-0.376-0.699-0.563c-4.119-3.289-8.277-6.529-12.475-9.72c-0.156-0.118-0.31-0.239-0.466-0.358
	c-4.332-3.287-8.706-6.523-13.122-9.704c-0.019-0.014-0.037-0.027-0.055-0.041c-35.728-25.729-74.155-47.942-114.774-66.139
	c-0.641-0.287-1.289-0.559-1.929-0.844c-4.324-1.92-8.667-3.804-13.04-5.632c-1.103-0.461-2.217-0.902-3.323-1.358
	c-3.93-1.618-7.873-3.212-11.842-4.756c-1.412-0.549-2.833-1.076-4.25-1.615c-3.684-1.404-7.379-2.787-11.095-4.126
	c-1.637-0.59-3.284-1.158-4.927-1.735c-3.525-1.238-7.059-2.457-10.612-3.635c-1.802-0.598-3.613-1.178-5.423-1.761
	c-3.416-1.1-6.841-2.18-10.281-3.226c-1.943-0.591-3.893-1.165-5.845-1.738c-3.333-0.979-6.675-1.935-10.03-2.862
	c-2.056-0.568-4.116-1.124-6.179-1.672c-3.277-0.87-6.564-1.715-9.861-2.536c-2.155-0.537-4.313-1.065-6.477-1.581
	c-3.231-0.769-6.474-1.509-9.724-2.231c-2.234-0.496-4.47-0.988-6.712-1.461c-3.214-0.677-6.44-1.322-9.67-1.952
	c-2.293-0.448-4.586-0.896-6.888-1.32c-3.203-0.589-6.419-1.139-9.638-1.682c-2.346-0.395-4.689-0.796-7.043-1.167
	c-3.211-0.505-6.438-0.965-9.666-1.424c-2.376-0.337-4.748-0.686-7.131-0.998c-3.245-0.424-6.506-0.798-9.765-1.175
	c-2.381-0.275-4.757-0.567-7.145-0.817c-3.323-0.347-6.663-0.638-10-0.934c-2.34-0.209-4.673-0.44-7.02-0.624
	c-3.48-0.272-6.977-0.48-10.472-0.698c-2.223-0.138-4.436-0.306-6.664-0.422c-3.854-0.201-7.726-0.33-11.598-0.464
	c-1.884-0.065-3.758-0.165-5.646-0.215c-5.765-0.15-11.547-0.231-17.347-0.231c-28.241,0-56.064,1.789-83.363,5.259
	C655.174,452.335,406.13,727.414,406.13,1060.66c0,6.442,0.118,12.857,0.303,19.254c0.056,1.971,0.15,3.933,0.224,5.9
	c0.169,4.486,0.375,8.962,0.634,13.424c0.128,2.203,0.268,4.402,0.418,6.599c0.301,4.412,0.651,8.81,1.04,13.198
	c0.176,1.984,0.335,3.973,0.529,5.952c0.571,5.855,1.209,11.69,1.934,17.5c0.051,0.41,0.089,0.824,0.141,1.234
	c0.793,6.259,1.692,12.485,2.66,18.688c0.274,1.755,0.581,3.498,0.87,5.249c0.736,4.479,1.509,8.945,2.336,13.393
	c0.378,2.031,0.768,4.057,1.165,6.081c0.85,4.337,1.745,8.658,2.68,12.965c0.399,1.833,0.784,3.671,1.197,5.499
	c1.249,5.523,2.561,11.022,3.948,16.491c0.126,0.497,0.238,1,0.365,1.497c1.559,6.081,3.213,12.123,4.941,18.135
	c0.398,1.387,0.825,2.761,1.232,4.144c1.351,4.585,2.742,9.151,4.189,13.693c0.559,1.755,1.131,3.503,1.705,5.251
	c1.423,4.335,2.891,8.65,4.4,12.944c0.555,1.58,1.102,3.164,1.669,4.738c1.922,5.335,3.902,10.642,5.958,15.911
	c0.16,0.408,0.307,0.822,0.467,1.229c2.31,5.888,4.71,11.73,7.185,17.533c0.385,0.902,0.789,1.793,1.178,2.693
	c2.057,4.763,4.165,9.497,6.331,14.2c0.648,1.408,1.308,2.81,1.967,4.213c2.042,4.352,4.13,8.678,6.264,12.978
	c0.635,1.278,1.262,2.558,1.904,3.832c2.617,5.185,5.289,10.337,8.039,15.442c0.129,0.239,0.253,0.483,0.382,0.723
	c3.058,5.662,6.199,11.274,9.419,16.834c0.182,0.314,0.372,0.623,0.553,0.936c2.899,4.986,5.868,9.928,8.892,14.829
	c0.644,1.044,1.298,2.08,1.948,3.12c2.711,4.338,5.469,8.643,8.278,12.912c0.635,0.965,1.265,1.933,1.905,2.895
	c3.331,5.005,6.716,9.971,10.179,14.877c0.041,0.058,0.08,0.116,0.121,0.174c7.33,10.377,14.965,20.523,22.872,30.442
	c0.541,0.678,1.089,1.35,1.632,2.027c3.42,4.256,6.891,8.467,10.414,12.634c0.581,0.688,1.159,1.377,1.744,2.063
	c12.291,14.419,25.192,28.302,38.672,41.601c0.407,0.401,0.818,0.796,1.225,1.195c4.099,4.023,8.252,7.991,12.455,11.906
	c0.525,0.489,1.049,0.98,1.576,1.467c14.011,12.963,28.583,25.327,43.688,37.038c0.278,0.215,0.558,0.427,0.837,0.642
	c4.701,3.633,9.456,7.2,14.257,10.706c0.521,0.381,1.043,0.762,1.565,1.141c5.034,3.654,10.114,7.248,15.254,10.76
	C584.102,1484.772,518.224,1328.824,518.224,1157.469z"/>
<path style="fill:#334C99;" d="M870.412,1323.78c-14.686-10.688-38.733-12.26-62.068-14.552
	c-5.451-5.555-10.69-11.315-15.764-17.218c13.614,21.713,29.492,41.855,47.356,60.063c20.701,2.033,41.929,3.534,56.717,11.302
	C889.388,1347.046,881.596,1331.92,870.412,1323.78z"/>
<path style="fill:#334C99;" d="M933.486,1104.108c0-87.93,71.282-159.212,159.211-159.212c42.971,0,81.937,17.054,110.58,44.725
	c-26.223-51.934-80.019-87.57-142.171-87.57c-87.931,0-159.212,71.282-159.212,159.211c0,44.96,18.664,85.536,48.632,114.488
	C939.649,1154.211,933.486,1129.886,933.486,1104.108z"/>
<path style="fill:#334C99;" d="M1369.757,960.969c4.312,13.281,16.726,25.503,30.375,37.691
	c-3.257-16.772,1.886-37.877,6.413-58.587c-12.568-23.996-27.816-46.347-45.321-66.71c4.867,7.762,9.46,15.713,13.729,23.864
	C1369.953,920.101,1364.089,943.513,1369.757,960.969z"/>
<path style="fill:#334C99;" d="M740.619,1142.152c0.528,4.917,1.13,9.811,1.855,14.667c3.735,3.309,7.508,6.601,11.196,9.894
	c-0.34-1.752-0.681-3.504-1.218-5.155C750.279,1154.864,746.03,1148.44,740.619,1142.152z"/>
<path style="fill:#334C99;" d="M1251.799,798.747c1.658,1.206,3.469,2.262,5.351,3.25c-2.175-4.891-4.309-9.881-6.466-14.836
	c-4.73-2.362-9.538-4.583-14.385-6.736C1240.792,787.928,1245.792,794.375,1251.799,798.747z"/>
</svg>
