<?xml version="1.0" encoding="utf-8"?>
<!-- Generator: Adobe Illustrator 27.5.0, SVG Export Plug-In . SVG Version: 6.00 Build 0)  -->
<svg version="1.1" id="Capa_1" xmlns="http://www.w3.org/2000/svg" xmlns:xlink="http://www.w3.org/1999/xlink" x="0px" y="0px"
	 viewBox="0 0 1971 2284" style="enable-background:new 0 0 1971 2284;" xml:space="preserve">
<path style="fill:#CDE8F5;" d="M1693.055,99.97h-3.032l-0.025-0.001h-19.727v0.001H277.505c-23.663,0-42.844,19.182-42.844,42.844
	v81.654c0,23.662,19.182,42.844,42.844,42.844h6.707v17.711c0,20.067,4.434,39.147,12.368,56.313l-0.001-0.001l0.038,0.082
	l0.466,0.997l0.014,0.029c0.496,1.048,1.005,2.088,1.526,3.12l0.091,0.179c0.701,1.383,1.425,2.752,2.171,4.107l0.033,0.06
	c0.55,0.999,1.114,1.989,1.688,2.972l0.095,0.161c0.775,1.32,1.571,2.624,2.388,3.915l0.111,0.176
	c0.824,1.297,1.669,2.579,2.536,3.845l0.077,0.113c0.64,0.933,1.29,1.857,1.952,2.773l0.079,0.111l0.662,0.906l0.036,0.05
	c0.68,0.921,1.37,1.834,2.073,2.737l0.098,0.126c0.944,1.211,1.907,2.407,2.89,3.585l0.099,0.119
	c0.728,0.87,1.466,1.731,2.216,2.583l0.062,0.071l0.734,0.826l0.106,0.118c0.737,0.821,1.483,1.632,2.238,2.434l0.167,0.177
	l0.744,0.781l0.032,0.033c0.775,0.807,1.56,1.603,2.355,2.391l0.252,0.249c0.752,0.741,1.512,1.473,2.28,2.197l0.198,0.187
	l0.732,0.681l0.234,0.215c0.762,0.701,1.532,1.392,2.309,2.075l0.286,0.252l0.736,0.639l0.214,0.183
	c0.502,0.431,1.008,0.858,1.516,1.281l0.165,0.138l0.713,0.586l0.342,0.28l0.715,0.578l0.287,0.229l1.314,1.035l0.402,0.313
	l0.683,0.523l0.404,0.307l0.7,0.527l0.23,0.17c0.487,0.362,0.975,0.72,1.467,1.075l0.336,0.242l0.737,0.525l0.413,0.29
	c0.548,0.386,1.099,0.768,1.653,1.145l0.014,0.009l0.762,0.513l0.409,0.274l0.715,0.473l0.497,0.324l1.172,0.753l0.509,0.323
	l0.707,0.441l0.478,0.295l0.715,0.438l0.469,0.281l1.201,0.714l0.611,0.357l0.604,0.348l0.686,0.39l0.568,0.321l1.115,0.617
	l0.604,0.327l0.658,0.354l0.616,0.326l0.78,0.407l0.685,0.353l0.978,0.495l0.564,0.28l0.747,0.367l0.568,0.276l0.919,0.438
	l0.813,0.381l0.756,0.348l0.629,0.285l0.743,0.332l0.559,0.248l1.218,0.526l0.538,0.227l0.827,0.345l0.567,0.233l0.861,0.348
	l0.497,0.199l1.28,0.497l0.475,0.181l0.904,0.339l0.538,0.199l1.217,0.439l0.312,0.111l1.161,0.403l0.524,0.177l0.947,0.316
	l0.456,0.15l1.347,0.431l0.394,0.121l1.061,0.324l0.458,0.137l1.028,0.301l0.454,0.131l1.355,0.378l0.429,0.116l1.056,0.28
	l0.446,0.117l1.315,0.331l0.14,0.036l1.409,0.337l0.507,0.117l1.053,0.237l0.403,0.089c0.49,0.107,0.982,0.212,1.473,0.313
	l0.207,0.042l1.248,0.249l0.486,0.093l1.146,0.214l0.352,0.064c0.49,0.087,0.98,0.172,1.471,0.255l0.354,0.058l1.153,0.185
	l0.485,0.075l1.214,0.179l0.29,0.042c0.491,0.069,0.984,0.135,1.477,0.199l0.428,0.054l1.17,0.142l0.388,0.046
	c0.512,0.058,1.023,0.114,1.536,0.167l0.1,0.01l1.414,0.135l0.459,0.041l1.183,0.098l0.379,0.03c0.51,0.039,1.021,0.075,1.534,0.108
	l0.281,0.017l1.27,0.073l0.453,0.023l1.318,0.059l0.242,0.01c0.513,0.019,1.027,0.035,1.541,0.049l0.412,0.009l1.203,0.023
	l0.427,0.006l0.865,0.007c31.503,281.292,235.566,533.963,421.984,643.82c33.857,19.954,33.857,69.519,0,89.47
	c-200.95,118.421-422.404,402.789-426.116,710.072l-0.317,0.011l-0.242,0.01l-1.318,0.058l-0.453,0.023l-1.27,0.073l-0.281,0.018
	c-0.512,0.033-1.024,0.069-1.534,0.107l-0.379,0.03l-1.183,0.098l-0.459,0.041l-1.414,0.136l-0.1,0.01
	c-0.512,0.053-1.024,0.109-1.536,0.167l-0.388,0.046l-1.17,0.142l-0.428,0.054c-0.493,0.064-0.986,0.13-1.477,0.199l-0.29,0.042
	l-1.214,0.179l-0.485,0.075l-1.153,0.185l-0.354,0.058c-0.491,0.083-0.981,0.167-1.471,0.255l-0.352,0.065l-1.146,0.214
	l-0.486,0.094l-1.248,0.249l-0.207,0.042c-0.491,0.102-0.983,0.207-1.473,0.314l-0.403,0.089l-1.053,0.237l-0.507,0.117
	l-1.409,0.337l-0.14,0.035l-1.315,0.332l-0.446,0.116l-1.056,0.28l-0.429,0.115l-1.355,0.378l-0.454,0.131l-1.028,0.301
	l-0.458,0.137l-1.061,0.324l-0.394,0.122l-1.347,0.431l-0.456,0.15l-0.947,0.316l-0.524,0.178l-1.161,0.403l-0.312,0.11
	l-1.217,0.439l-0.538,0.199l-0.904,0.339l-0.475,0.18l-1.28,0.497l-0.497,0.2l-0.871,0.351l-0.522,0.214l-0.903,0.377l-0.495,0.208
	l-1.221,0.527l-0.512,0.227l-0.823,0.368l-0.586,0.266l-0.835,0.385l-0.56,0.261l-1.101,0.525l-0.568,0.276l-0.747,0.367
	l-0.564,0.28l-0.978,0.495l-0.685,0.353l-0.787,0.41l-0.574,0.305l-0.768,0.412l-0.5,0.271l-1.145,0.633l-0.568,0.32l-0.686,0.391
	l-0.604,0.348l-0.65,0.379l-0.973,0.577l-0.659,0.395l-0.715,0.438l-0.478,0.295l-0.707,0.441l-0.509,0.323l-1.172,0.753l-0.5,0.325
	l-0.675,0.446l-0.489,0.327l-0.719,0.485l-0.014,0.009c-0.554,0.377-1.105,0.759-1.653,1.144l-0.413,0.291l-0.737,0.525
	l-0.336,0.243c-0.492,0.355-0.98,0.713-1.467,1.074l-0.23,0.17l-0.7,0.527l-0.404,0.307l-0.683,0.523l-0.439,0.341l-1.13,0.89
	l-0.46,0.367l-0.644,0.52l-0.425,0.346l-0.675,0.556l-0.165,0.138c-0.488,0.407-0.974,0.817-1.457,1.231l-0.302,0.259l-0.673,0.584
	l-0.367,0.323c-0.762,0.669-1.515,1.347-2.262,2.034l-0.234,0.215l-0.732,0.681l-0.198,0.186c-0.768,0.723-1.528,1.456-2.28,2.197
	l-0.257,0.255l-0.713,0.71l-0.035,0.035c-0.539,0.542-1.072,1.089-1.602,1.64l-0.032,0.033l-0.744,0.781l-0.167,0.177
	c-0.754,0.801-1.499,1.611-2.233,2.429l-0.111,0.123l-0.734,0.826l-0.065,0.075c-0.747,0.851-1.486,1.71-2.212,2.58l-0.101,0.12
	c-0.744,0.892-1.478,1.794-2.2,2.706l-0.003,0.003l-0.66,0.84l-0.155,0.198c-0.676,0.871-1.342,1.75-1.997,2.638l-0.101,0.136
	l-0.643,0.881l-0.084,0.115c-0.65,0.901-1.292,1.812-1.921,2.729l-0.124,0.181c-0.852,1.247-1.684,2.509-2.496,3.785l-0.152,0.24
	c-0.805,1.273-1.59,2.56-2.353,3.86l-0.133,0.227c-0.566,0.968-1.12,1.944-1.663,2.928l-0.034,0.062l-0.553,1.012l-0.029,0.053
	c-0.538,0.995-1.062,1.998-1.574,3.008l-0.12,0.238c-0.506,1.003-1,2.013-1.482,3.03l-0.053,0.111l-0.446,0.953l-0.05,0.107h0.001
	c-7.934,17.166-12.368,36.246-12.368,56.313v17.711h-6.707c-23.663,0-42.844,19.182-42.844,42.845v81.653
	c0,23.663,19.182,42.844,42.844,42.844h1415.551c23.662,0,42.844-19.181,42.844-42.844v-81.653
	c0-23.663-19.183-42.845-42.844-42.845h-9.538v-17.711c0-72.713-58.198-132.492-130.314-135.061
	c-0.23-19.02-1.278-37.952-3.091-56.763c-0.165-1.71-0.336-3.419-0.514-5.127c-0.709-6.832-1.519-13.648-2.427-20.445
	c-0.681-5.098-1.417-10.186-2.207-15.263c-0.526-3.385-1.076-6.765-1.651-10.139c-3.159-18.561-7.033-36.97-11.568-55.192
	c-0.727-2.922-1.472-5.839-2.233-8.751c-0.458-1.755-0.923-3.507-1.393-5.258c-0.447-1.666-0.901-3.33-1.359-4.992
	c-0.175-0.633-0.35-1.266-0.526-1.898c-0.456-1.639-0.918-3.276-1.386-4.912c-0.512-1.797-1.032-3.593-1.558-5.387
	c-0.469-1.598-0.942-3.195-1.421-4.791c-0.205-0.684-0.411-1.367-0.617-2.05c-0.476-1.572-0.958-3.142-1.443-4.711
	c-0.192-0.619-0.384-1.237-0.576-1.856c-17.867-57.226-42.036-112.259-70.731-163.989l-0.532-0.957
	c-4.248-7.636-8.594-15.199-13.032-22.686c-0.977-1.649-1.959-3.294-2.946-4.937c-0.784-1.305-1.572-2.608-2.361-3.909
	c-0.431-0.711-0.864-1.422-1.298-2.131c-1.447-2.369-2.904-4.731-4.369-7.084c-0.861-1.382-1.724-2.761-2.591-4.136
	c-2.089-3.318-4.197-6.62-6.321-9.904c-1.109-1.714-2.221-3.423-3.339-5.129c-1.383-2.11-2.774-4.213-4.172-6.309
	c-1.94-2.909-3.892-5.804-5.858-8.685c-0.597-0.875-1.195-1.748-1.794-2.62c-3.234-4.707-6.503-9.377-9.804-14.008
	c-2.613-3.665-5.247-7.307-7.901-10.924c-1.548-2.111-3.104-4.213-4.665-6.307c-1.133-1.518-2.269-3.032-3.408-4.542
	c-1.623-2.15-3.254-4.292-4.891-6.424c-0.415-0.538-0.828-1.077-1.242-1.614c-1.117-1.449-2.238-2.894-3.362-4.334
	c-2.246-2.881-4.505-5.744-6.776-8.589c-1.135-1.423-2.273-2.841-3.414-4.255l-1.005-1.243c-3.231-3.99-6.484-7.945-9.759-11.863
	l-0.615-0.736c-2.906-3.469-5.829-6.911-8.767-10.323c-1.96-2.275-3.926-4.536-5.899-6.785c-0.986-1.124-1.974-2.244-2.964-3.363
	c-1.979-2.235-3.966-4.457-5.959-6.666l-0.476-0.526c-3.561-3.94-7.141-7.838-10.741-11.691l-0.314-0.336
	c-0.913-0.978-1.829-1.952-2.745-2.923c-2.748-2.915-5.507-5.805-8.277-8.669c-0.8-0.827-1.601-1.652-2.402-2.475
	c-14.022-14.394-28.292-28.12-42.723-41.125c-2.624-2.365-5.253-4.705-7.887-7.022c-2.634-2.317-5.273-4.609-7.916-6.877
	c-10.572-9.072-21.213-17.751-31.889-26.017c-1.335-1.033-2.67-2.06-4.005-3.08c-9.348-7.142-18.72-13.967-28.093-20.458
	c-1.339-0.927-2.678-1.848-4.017-2.762c-1.587-1.083-3.174-2.157-4.762-3.221c-1.984-1.33-3.967-2.646-5.951-3.945
	s-3.966-2.585-5.948-3.854c-2.379-1.523-4.757-3.024-7.133-4.503c-1.584-0.985-3.168-1.961-4.75-2.928
	c-3.166-1.931-6.328-3.823-9.487-5.675c-0.53-0.311-1.052-0.629-1.566-0.954c-0.514-0.325-1.02-0.657-1.517-0.996l-0.74-0.514
	l-1.136-0.829l-0.849-0.648l-0.297-0.233l-1.23-1.005l-1.245-1.088c-0.672-0.605-1.324-1.224-1.956-1.858l-0.619-0.632l-1.128-1.21
	l-0.67-0.76c-0.484-0.559-0.954-1.127-1.41-1.702l-0.285-0.365c-0.4-0.515-0.789-1.036-1.167-1.563l-0.401-0.568
	c-1.368-1.965-2.585-4.009-3.651-6.117l-0.418-0.848c-0.82-1.702-1.543-3.443-2.169-5.213l-0.304-0.887
	c-5.236-15.72-2.864-33.615,7.116-47.365c0.565-0.778,1.154-1.543,1.768-2.294l0.921-1.094l0.152-0.176
	c0.527-0.603,1.072-1.196,1.631-1.778l0.633-0.648c3.046-3.053,6.558-5.793,10.536-8.125
	c177.828-104.212,367.587-336.936,413.091-600.697c0.54-3.125,1.059-6.256,1.557-9.39c0.266-1.671,0.525-3.343,0.78-5.016
	c0.265-1.746,0.523-3.493,0.776-5.241c0.574-3.98,1.116-7.967,1.623-11.96c0.264-2.074,0.518-4.15,0.763-6.227l0.098-0.834
	c0.174-1.485,0.341-2.972,0.505-4.459c73.985-0.415,134.387-61.067,134.387-135.144v-17.711h9.538
	c23.662,0,42.844-19.183,42.844-42.844v-81.654C1735.9,119.152,1716.717,99.97,1693.055,99.97z"/>
<path style="fill:#BB8F78;" d="M1693.055,99.97h-3.032l-0.025-0.001h-19.727v0.001H277.505c-23.663,0-42.844,19.182-42.844,42.844
	v78.597c0,25.35,20.55,45.901,45.9,45.901h3.652v17.711c0,20.067,4.434,39.147,12.368,56.313l-0.001-0.001l0.038,0.082l0.466,0.997
	l0.014,0.029c0.496,1.048,1.005,2.088,1.526,3.12l0.091,0.179c0.701,1.383,1.425,2.752,2.171,4.107l0.033,0.06
	c0.55,0.999,1.114,1.989,1.688,2.972l0.095,0.161c0.775,1.32,1.571,2.624,2.388,3.915l0.111,0.176
	c0.824,1.297,1.669,2.579,2.536,3.845l0.077,0.113c0.64,0.933,1.29,1.857,1.952,2.773l0.079,0.111l0.662,0.906l0.036,0.05
	c0.68,0.922,1.371,1.834,2.073,2.737l0.098,0.126c0.944,1.211,1.907,2.407,2.89,3.585l0.099,0.119
	c0.728,0.87,1.466,1.731,2.216,2.583l0.062,0.071l0.734,0.826l0.106,0.118c0.737,0.821,1.483,1.632,2.238,2.434l0.167,0.177
	l0.744,0.781l0.032,0.033c0.775,0.807,1.56,1.603,2.355,2.391l0.252,0.249c0.752,0.741,1.512,1.473,2.28,2.197l0.198,0.187
	l0.732,0.681l0.234,0.215c0.762,0.701,1.532,1.392,2.309,2.075l0.286,0.252l0.736,0.639l0.214,0.183
	c0.502,0.431,1.008,0.858,1.516,1.281l0.165,0.138l0.713,0.586l0.342,0.28l0.715,0.578l0.287,0.229l1.314,1.035l0.402,0.313
	l0.683,0.523l0.404,0.307l0.7,0.527l0.23,0.17c0.487,0.362,0.975,0.72,1.467,1.075l0.336,0.242l0.737,0.525l0.413,0.29
	c0.548,0.386,1.099,0.768,1.653,1.145l0.014,0.009l0.762,0.513l0.409,0.274l0.715,0.473l0.497,0.324l1.172,0.753l0.509,0.323
	l0.707,0.441l0.478,0.295l0.715,0.438l0.469,0.281l1.201,0.714l0.611,0.357l0.604,0.348l0.686,0.39l0.568,0.321l1.115,0.617
	l0.604,0.327l0.658,0.354l0.616,0.326l0.78,0.407l0.685,0.353l0.978,0.495l0.564,0.28l0.747,0.367l0.568,0.276l0.919,0.438
	l0.813,0.381l0.756,0.348l0.629,0.285l0.743,0.332l0.559,0.248l1.218,0.526l0.538,0.227l0.827,0.345l0.567,0.233l0.861,0.348
	l0.497,0.199l1.28,0.497l0.475,0.181l0.904,0.339l0.538,0.199l1.217,0.439l0.312,0.111l1.161,0.403l0.524,0.177l0.947,0.316
	l0.456,0.15l1.347,0.431l0.394,0.121l1.061,0.324l0.458,0.137l1.028,0.301l0.454,0.131l1.355,0.378l0.429,0.116l1.056,0.28
	l0.446,0.117l1.315,0.331l0.14,0.036l1.409,0.337l0.507,0.117l1.053,0.237l0.403,0.089c0.49,0.107,0.982,0.212,1.473,0.313
	l0.207,0.042l1.248,0.249l0.486,0.093l1.146,0.214l0.352,0.064c0.49,0.087,0.98,0.172,1.471,0.255l0.354,0.058l1.153,0.185
	l0.485,0.075l1.214,0.179l0.29,0.042c0.491,0.069,0.984,0.135,1.477,0.199l0.428,0.054l1.17,0.142l0.388,0.046
	c0.512,0.058,1.023,0.114,1.536,0.167l0.1,0.01l1.414,0.135l0.459,0.041l1.183,0.098l0.379,0.03c0.51,0.039,1.021,0.075,1.534,0.108
	l0.281,0.017l1.27,0.073l0.453,0.023l1.318,0.059l0.242,0.01c0.513,0.019,1.027,0.035,1.541,0.049l0.412,0.009l1.203,0.023
	l0.427,0.006l0.865,0.007l0.701,0.003h1129.008l0.762-0.005h0.001c73.985-0.415,134.387-61.067,134.387-135.144v-17.711h9.538
	c23.662,0,42.844-19.183,42.844-42.844v-81.654C1735.9,119.152,1716.717,99.97,1693.055,99.97z"/>
<path style="fill:#BB8F78;" d="M1689.998,2016.302h-6.481v-17.711c0-72.713-58.198-132.492-130.314-135.061h0
	c-1.605-0.057-3.216-0.088-4.834-0.088H419.361c-0.523,0-1.045,0.004-1.567,0.01l-0.427,0.006l-1.203,0.023l-0.412,0.01
	l-1.225,0.038l-0.317,0.011l-0.242,0.01l-1.318,0.058l-0.453,0.023l-1.27,0.073l-0.281,0.018c-0.512,0.033-1.024,0.069-1.534,0.107
	l-0.379,0.03l-1.183,0.098l-0.459,0.041l-1.414,0.136l-0.1,0.01c-0.512,0.053-1.024,0.109-1.536,0.167l-0.388,0.046l-1.17,0.142
	l-0.428,0.054c-0.493,0.064-0.986,0.13-1.477,0.199l-0.29,0.042l-1.214,0.179l-0.485,0.075l-1.153,0.185l-0.354,0.058
	c-0.491,0.083-0.981,0.167-1.471,0.255l-0.352,0.065l-1.146,0.214l-0.486,0.094l-1.248,0.249l-0.207,0.042
	c-0.491,0.102-0.983,0.207-1.473,0.314l-0.403,0.089l-1.053,0.237l-0.507,0.117l-1.409,0.337l-0.14,0.035l-1.315,0.332l-0.446,0.116
	l-1.056,0.28l-0.429,0.115l-1.355,0.378l-0.454,0.131l-1.028,0.301l-0.458,0.137l-1.061,0.324l-0.394,0.122l-1.347,0.431
	l-0.456,0.15l-0.947,0.316l-0.524,0.178l-1.161,0.403l-0.312,0.11l-1.217,0.439l-0.538,0.199l-0.904,0.339l-0.475,0.18l-1.28,0.497
	l-0.497,0.2l-0.871,0.351l-0.522,0.214l-0.903,0.377l-0.495,0.208l-1.221,0.527l-0.512,0.227l-0.823,0.368l-0.586,0.266
	l-0.835,0.385l-0.56,0.261l-1.101,0.525l-0.568,0.276l-0.747,0.367l-0.564,0.28l-0.978,0.495l-0.685,0.353l-0.787,0.41l-0.574,0.305
	l-0.768,0.412l-0.5,0.271l-1.145,0.633l-0.568,0.32l-0.686,0.391l-0.604,0.348l-0.65,0.379l-0.973,0.577l-0.659,0.395l-0.715,0.438
	l-0.478,0.295l-0.707,0.441l-0.509,0.323l-1.172,0.753l-0.5,0.325l-0.675,0.446l-0.489,0.327l-0.719,0.485l-0.014,0.009
	c-0.554,0.377-1.105,0.759-1.653,1.144l-0.413,0.291l-0.737,0.525l-0.336,0.243c-0.492,0.355-0.98,0.713-1.467,1.074l-0.23,0.17
	l-0.7,0.527l-0.404,0.307l-0.683,0.523l-0.439,0.341l-1.13,0.89l-0.46,0.367l-0.644,0.52l-0.425,0.346l-0.675,0.556l-0.165,0.138
	c-0.488,0.407-0.974,0.817-1.457,1.231l-0.302,0.259l-0.673,0.584l-0.367,0.323c-0.762,0.669-1.515,1.347-2.262,2.034l-0.234,0.215
	l-0.732,0.681l-0.198,0.186c-0.768,0.723-1.528,1.456-2.28,2.197l-0.257,0.255l-0.713,0.71l-0.035,0.035
	c-0.539,0.542-1.072,1.089-1.602,1.64l-0.032,0.033l-0.744,0.781l-0.167,0.177c-0.754,0.801-1.499,1.611-2.233,2.429l-0.111,0.123
	l-0.734,0.826l-0.065,0.075c-0.747,0.851-1.486,1.71-2.212,2.58l-0.101,0.12c-0.744,0.892-1.478,1.794-2.2,2.706l-0.003,0.003
	l-0.66,0.84l-0.155,0.198c-0.676,0.871-1.342,1.75-1.997,2.638l-0.101,0.136l-0.643,0.881l-0.084,0.115
	c-0.65,0.901-1.292,1.812-1.921,2.729l-0.124,0.181c-0.852,1.247-1.684,2.509-2.496,3.785l-0.152,0.24
	c-0.805,1.273-1.59,2.56-2.353,3.86l-0.133,0.227c-0.566,0.968-1.12,1.944-1.663,2.928l-0.034,0.062l-0.553,1.012l-0.029,0.053
	c-0.537,0.995-1.061,1.998-1.574,3.008l-0.12,0.238c-0.506,1.003-1,2.013-1.482,3.03l-0.053,0.111l-0.446,0.953l-0.05,0.107h0.001
	c-7.934,17.166-12.368,36.246-12.368,56.313v17.711h-3.652c-25.35,0-45.9,20.551-45.9,45.901v78.596
	c0,23.663,19.182,42.844,42.844,42.844h1412.494c25.351,0,45.901-20.55,45.901-45.9v-75.54
	C1735.9,2036.853,1715.349,2016.302,1689.998,2016.302z"/>
<path style="fill:#EDD5A1;" d="M1229.79,1549.906c-18.497-5.549-36.249-11.397-53.474-17.517c-2.084-0.74-4.158-1.484-6.226-2.233
	c-3.121-1.128-6.225-2.266-9.314-3.413c-53.688-19.933-102.723-42.542-153.959-67.07c-3.525-1.687-7.06-3.383-10.607-5.088
	c-3.547-1.705-7.108-3.42-10.682-5.142c-5.363-2.583-10.759-5.187-16.197-7.808c-16.312-7.864-32.994-15.895-50.249-24.068
	c-25.669-10.999-55.986-7.869-81.664,1.412c-8.086,2.922-15.776,6.605-23.225,10.74l0.004-0.005
	c-13.224,7.34-25.683,16.111-38.218,24.601c-54.513,36.919-107.282,75.857-149.787,126.713
	c-43.372,50.894-77.73,110.139-97.641,174.114c-6.205,19.936-12.182,41.888-14.849,63.861l0,0
	c-1.822,15.018-2.098,30.043,0.157,44.441h906.25C1434.374,1728.206,1343.932,1587.954,1229.79,1549.906z"/>
<path style="fill:#DDB34A;" d="M1229.79,1549.906c-18.497-5.549-36.249-11.397-53.474-17.517c-2.084-0.74-4.158-1.484-6.226-2.233
	c-3.121-1.128-6.225-2.266-9.314-3.413c-53.688-19.933-102.723-42.542-153.959-67.07c-3.525-1.687-7.06-3.383-10.607-5.088
	c-3.547-1.705-7.108-3.42-10.682-5.142c-5.363-2.583-10.759-5.187-16.197-7.808c-16.312-7.864-32.994-15.895-50.249-24.068
	c-25.669-10.999-55.986-7.869-81.664,1.412c-8.086,2.922-15.776,6.605-23.225,10.74c-78.215,101.97-139.408,223.08-163.363,353.177
	c-5.094,27.664-29.13,47.49-56.837,47.49c-1.444,0-2.903-0.054-4.365-0.163l-51.693-3.876c-8.858-0.664-17.054-3.27-24.234-7.345
	c-1.822,15.018-2.098,30.043,0.157,44.441h906.25C1434.374,1728.206,1343.932,1587.954,1229.79,1549.906z"/>
<path style="fill:#EDD5A1;" d="M1267.091,864.358c27.329-30.385,52.356-63.801,73.674-99.426c-3.072-2.317-6.196-4.557-9.372-6.723
	c-99.557-67.904-248.919-61.978-363.384-11.423c-8.61,3.803-21.525,0-30.135,0l-0.002,0
	c-50.493-23.272-109.934-28.728-166.344-17.898l-0.001-0.002c-45.745,8.781-89.489,28.271-124.859,57.66
	c43.42,65.36,112.962,133.432,179.153,183.293h0.001c28.831,21.718,57.025,39.982,82.146,53.058
	c14.541,7.569,11.93,40.594,11.034,53.428c-1.395,19.975,12.041,37.562,33.264,40.756c9.534,1.433,21.218,0.476,26.618,8.464
	c3.726,5.505,2.49,12.889,4.267,19.293c1.475,5.314,5.287,9.812,10.088,12.501c3.2,1.791,6.836,2.775,10.51,2.661
	c3.815-0.121,7.645-1.291,11.397-0.595c4.387,0.812,8.99,4.066,12.853,1.835c1.615-0.933,2.601-2.637,3.513-4.264
	c0.525-0.934,1.048-1.869,1.573-2.803c2.136-3.808,4.272-7.617,6.407-11.425c3.515-6.271,7.059-12.605,9.118-19.492
	c1.736-5.812,2.374-11.884,3.005-17.916c1.75-16.748,2.618-33.424,4.085-50.16c0.157-1.791,0.307-3.916,0.515-6.212
	c0.867-9.517,2.771-21.998,10.637-26.071c37.768-19.549,88.121-55.472,133.14-94.049
	C1225.039,907.385,1248.435,885.101,1267.091,864.358L1267.091,864.358z"/>
<path style="fill:#DDB34A;" d="M1267.091,864.358c27.329-30.385,52.356-63.801,73.674-99.426c-3.072-2.317-6.196-4.557-9.372-6.723
	c-99.557-67.904-248.919-61.978-363.384-11.423c-8.61,3.803-21.525,0-30.135,0l-0.002,0
	c-50.493-23.272-109.934-28.728-166.344-17.898c29.406,47.396,62.473,91.6,97.633,131.671c36.151,41.197,9.611,104.89-43.339,109.28
	c28.831,21.718,57.025,39.982,82.146,53.058c14.541,7.569,11.93,40.594,11.034,53.428c-1.395,19.975,12.041,37.562,33.264,40.756
	c9.534,1.433,21.218,0.476,26.618,8.464c3.726,5.505,2.49,12.889,4.267,19.293c1.475,5.314,5.287,9.812,10.088,12.501
	c3.2,1.791,6.836,2.775,10.51,2.661c3.815-0.121,7.645-1.291,11.397-0.595c4.387,0.812,8.99,4.066,12.853,1.835
	c1.615-0.933,2.601-2.637,3.513-4.264c0.525-0.934,1.048-1.869,1.573-2.803c2.136-3.808,4.272-7.617,6.407-11.425
	c3.515-6.271,7.059-12.605,9.118-19.492c1.736-5.812,2.374-11.884,3.005-17.916c1.75-16.748,2.618-33.424,4.085-50.16
	c0.157-1.791,0.307-3.916,0.515-6.212c0.867-9.517,2.771-21.998,10.637-26.071c37.768-19.549,88.121-55.472,133.14-94.049
	C1225.039,907.385,1248.435,885.101,1267.091,864.358L1267.091,864.358z"/>
<path style="fill:#E0F2FA;" d="M416.163,1863.482l1.203-0.023l0.427-0.006c0.522-0.006,1.044-0.01,1.567-0.01h94.498
	c-2.255-14.398-1.979-29.424-0.157-44.441l0,0c-21.394-12.143-33.781-37.338-27.899-63.145
	c45.062-197.706,174.485-372.432,315.004-487.43c10.41-8.518,23.401-13.136,36.762-13.136c1.439,0,2.885,0.054,4.329,0.162
	c48.407,3.628,71.257,61.809,37.959,97.133c-22.841,24.23-44.849,49.998-65.66,77.127l-0.004,0.005
	c7.448-4.135,15.139-7.818,23.225-10.74c25.678-9.281,55.995-12.411,81.664-1.412c30.676,14.531,59.54,28.609,87.736,42.107
	c51.236,24.528,100.27,47.137,153.959,67.07c3.089,1.147,6.193,2.285,9.314,3.413c2.068,0.748,4.142,1.493,6.226,2.233
	c17.225,6.119,34.976,11.967,53.473,17.516c114.144,38.048,204.585,178.3,190.32,313.538h35.027
	c-3.739-306.636-220.338-590.436-422.05-709.271c-0.525,0.934-1.048,1.869-1.573,2.803c-0.911,1.627-1.898,3.332-3.513,4.264
	c-3.863,2.231-8.466-1.023-12.853-1.835c-3.752-0.696-7.582,0.474-11.397,0.595c-3.674,0.114-7.31-0.87-10.51-2.661
	c-4.801-2.689-8.614-7.187-10.088-12.501c-1.777-6.404-0.541-13.789-4.267-19.293c-5.4-7.987-17.084-7.03-26.618-8.464
	c-21.223-3.193-34.659-20.78-33.264-40.756c0.896-12.834,3.507-45.859-11.034-53.428c-25.12-13.077-53.315-31.34-82.146-53.058
	h-0.001c-1.912,0.158-3.854,0.24-5.833,0.24c-16.321,0-32.068-6.015-44.167-16.966C662.843,850.876,558.967,704.763,507.524,540.758
	c-11.69-37.272,16.18-75.194,55.242-75.194h53.723c25.794,0,48.451,17.082,55.55,41.88c22.502,78.557,57.213,153.299,99.49,221.442
	l0.001,0.002c56.41-10.829,115.85-5.373,166.344,17.898l0.002,0c8.609,0,21.525,3.803,30.135,0
	c114.465-50.555,263.827-56.481,363.384,11.423c61.586-101.322,106.331-217.031,119.671-338.038H419.361l-0.701-0.003
	c31.503,281.292,235.566,533.963,421.984,643.82c33.857,19.954,33.857,69.519,0,89.47
	c-200.95,118.421-422.404,402.789-426.116,710.072l1.225-0.038L416.163,1863.482z"/>
<path style="fill:#C39E32;" d="M1229.79,1549.906c-18.497-5.549-36.249-11.397-53.474-17.517c-2.084-0.74-4.158-1.484-6.226-2.233
	c-3.121-1.128-6.225-2.266-9.314-3.413c-53.688-19.933-102.723-42.542-153.959-67.07c-28.196-13.498-57.06-27.575-87.736-42.105
	c-23.983-10.279-54.059-8.255-80.566,1.09c-0.136,28.826-5.602,73.78,5.766,79.464c37.999,17.537,68.573,32.106,93.986,53.511
	l1.047-0.418c0.806,0.986,1.518,2.045,2.134,3.159c23.143,20.378,41.94,46.977,58.186,87.594
	c23.015,69.046,132.338,11.508,195.63,23.016c63.293,11.508,69.047,120.831,57.539,189.877c-0.508,2.877-1.072,5.737-1.688,8.583
	h168.991C1434.374,1728.206,1343.932,1587.954,1229.79,1549.906z"/>
<path style="fill:#C39E32;" d="M968.009,746.786c-8.61,3.803-21.525,0-30.135,0c73.547,30.318,145.707,72.935,222.032,97.699
	c0.867,0.281,1.735,0.561,2.603,0.837c3.474,1.107,6.956,2.177,10.448,3.206c2.619,0.771,5.243,1.521,7.872,2.245
	c3.507,0.967,7.022,1.891,10.548,2.77c1.762,0.439,3.527,0.867,5.296,1.284c1.767,0.416,3.538,0.821,5.312,1.214
	c1.773,0.393,3.55,0.773,5.327,1.141c4.595,0.951,9.208,1.817,13.839,2.597c1.503,0.253,3.009,0.497,4.516,0.731
	c10.397,1.614,20.894,2.771,31.502,3.406c3.297,0.197,6.603,0.347,9.922,0.441c27.329-30.385,52.356-63.801,73.674-99.426
	c-3.072-2.317-6.196-4.557-9.372-6.723C1231.837,690.305,1082.474,696.231,968.009,746.786z"/>
<path style="fill:#AA7D65;" d="M1690.024,99.97l-0.025-0.001h-19.727v57.181c0,25.35-20.55,45.901-45.901,45.901H234.66v18.36
	c0,25.35,20.55,45.901,45.9,45.901h1326.716c-19.727,50.295-68.83,86.148-125.902,86.148H352.366
	c-19.862,0-38.757-4.343-55.786-12.125l-0.001-0.001l0.038,0.082l0.466,0.997l0.014,0.029c0.496,1.048,1.005,2.088,1.526,3.12
	l0.091,0.179c0.701,1.383,1.425,2.752,2.171,4.107l0.033,0.06c0.55,0.999,1.114,1.989,1.688,2.972l0.095,0.161
	c0.775,1.32,1.571,2.624,2.388,3.915l0.111,0.176c0.824,1.297,1.669,2.579,2.536,3.845l0.077,0.113
	c0.64,0.933,1.29,1.857,1.952,2.773l0.079,0.111l0.662,0.906l0.036,0.05c0.68,0.922,1.371,1.834,2.073,2.737l0.098,0.126
	c0.944,1.211,1.907,2.407,2.89,3.585l0.099,0.119c0.728,0.87,1.466,1.731,2.216,2.583l0.062,0.071l0.734,0.826l0.106,0.118
	c0.737,0.821,1.483,1.632,2.238,2.434l0.167,0.177l0.744,0.781l0.032,0.033c0.775,0.807,1.56,1.603,2.355,2.391l0.252,0.249
	c0.752,0.741,1.512,1.473,2.28,2.197l0.198,0.187l0.732,0.681l0.234,0.215c0.762,0.701,1.532,1.392,2.309,2.075l0.286,0.252
	l0.736,0.639l0.214,0.183c0.502,0.431,1.008,0.858,1.516,1.281l0.165,0.138l0.713,0.586l0.342,0.28l0.715,0.578l0.287,0.229
	l1.314,1.035l0.402,0.313l0.683,0.523l0.404,0.307l0.7,0.527l0.23,0.17c0.487,0.362,0.975,0.72,1.467,1.075l0.336,0.242l0.737,0.525
	l0.413,0.29c0.548,0.386,1.099,0.768,1.653,1.145l0.014,0.009l0.762,0.513l0.409,0.274l0.715,0.473l0.497,0.324l1.172,0.753
	l0.509,0.323l0.707,0.441l0.478,0.295l0.715,0.438l0.469,0.281l1.201,0.714l0.611,0.357l0.604,0.348l0.686,0.39l0.568,0.321
	l1.115,0.617l0.604,0.327l0.658,0.354l0.616,0.326l0.78,0.407l0.685,0.353l0.978,0.495l0.564,0.28l0.747,0.367l0.568,0.276
	l0.919,0.438l0.813,0.381l0.756,0.348l0.629,0.285l0.743,0.332l0.559,0.248l1.218,0.526l0.538,0.227l0.827,0.345l0.567,0.233
	l0.861,0.348l0.497,0.199l1.28,0.497l0.475,0.181l0.904,0.339l0.538,0.199l1.217,0.439l0.312,0.111l1.161,0.403l0.524,0.177
	l0.947,0.316l0.456,0.15l1.347,0.431l0.394,0.121l1.061,0.324l0.458,0.137l1.028,0.301l0.454,0.131l1.355,0.378l0.429,0.116
	l1.056,0.28l0.446,0.117l1.315,0.331l0.14,0.036l1.409,0.337l0.507,0.117l1.053,0.237l0.403,0.089
	c0.49,0.107,0.982,0.212,1.473,0.313l0.207,0.042l1.248,0.249l0.486,0.093l1.146,0.214l0.352,0.064
	c0.49,0.087,0.98,0.172,1.471,0.255l0.354,0.058l1.153,0.185l0.485,0.075l1.214,0.179l0.29,0.042
	c0.491,0.069,0.984,0.135,1.477,0.199l0.428,0.054l1.17,0.142l0.388,0.046c0.512,0.058,1.023,0.114,1.536,0.167l0.1,0.01
	l1.414,0.135l0.459,0.041l1.183,0.098l0.379,0.03c0.51,0.039,1.021,0.075,1.534,0.108l0.281,0.017l1.27,0.073l0.453,0.023
	l1.318,0.059l0.242,0.01c0.513,0.019,1.027,0.035,1.541,0.049l0.412,0.009l1.203,0.023l0.427,0.006l0.865,0.007l0.701,0.003
	h1129.008l0.762-0.005h0.001c73.985-0.415,134.387-61.067,134.387-135.144v-17.711h6.481c25.351,0,45.901-20.551,45.901-45.901
	V145.87C1735.9,120.529,1715.363,99.984,1690.024,99.97z"/>
<path style="fill:#AA7D65;" d="M1548.369,1863.443H419.361c-0.523,0-1.045,0.004-1.567,0.01l-0.427,0.006l-1.203,0.023l-0.412,0.01
	l-1.225,0.038l-0.317,0.011l-0.242,0.01l-1.318,0.058l-0.453,0.023l-1.27,0.073l-0.281,0.018c-0.512,0.033-1.024,0.069-1.534,0.107
	l-0.379,0.03l-1.183,0.098l-0.459,0.041l-1.414,0.136l-0.1,0.01c-0.512,0.053-1.024,0.109-1.536,0.167l-0.388,0.046l-1.17,0.142
	l-0.428,0.054c-0.493,0.064-0.986,0.13-1.477,0.199l-0.29,0.042l-1.214,0.179l-0.485,0.075l-1.153,0.185l-0.354,0.058
	c-0.491,0.083-0.981,0.167-1.471,0.255l-0.352,0.065l-1.146,0.214l-0.486,0.094l-1.248,0.249l-0.207,0.042
	c-0.491,0.102-0.983,0.207-1.473,0.314l-0.403,0.089l-1.053,0.237l-0.507,0.117l-1.409,0.337l-0.14,0.035l-1.315,0.332l-0.446,0.116
	l-1.056,0.28l-0.429,0.115l-1.355,0.378l-0.454,0.131l-1.028,0.301l-0.458,0.137l-1.061,0.324l-0.394,0.122l-1.347,0.431
	l-0.456,0.15l-0.947,0.316l-0.524,0.178l-1.161,0.403l-0.312,0.11l-1.217,0.439l-0.538,0.199l-0.904,0.339l-0.475,0.18l-1.28,0.497
	l-0.497,0.2l-0.871,0.351l-0.522,0.214l-0.903,0.377l-0.495,0.208l-1.221,0.527l-0.512,0.227l-0.823,0.368l-0.586,0.266
	l-0.835,0.385l-0.56,0.261l-1.101,0.525l-0.568,0.276l-0.747,0.367l-0.564,0.28l-0.978,0.495l-0.685,0.353l-0.787,0.41l-0.574,0.305
	l-0.768,0.412l-0.5,0.271l-1.145,0.633l-0.568,0.32l-0.686,0.391l-0.604,0.348l-0.65,0.379l-0.973,0.577l-0.659,0.395l-0.715,0.438
	l-0.478,0.295l-0.707,0.441l-0.509,0.323l-1.172,0.753l-0.5,0.325l-0.675,0.446l-0.489,0.327l-0.719,0.485l-0.014,0.009
	c-0.554,0.377-1.105,0.759-1.653,1.144l-0.413,0.291l-0.737,0.525l-0.336,0.243c-0.492,0.355-0.98,0.713-1.467,1.074l-0.23,0.17
	l-0.7,0.527l-0.404,0.307l-0.683,0.523l-0.439,0.341l-1.13,0.89l-0.46,0.367l-0.644,0.52l-0.425,0.346l-0.675,0.556l-0.165,0.138
	c-0.488,0.407-0.974,0.817-1.457,1.231l-0.302,0.259l-0.673,0.584l-0.367,0.323c-0.762,0.669-1.515,1.347-2.262,2.034l-0.234,0.215
	l-0.732,0.681l-0.198,0.186c-0.768,0.723-1.528,1.456-2.28,2.197l-0.257,0.255l-0.713,0.71l-0.035,0.035
	c-0.539,0.542-1.072,1.089-1.602,1.64l-0.032,0.033l-0.744,0.781l-0.167,0.177c-0.754,0.801-1.499,1.611-2.233,2.429l-0.111,0.123
	l-0.734,0.826l-0.065,0.075c-0.747,0.851-1.486,1.71-2.212,2.58l-0.101,0.12c-0.744,0.892-1.478,1.794-2.2,2.706l-0.003,0.003
	l-0.66,0.84l-0.155,0.198c-0.676,0.871-1.342,1.75-1.997,2.638l-0.101,0.136l-0.643,0.881l-0.084,0.115
	c-0.65,0.901-1.292,1.812-1.921,2.729l-0.124,0.181c-0.852,1.247-1.684,2.509-2.496,3.785l-0.152,0.24
	c-0.805,1.273-1.59,2.56-2.353,3.86l-0.133,0.227c-0.566,0.968-1.12,1.944-1.663,2.928l-0.034,0.062l-0.553,1.012l-0.029,0.053
	c-0.537,0.995-1.061,1.998-1.574,3.008l-0.12,0.238c-0.506,1.003-1,2.013-1.482,3.03l-0.053,0.111l-0.446,0.953l-0.05,0.107h0.001
	c17.029-7.782,35.925-12.125,55.786-12.125h1129.008c57.072,0,106.175,35.854,125.902,86.148H280.56
	c-25.35,0-45.9,20.551-45.9,45.901v18.36h1389.711c25.351,0,45.901,20.55,45.901,45.901v57.18h19.727
	c25.351,0,45.901-20.55,45.901-45.9v-75.54c0-25.35-20.551-45.901-45.901-45.901h-6.481v-17.711
	c0-72.713-58.198-132.492-130.314-135.061h0C1551.598,1863.474,1549.987,1863.443,1548.369,1863.443z"/>
<path style="fill:#DDB34A;" d="M974.09,1190.84c0.394-6.451-6.459-16.626-11.169-12.201c-2.312,2.173,0.066,12.692,0.066,12.692
	C966.645,1192.147,970.519,1191.976,974.09,1190.84z"/>
<path style="fill:#DDB34A;" d="M1014.047,1329.391c1.536-0.292,2.539-1.876,2.236-3.41c-1.212-6.156-6.882-13.235-10.951-9.411
	c-2.313,2.173,0.065,12.693,0.065,12.693C1008.231,1329.895,1011.194,1329.934,1014.047,1329.391z"/>
<path style="fill:#DDB34A;" d="M924.664,1444.376c-2.313,2.173,0.064,12.693,0.064,12.693c3.659,0.815,7.532,0.644,11.104-0.492
	C936.227,1450.127,929.373,1439.952,924.664,1444.376z"/>
<path style="fill:#DDB34A;" d="M1003.464,1504.119c-2.44-2.028-12.588,1.623-12.588,1.623c-0.361,3.73,0.285,7.554,1.851,10.959
	C999.176,1516.3,1008.434,1508.25,1003.464,1504.119z"/>
<path style="fill:#DDB34A;" d="M947.822,1281.169c0.472,3.879,4.779,6.155,8.106,4.104c4.515-2.783,7.849-7.493,4.423-10.34
	c-1.424-1.184-5.473-0.433-8.599,0.397c-2.529,0.672-4.246,3.128-3.944,5.727L947.822,1281.169z"/>
<path style="fill:#DDB34A;" d="M997.281,1234.568c1.659-0.449,2.217-2.575,1.967-4.276c-0.25-1.7-1.003-3.363-0.791-5.069
	c0.238-1.917,1.631-3.451,2.805-4.986c2.543-3.325,6.163-15.346-1.858-15.355c-5.544-0.005-3.317,9.594-4.695,13.588
	c-0.684,1.984-1.903,3.761-2.494,5.776c-0.825,2.808-0.31,5.977,1.358,8.381C994.422,1233.851,995.844,1234.958,997.281,1234.568z"
	/>
<path style="fill:#DDB34A;" d="M1005.65,1420.672c-5.545-0.006-3.317,9.594-4.695,13.588c-0.685,1.984-1.904,3.761-2.495,5.776
	c-0.823,2.808-0.31,5.977,1.359,8.38c0.849,1.223,2.271,2.33,3.708,1.94c1.66-0.45,2.217-2.575,1.967-4.275
	c-0.25-1.701-1.004-3.364-0.791-5.069c0.238-1.917,1.63-3.451,2.804-4.986C1010.05,1432.702,1013.671,1420.68,1005.65,1420.672z"/>
<path style="fill:#DDB34A;" d="M967.215,1386.863c1.659-0.45,2.217-2.575,1.967-4.276c-0.25-1.7-1.003-3.363-0.791-5.069
	c0.238-1.917,1.63-3.451,2.805-4.986c2.543-3.325,6.164-15.346-1.858-15.355c-5.544-0.005-3.316,9.594-4.695,13.588
	c-0.685,1.984-1.903,3.761-2.494,5.776c-0.824,2.808-0.31,5.977,1.359,8.381C964.356,1386.146,965.778,1387.253,967.215,1386.863z"
	/>
<path style="fill:#EEF8FC;" d="M646.669,786.545c35.37-29.389,79.114-48.879,124.859-57.66
	c-42.277-68.143-76.988-142.885-99.49-221.442c-7.1-24.798-29.756-41.88-55.55-41.88h-53.723c-39.061,0-66.932,37.923-55.242,75.194
	c51.443,164.005,155.319,310.117,268.298,412.354c12.099,10.951,27.846,16.966,44.167,16.966c1.979,0,3.921-0.081,5.833-0.24
	C759.632,919.977,690.09,851.905,646.669,786.545z"/>
<path style="fill:#EEF8FC;" d="M528.551,1755.141c19.91-63.975,54.269-123.22,97.641-174.114
	c42.505-50.856,95.274-89.794,149.787-126.713c12.535-8.49,24.994-17.261,38.218-24.601c20.81-27.13,42.819-52.897,65.66-77.127
	c33.297-35.324,10.448-93.505-37.959-97.133c-1.445-0.108-2.891-0.162-4.329-0.162c-13.361,0-26.352,4.618-36.762,13.136
	c-140.519,114.998-269.942,289.724-315.004,487.43c-5.882,25.807,6.505,51.002,27.899,63.145
	C516.369,1797.029,522.346,1775.077,528.551,1755.141z"/>
</svg>
