<?xml version="1.0" encoding="utf-8"?>
<!-- Generator: Adobe Illustrator 27.5.0, SVG Export Plug-In . SVG Version: 6.00 Build 0)  -->
<svg version="1.1" xmlns="http://www.w3.org/2000/svg" xmlns:xlink="http://www.w3.org/1999/xlink" x="0px" y="0px"
	 viewBox="0 0 500 500" style="enable-background:new 0 0 500 500;" xml:space="preserve">
<g id="BACKGROUND">
</g>
<g id="OBJECTS">
	<g>
		<defs>
			<rect id="SVGID_1_" x="0.164" y="0.559" width="499.441" height="499.441"/>
		</defs>
		<clipPath id="SVGID_00000062155816408758740020000011408914815840519870_">
			<use xlink:href="#SVGID_1_"  style="overflow:visible;"/>
		</clipPath>
		<g style="clip-path:url(#SVGID_00000062155816408758740020000011408914815840519870_);">
			<g>
				<path style="fill:none;stroke:#DDDDDD;stroke-linecap:round;stroke-linejoin:round;stroke-miterlimit:10;" d="M443.931,180.105
					c-2.344-13.774-7.756-26.503-15.516-37.453l8.169-8.169l-21.903-21.903l-8.169,8.169c-10.95-7.76-23.679-13.172-37.453-15.516
					v-11.55h-30.976v11.55c-13.774,2.344-26.503,7.757-37.453,15.516l-8.169-8.169l-21.903,21.903l8.169,8.169
					c-7.76,10.95-13.172,23.679-15.516,37.453h-11.55v30.976h11.55c2.344,13.774,7.757,26.503,15.516,37.453l-8.169,8.169
					l21.903,21.903l7.889-9.099c10.95,7.76,23.959,14.101,37.734,16.446v11.55h30.976v-11.55
					c13.774-2.344,26.503-7.757,37.453-15.516l8.169,8.169l21.903-21.903l-8.169-8.169c7.76-10.95,13.172-23.678,15.516-37.453
					h11.55v-30.976H443.931z M353.571,246.312c-28.011,0-50.719-22.708-50.719-50.719s22.708-50.719,50.719-50.719
					c28.011,0,50.719,22.708,50.719,50.719S381.582,246.312,353.571,246.312z"/>
				<path style="fill:none;stroke:#DDDDDD;stroke-linecap:round;stroke-linejoin:round;stroke-miterlimit:10;" d="M218.057-15.52
					c-2.344-13.774-7.756-26.503-15.516-37.453l8.169-8.169l-21.903-21.903l-8.169,8.169c-10.95-7.76-23.679-13.172-37.453-15.516
					v-11.55H112.21v11.55c-13.774,2.344-26.503,7.756-37.453,15.516l-8.169-8.169L44.684-61.142l8.169,8.169
					c-7.76,10.95-13.172,23.679-15.516,37.453H25.787v30.976h11.551c2.344,13.774,7.757,26.503,15.516,37.453l-8.169,8.169
					l21.903,21.903l7.889-9.099c10.95,7.76,23.959,14.101,37.733,16.445v11.55h30.976v-11.55
					c13.774-2.344,26.503-7.757,37.453-15.516l8.169,8.169l21.903-21.903l-8.169-8.169c7.76-10.95,13.172-23.679,15.516-37.453
					h11.55V-15.52H218.057z M127.697,50.687c-28.011,0-50.719-22.708-50.719-50.719c0-28.011,22.708-50.719,50.719-50.719
					c28.011,0,50.719,22.708,50.719,50.719C178.417,27.979,155.709,50.687,127.697,50.687z"/>
				<path style="fill:none;stroke:#DDDDDD;stroke-linecap:round;stroke-linejoin:round;stroke-miterlimit:10;" d="M97.833,280.176
					c-2.344-13.774-7.756-26.503-15.516-37.453l8.169-8.169L68.583,212.65l-8.169,8.169c-10.95-7.76-23.679-13.172-37.453-15.516
					v-11.55H-8.015v11.55c-13.774,2.344-26.503,7.756-37.453,15.516l-8.169-8.169l-21.903,21.903l8.169,8.169
					c-7.76,10.95-13.172,23.679-15.516,37.453h-11.55v30.976h11.55c2.344,13.774,7.757,26.503,15.516,37.453l-8.169,8.169
					l21.903,21.903l7.889-9.099c10.95,7.76,23.959,14.101,37.734,16.445v11.55h30.976v-11.55
					c13.774-2.344,26.503-7.757,37.453-15.516l8.169,8.169l21.903-21.903l-8.169-8.169c7.76-10.95,13.172-23.678,15.516-37.453
					h11.55v-30.976H97.833z M7.473,346.383c-28.011,0-50.719-22.708-50.719-50.719c0-28.011,22.708-50.719,50.719-50.719
					c28.011,0,50.719,22.708,50.719,50.719C58.192,323.675,35.484,346.383,7.473,346.383z"/>
			</g>
			<g>
				<g>
					<g>
						<g>
							<path style="fill:#FF98E1;" d="M268.265,247.743h-47.56v22.667c0,3.701,1.053,7.326,3.037,10.451l0,0
								c3.749,5.907,10.26,9.486,17.257,9.486h6.973c6.997,0,13.507-3.579,17.257-9.486l0,0c1.983-3.125,3.037-6.75,3.037-10.451
								V247.743z"/>
						</g>
					</g>
					<g>
						<g>
							<g>
								<g>
									<path style="fill:none;stroke:#262626;stroke-linecap:round;stroke-linejoin:round;stroke-miterlimit:10;" d="
										M220.702,263.029c0.136,0.005,0.273,0,0.412-0.014l47.559-4.93c1.624-0.168,2.757-1.627,2.532-3.259
										c-0.225-1.631-1.727-2.819-3.347-2.649l-47.56,4.93c-1.623,0.168-2.757,1.627-2.532,3.259
										C217.971,261.858,219.243,262.978,220.702,263.029z"/>
								</g>
							</g>
						</g>
					</g>
					<g>
						<g>
							<g>
								<g>
									<path style="fill:none;stroke:#262626;stroke-linecap:round;stroke-linejoin:round;stroke-miterlimit:10;" d="
										M220.702,273.403c0.136,0.005,0.273,0,0.412-0.014l47.559-4.93c1.624-0.168,2.757-1.627,2.532-3.259
										c-0.225-1.631-1.727-2.816-3.347-2.649l-47.56,4.93c-1.623,0.168-2.757,1.627-2.532,3.259
										C217.971,272.232,219.243,273.352,220.702,273.403z"/>
								</g>
							</g>
						</g>
					</g>
					<g>
						<g>
							<g>
								<g>
									<path style="fill:none;stroke:#262626;stroke-linecap:round;stroke-linejoin:round;stroke-miterlimit:10;" d="
										M221.941,283.671c0.136,0.005,0.273,0,0.411-0.015l45.08-4.673c1.624-0.168,2.757-1.627,2.532-3.259
										c-0.225-1.631-1.728-2.819-3.347-2.649l-45.081,4.674c-1.623,0.168-2.757,1.627-2.532,3.259
										C219.211,282.5,220.483,283.621,221.941,283.671z"/>
								</g>
							</g>
						</g>
					</g>
				</g>
				<g>
					<path style="fill:#FFDF58;" d="M161.22,115.111c-0.118-45.986,37.066-83.361,83.052-83.479
						c45.986-0.118,83.361,37.066,83.479,83.052c0.047,18.331-5.838,35.29-15.84,49.07h0c-11.84,17.94-42.67,38.241-42.639,50.355
						l0.036,13.84c0.007,2.763-2.227,5.008-4.99,5.015l-13.381,0.034l-12.297,0.032l-13.382,0.034
						c-2.762,0.007-5.008-2.227-5.015-4.99l-0.036-13.84c-0.031-12.115-30.966-32.257-42.897-50.136l0,0
						C167.239,150.37,161.267,133.442,161.22,115.111z"/>
					<g>
						<path style="fill:#F4D451;" d="M259.822,111.7c-14.111,13.408-31.291,24.27-49.542,31.07
							c-13.009,4.847-26.586,7.386-40.275,9.334c1.404,2.802,2.954,5.518,4.653,8.129c9.996-0.909,19.884-2.764,29.499-5.791
							c12.021-3.784,23.794-9.077,33.984-16.557c10.259-7.531,19.28-16.991,26.501-27.461c2.636-3.822,4.985-7.809,7.046-11.932
							C268.12,103.224,264.106,107.63,259.822,111.7z"/>
						<path style="fill:#F4D451;" d="M288.915,44.491c-1.375-0.87-2.783-1.691-4.211-2.482c0.849,13.231,0.409,26.56-2.987,39.45
							c-6.586,24.999-23.838,47.279-45.176,61.62c-10.839,7.285-23.406,12.42-35.953,15.9c-7.789,2.16-15.749,3.59-23.775,4.412
							c0.168,0.234,0.328,0.474,0.498,0.706c5.494,8.233,15.015,16.944,23.695,25.132c8.959-1.775,17.762-4.308,26.278-7.778
							c16.246-6.619,32.256-16.684,43.924-29.929c9.87-11.205,16.818-24.971,21.086-39.221
							C298.811,90.536,299.499,64.845,288.915,44.491z"/>
						<path style="fill:#F4D451;" d="M236.495,202.293c17.928-1.749,35.608-5.993,51.933-13.364
							c8.616-8.209,18.049-16.94,23.484-25.175h0c1.282-1.766,2.493-3.585,3.636-5.451c-13.725,13.446-30.289,24.256-47.179,32.748
							c-10.84,5.451-22.166,9.043-33.762,11.401C235.235,202.396,235.866,202.354,236.495,202.293z"/>
						<path style="fill:#F4D451;" d="M320.561,81.013c-0.372,3.179-0.974,6.342-1.635,9.445c-1.662,7.794-3.725,15.449-6.562,22.904
							c-10.177,26.742-28.128,50.281-52.287,65.807c-11.777,7.569-24.67,13.344-37.925,17.79c-3.328,1.117-6.649,2.253-9.97,3.391
							c0.565,0.621,1.13,1.242,1.649,1.848c2.692-0.249,5.382-0.534,8.066-0.885c17.069-2.233,33.356-7.071,48.602-15.098
							c12.42-6.539,24.288-14.291,34.985-23.395c5.601-4.766,10.952-10.005,15.78-15.663c4.203-9.985,6.517-20.958,6.487-32.474
							C327.72,102.692,325.151,91.302,320.561,81.013z"/>
					</g>
				</g>
				<path style="fill:#262626;" d="M254.001,228.061c-0.1-2.031-1.635-34.567,0.898-63.092c-3.192,0.386-6.61,0.596-10.263,0.606
					c-3.654,0.009-7.072-0.183-10.266-0.553c2.678,28.511,1.31,61.055,1.22,63.086l-1.429-0.063
					c0.022-0.501,1.438-34.162-1.299-63.213c-24.051-3.282-34.847-16.874-36.812-29.724c-1.149-7.51,1.398-14.994,6.055-17.795
					c2.825-1.699,6.244-2.051,9.886-1.016c5.73,1.628,11.184,6.548,14.59,13.16c3.933,7.636,6.279,20.326,7.648,34.106
					c3.226,0.388,6.689,0.591,10.403,0.581c3.714-0.009,7.177-0.23,10.4-0.634c1.299-13.786,3.58-26.488,7.474-34.145
					c3.372-6.63,8.801-11.577,14.522-13.235c3.636-1.053,7.057-0.719,9.891,0.965c4.671,2.777,7.256,10.248,6.146,17.764
					c-1.899,12.859-12.626,26.507-36.66,29.912c-2.589,29.064-0.999,62.718-0.975,63.219L254.001,228.061z M281.04,116.962
					c-1.161,0.003-2.371,0.183-3.614,0.543c-5.348,1.549-10.449,6.225-13.645,12.509c-3.745,7.364-5.962,19.755-7.242,33.291
					c23.023-3.379,33.299-16.39,35.11-28.654c1.012-6.854-1.336-13.872-5.462-16.325
					C284.653,117.414,282.911,116.957,281.04,116.962z M207.982,117.149c-1.872,0.005-3.611,0.471-5.14,1.391
					c-4.113,2.474-6.425,9.504-5.378,16.352c1.874,12.255,12.216,25.213,35.256,28.473c-1.348-13.529-3.629-25.909-7.412-33.253
					c-3.228-6.267-8.353-10.917-13.709-12.439C210.355,117.32,209.143,117.146,207.982,117.149z"/>
			</g>
			<g>
				<g>
					<g>
						<path style="fill:#FF98E1;" d="M534.573,117.241V92.279h-24.904c0,0.042,0.006,0.082,0.006,0.123
							c0,7.193-5.831,13.024-13.024,13.024c-7.193,0-13.024-5.831-13.024-13.024c0-0.042,0.006-0.082,0.006-0.123h-24.904v24.962
							c-7.165,0.034-12.963,5.849-12.963,13.021c0,7.172,5.798,12.988,12.963,13.021v24.839h24.898
							c0-7.193,5.831-13.024,13.024-13.024c7.193,0,13.024,5.831,13.024,13.024h24.898v-24.839
							c7.164-0.034,12.963-5.849,12.963-13.021C547.536,123.09,541.737,117.275,534.573,117.241z"/>
					</g>
					<g>
						
							<path style="fill:none;stroke:#FF98E1;stroke-width:0.75;stroke-linecap:round;stroke-linejoin:round;stroke-miterlimit:10;" d="
							M467.692,92.258c-0.613,4.941-0.875,9.925-0.784,14.903c0.061,3.309,0.287,6.663,1.368,9.792
							c1.081,3.128,3.11,6.042,6.04,7.583c3.295,1.733,7.548,1.463,10.597-0.673c3.049-2.136,4.755-6.041,4.252-9.729
							c-0.231-1.695-1.292-3.615-3.003-3.596c-0.76,0.008-1.469,0.423-1.996,0.969c-1.953,2.021-1.429,5.575,0.504,7.614
							c1.933,2.039,4.84,2.838,7.635,3.124c4.295,0.44,8.69-0.133,12.729-1.659c1.555-0.588,3.073-1.324,4.364-2.371
							c1.597-1.294,2.795-3.02,3.755-4.837c3.36-6.353,3.925-14.122,1.52-20.895"/>
						
							<path style="fill:none;stroke:#FF98E1;stroke-width:0.75;stroke-linecap:round;stroke-linejoin:round;stroke-miterlimit:10;" d="
							M534.326,95.168c-2.514,0.42-5.268,0.037-7.461,1.336c-2.934,1.737-3.577,5.902-2.428,9.113c1.149,3.21,3.624,5.73,5.888,8.28
							c0.846,0.954,1.707,1.999,1.887,3.262c0.296,2.072-1.326,3.922-3.035,5.13c-1.71,1.208-3.7,2.186-4.805,3.964
							c-1.791,2.881-0.406,6.951,2.335,8.951c2.741,1.999,6.397,2.289,9.756,1.817c1.634-0.229,3.299-0.645,4.607-1.65
							c1.309-1.005,2.185-2.714,1.802-4.319c-0.52-2.182-3.038-3.282-5.28-3.354c-3.782-0.12-7.563,1.879-9.592,5.073
							s-2.234,7.465-0.519,10.839c1.251,2.461,3.785,4.519,6.532,4.242"/>
						
							<path style="fill:none;stroke:#FF98E1;stroke-width:0.75;stroke-linecap:round;stroke-linejoin:round;stroke-miterlimit:10;" d="
							M476.816,168.281c0.013-1.886,0.027-3.773,0.04-5.659c0.006-0.855-0.024-1.804-0.617-2.419
							c-0.591-0.613-1.533-0.679-2.383-0.707c-0.865-0.028-1.778-0.046-2.535,0.374c-0.757,0.42-1.249,1.444-0.793,2.18
							c0.377,0.608,1.182,0.755,1.892,0.843c2.554,0.317,5.688,0.38,7.069-1.791c0.954-1.499,0.614-3.44,0.343-5.196
							c-0.58-3.76-0.682-7.593-0.302-11.378c0.165-1.647,0.446-3.349,1.387-4.711c1.174-1.7,3.181-2.597,5.121-3.308
							c1.679-0.615,3.651-1.126,5.168-0.181c1.69,1.051,1.976,3.355,2.036,5.344c0.06,1.989,0.207,4.266,1.783,5.481
							c1.816,1.4,4.671,0.443,5.972-1.446c1.301-1.888,1.407-4.345,1.221-6.63c-0.04-0.498-0.107-1.03-0.433-1.409
							c-0.246-0.285-0.61-0.443-0.979-0.518c-1.957-0.397-3.88,1.909-3.138,3.763c0.833,2.083,3.612,2.376,5.855,2.335
							c1.634-0.03,3.267-0.06,4.901-0.09c0.911-0.017,1.851-0.028,2.698,0.31c2.031,0.812,2.793,3.258,3.146,5.417
							c0.456,2.789,0.653,5.62,0.588,8.446c-0.027,1.167-0.07,2.436,0.614,3.382c0.681,0.942,1.9,1.302,3.04,1.53
							c2.93,0.586,5.954,0.697,8.919,0.328c0.941-0.117,1.901-0.291,2.717-0.775c0.816-0.483,1.471-1.336,1.479-2.285
							c0.013-1.638-1.752-2.683-3.337-3.096c-0.871-0.227-1.837-0.363-2.637,0.05c-0.8,0.413-1.244,1.577-0.645,2.248
							c0.421,0.472,1.132,0.513,1.764,0.513c2.731,0.003,5.462-0.11,8.183-0.339"/>
						
							<path style="fill:none;stroke:#FF98E1;stroke-width:0.75;stroke-linecap:round;stroke-linejoin:round;stroke-miterlimit:10;" d="
							M446.735,124.536c3.627-0.115,7.254-0.23,10.882-0.346c0.992-0.031,2.161,0.021,2.72,0.842
							c0.51,0.749,0.245,1.764,0.421,2.653c0.275,1.388,1.63,2.335,3.007,2.66c1.377,0.326,2.814,0.177,4.229,0.204
							c1.414,0.028,2.918,0.277,3.966,1.228c1.047,0.951,1.372,2.792,0.343,3.762c-0.735,0.693-1.853,0.736-2.863,0.714
							c-7.631-0.165-15.255-1.682-22.852-0.937"/>
					</g>
				</g>
				<g>
					<g>
						<path style="fill:#FF98E1;" d="M-18.853,45.121h-24.962v24.904c0.042,0,0.082-0.006,0.123-0.006
							c7.193,0,13.024,5.831,13.024,13.024c0,7.193-5.831,13.024-13.024,13.024c-0.042,0-0.082-0.006-0.123-0.006v24.904h24.962
							c0.034,7.164,5.849,12.963,13.021,12.963c7.172,0,12.988-5.798,13.021-12.963h24.839V96.068
							c-7.193,0-13.024-5.831-13.024-13.024c0-7.193,5.831-13.024,13.024-13.024V45.121H7.19
							C7.156,37.957,1.341,32.159-5.832,32.159C-13.004,32.159-18.819,37.957-18.853,45.121z"/>
					</g>
					<g>
						
							<path style="fill:none;stroke:#FF98E1;stroke-width:0.75;stroke-linecap:round;stroke-linejoin:round;stroke-miterlimit:10;" d="
							M-43.836,112.003c4.941,0.613,9.925,0.875,14.903,0.784c3.309-0.061,6.663-0.287,9.792-1.368
							c3.128-1.081,6.042-3.11,7.583-6.04c1.733-3.295,1.463-7.548-0.673-10.597c-2.136-3.049-6.041-4.756-9.729-4.252
							c-1.695,0.231-3.615,1.292-3.596,3.003c0.008,0.759,0.423,1.469,0.969,1.996c2.021,1.952,5.575,1.429,7.614-0.504
							s2.838-4.84,3.124-7.635c0.44-4.295-0.133-8.69-1.659-12.729c-0.588-1.555-1.324-3.073-2.371-4.364
							c-1.294-1.597-3.02-2.795-4.837-3.755c-6.353-3.36-14.122-3.925-20.894-1.52"/>
						
							<path style="fill:none;stroke:#FF98E1;stroke-width:0.75;stroke-linecap:round;stroke-linejoin:round;stroke-miterlimit:10;" d="
							M-40.927,45.369c0.42,2.514,0.037,5.268,1.336,7.461c1.737,2.934,5.902,3.577,9.113,2.428c3.21-1.149,5.73-3.624,8.28-5.888
							c0.954-0.847,1.999-1.707,3.262-1.887c2.073-0.296,3.922,1.326,5.13,3.035c1.208,1.71,2.186,3.7,3.964,4.805
							c2.881,1.791,6.951,0.406,8.95-2.335c1.999-2.741,2.289-6.397,1.817-9.756c-0.229-1.634-0.645-3.299-1.65-4.608
							c-1.004-1.309-2.714-2.185-4.319-1.802c-2.183,0.52-3.282,3.038-3.354,5.28c-0.12,3.782,1.879,7.563,5.073,9.592
							s7.465,2.234,10.839,0.519c2.461-1.251,4.519-3.786,4.242-6.532"/>
						
							<path style="fill:none;stroke:#FF98E1;stroke-width:0.75;stroke-linecap:round;stroke-linejoin:round;stroke-miterlimit:10;" d="
							M32.186,102.879c-1.886-0.013-3.773-0.027-5.659-0.04c-0.855-0.006-1.804,0.024-2.419,0.617
							c-0.613,0.591-0.679,1.533-0.707,2.383c-0.028,0.865-0.046,1.778,0.374,2.535c0.42,0.756,1.444,1.248,2.18,0.793
							c0.608-0.377,0.755-1.182,0.843-1.892c0.317-2.554,0.38-5.688-1.791-7.069c-1.5-0.954-3.44-0.614-5.196-0.343
							c-3.76,0.58-7.593,0.682-11.378,0.302c-1.647-0.165-3.349-0.446-4.711-1.387c-1.7-1.174-2.597-3.181-3.308-5.121
							c-0.615-1.679-1.125-3.65-0.181-5.168c1.051-1.69,3.355-1.976,5.344-2.036c1.989-0.06,4.266-0.207,5.481-1.783
							c1.4-1.816,0.443-4.671-1.446-5.972c-1.889-1.301-4.345-1.406-6.63-1.221c-0.498,0.04-1.03,0.107-1.409,0.433
							c-0.285,0.245-0.443,0.61-0.518,0.979c-0.397,1.957,1.909,3.88,3.763,3.138c2.083-0.833,2.376-3.612,2.335-5.855
							c-0.03-1.634-0.06-3.267-0.09-4.901c-0.017-0.911-0.028-1.851,0.31-2.698c0.812-2.031,3.258-2.793,5.417-3.146
							c2.789-0.456,5.62-0.653,8.446-0.588c1.167,0.027,2.436,0.07,3.382-0.614c0.942-0.681,1.302-1.9,1.53-3.039
							c0.586-2.93,0.697-5.954,0.328-8.919c-0.117-0.941-0.291-1.901-0.775-2.717s-1.336-1.471-2.285-1.479
							c-1.638-0.013-2.683,1.752-3.096,3.337c-0.227,0.87-0.363,1.837,0.05,2.637c0.413,0.799,1.577,1.244,2.248,0.645
							c0.472-0.421,0.513-1.132,0.514-1.764c0.003-2.731-0.11-5.462-0.339-8.183"/>
						
							<path style="fill:none;stroke:#FF98E1;stroke-width:0.75;stroke-linecap:round;stroke-linejoin:round;stroke-miterlimit:10;" d="
							M-11.558,132.96c-0.115-3.627-0.23-7.254-0.346-10.881c-0.031-0.992,0.021-2.161,0.842-2.72
							c0.749-0.51,1.764-0.245,2.653-0.421c1.388-0.275,2.335-1.63,2.66-3.007c0.326-1.377,0.177-2.814,0.204-4.229
							c0.028-1.414,0.277-2.918,1.228-3.966c0.951-1.047,2.792-1.372,3.762-0.343c0.693,0.735,0.735,1.853,0.714,2.863
							c-0.165,7.631-1.682,15.256-0.937,22.852"/>
					</g>
				</g>
				<g>
					<g>
						<path style="fill:#00DD9E;" d="M85.947,242.193H60.985v24.904c0.042,0,0.082-0.006,0.123-0.006
							c7.193,0,13.024,5.831,13.024,13.024c0,7.193-5.831,13.025-13.024,13.025c-0.042,0-0.082-0.006-0.123-0.006v24.904h24.962
							C85.981,325.201,91.796,331,98.968,331c7.172,0,12.988-5.798,13.021-12.963h24.839v-24.897
							c-7.193,0-13.024-5.831-13.024-13.025c0-7.193,5.831-13.024,13.024-13.024v-24.898H111.99
							c-0.034-7.165-5.849-12.963-13.021-12.963C91.796,229.23,85.981,235.028,85.947,242.193z"/>
					</g>
					<g>
						
							<path style="fill:none;stroke:#00DD9E;stroke-width:0.75;stroke-linecap:round;stroke-linejoin:round;stroke-miterlimit:10;" d="
							M98.247,229.787c-0.18,7.951-0.36,15.903-0.539,23.854c-0.043,1.921-0.082,3.876,0.451,5.722
							c0.533,1.846,1.737,3.598,3.523,4.307c2.945,1.17,6.389-1.001,7.648-3.908c1.26-2.908,0.873-6.246,0.232-9.35
							c-0.244-1.183-0.616-2.492-1.666-3.09c-1.614-0.92-3.797,0.775-3.775,2.633c0.022,1.858,1.63,3.391,3.4,3.954
							c1.771,0.563,3.681,0.373,5.531,0.198c7.694-0.725,15.424-1.08,23.152-1.062"/>
						
							<path style="fill:none;stroke:#00DD9E;stroke-width:0.75;stroke-linecap:round;stroke-linejoin:round;stroke-miterlimit:10;" d="
							M136.623,260.475c-4.49-0.074-8.986,0.306-13.4,1.134c-2.251,0.422-4.616,1.036-6.19,2.699
							c-1.39,1.468-1.94,3.525-2.335,5.507c-1.458,7.321-1.467,14.927-0.025,22.252c0.308,1.566,0.707,3.173,1.693,4.429
							c0.985,1.255,2.708,2.064,4.212,1.53c2.051-0.728,2.622-3.327,2.708-5.501c0.05-1.255-0.212-2.861-1.434-3.15
							c-1.543-0.364-2.395,1.722-2.553,3.299c-0.412,4.119-0.527,8.638,1.921,11.977c1.212,1.654,3.436,2.92,5.286,2.035
							c2.041-0.977,2.271-3.748,3.488-5.655c0.539-0.844,1.495-1.594,2.464-1.341c1.198,0.313,1.403,1.846,1.635,3.063
							c1.055,5.555-0.182,10.727-0.789,15.284"/>
						
							<path style="fill:none;stroke:#00DD9E;stroke-width:0.75;stroke-linecap:round;stroke-linejoin:round;stroke-miterlimit:10;" d="
							M98.346,330.918c-0.158-2.087-0.26-4.178-0.308-6.27c-0.021-0.926-0.009-1.927,0.545-2.67c0.572-0.768,1.59-1.063,2.546-1.122
							c0.956-0.059,1.923,0.069,2.87-0.074c2.662-0.402,4.696-3.235,4.227-5.885c-0.084-0.477-0.247-0.957-0.581-1.308
							c-0.421-0.443-1.048-0.615-1.648-0.733c-2.175-0.429-4.44-0.393-6.601,0.102c-0.653,0.15-1.326,0.358-1.801,0.83
							c-1.073,1.066-0.502,3.131,0.87,3.769c1.371,0.638,3.097,0.018,4.051-1.155c0.955-1.173,1.25-2.764,1.192-4.276
							c-0.027-0.696-0.135-1.425-0.561-1.976c-0.592-0.767-1.632-0.997-2.585-1.169c-13.059-2.359-26.352-3.416-39.619-3.149"/>
						
							<path style="fill:none;stroke:#00DD9E;stroke-width:0.75;stroke-linecap:round;stroke-linejoin:round;stroke-miterlimit:10;" d="
							M61.218,263.23c6.552,0.666,13.095,1.417,19.628,2.254c0.624,0.08,1.272,0.169,1.799,0.513
							c0.929,0.606,1.225,1.808,1.446,2.895c1.046,5.148,2.092,10.296,3.138,15.444c0.269,1.325,0.593,2.749,1.608,3.643
							c0.687,0.606,1.603,0.88,2.502,1.053c2.227,0.428,4.554,0.332,6.738-0.281c0.527-0.148,1.073-0.343,1.426-0.761
							c0.388-0.46,0.468-1.098,0.528-1.697c0.333-3.37,0.515-6.754,0.544-10.14c0.009-1.079-0.01-2.21-0.527-3.157
							c-0.919-1.683-3.041-2.218-4.929-2.551c-0.704-0.124-1.47-0.234-2.1,0.104c-1.132,0.609-1.143,2.201-1.001,3.478
							c0.299,2.68,0.598,5.36,0.897,8.039c0.039,0.348,0.082,0.708,0.265,1.006c0.518,0.84,1.893,0.678,2.547-0.062
							c0.654-0.739,0.784-1.791,0.885-2.772c0.068-0.662,0.13-1.363-0.157-1.963c-0.286-0.6-1.059-1.021-1.637-0.693
							c-0.164,6.296-0.327,12.591-0.491,18.887c-0.016,0.624-0.06,1.314-0.503,1.754c-0.371,0.368-0.926,0.461-1.445,0.524
							c-4.039,0.495-8.127,0.33-12.193,0.163c-3.307-0.135-6.615-0.271-9.922-0.406c-3.164-0.129-6.333-0.259-9.474-0.661"/>
						
							<path style="fill:none;stroke:#00DD9E;stroke-width:0.75;stroke-linecap:round;stroke-linejoin:round;stroke-miterlimit:10;" d="
							M60.985,246.89c4.437-0.682,7.635-0.968,12.075-0.314c1.236,0.182,2.514,0.436,3.512,1.188
							c1.887,1.421,2.193,4.183,1.663,6.485c-0.358,1.556-1.05,3.08-2.231,4.155c-1.181,1.074-2.905,1.628-4.428,1.148
							c-1.934-0.609-3.112-2.962-2.441-4.875c0.477-1.36,1.707-2.351,3.051-2.87c1.345-0.519,2.807-0.629,4.247-0.702
							c2.606-0.133,5.217-0.164,7.826-0.093c1.383,0.038,2.842,0.087,4.06-0.568c2.239-1.205,2.706-4.157,2.913-6.691
							c0.077-0.947,0.138-1.97-0.368-2.775c-0.923-1.467-3.059-1.361-4.769-1.078"/>
					</g>
				</g>
				<g>
					<g>
						<path style="fill:#00DD9E;" d="M307.819,13.519v24.962h24.904c0-0.042-0.006-0.082-0.006-0.123
							c0-7.193,5.831-13.024,13.024-13.024c7.193,0,13.024,5.831,13.024,13.024c0,0.042-0.006,0.082-0.006,0.123h24.904V13.519
							c7.164-0.034,12.963-5.849,12.963-13.021s-5.798-12.988-12.963-13.021v-24.839h-24.898c0,7.193-5.831,13.024-13.024,13.024
							c-7.193,0-13.024-5.831-13.024-13.024h-24.898v24.839c-7.164,0.033-12.963,5.849-12.963,13.021S300.655,13.485,307.819,13.519
							z"/>
					</g>
					<g>
						
							<path style="fill:none;stroke:#00DD9E;stroke-width:0.75;stroke-linecap:round;stroke-linejoin:round;stroke-miterlimit:10;" d="
							M295.414,1.219c7.951,0.18,15.902,0.359,23.854,0.539c1.921,0.043,3.876,0.082,5.722-0.451
							c1.846-0.533,3.598-1.737,4.308-3.523c1.17-2.945-1.001-6.389-3.908-7.648s-6.246-0.873-9.35-0.233
							c-1.183,0.244-2.492,0.616-3.09,1.666c-0.92,1.614,0.775,3.797,2.633,3.775c1.858-0.022,3.392-1.63,3.954-3.4
							c0.563-1.771,0.373-3.681,0.198-5.531c-0.725-7.694-1.08-15.424-1.062-23.153"/>
						
							<path style="fill:none;stroke:#00DD9E;stroke-width:0.75;stroke-linecap:round;stroke-linejoin:round;stroke-miterlimit:10;" d="
							M326.101-37.158c-0.074,4.489,0.306,8.986,1.134,13.4c0.422,2.251,1.036,4.616,2.699,6.19c1.468,1.39,3.525,1.94,5.507,2.335
							c7.321,1.458,14.927,1.467,22.251,0.025c1.566-0.308,3.174-0.707,4.429-1.693c1.255-0.985,2.064-2.708,1.531-4.212
							c-0.728-2.051-3.327-2.622-5.501-2.708c-1.255-0.05-2.861,0.212-3.15,1.434c-0.364,1.543,1.722,2.395,3.299,2.553
							c4.119,0.412,8.638,0.527,11.977-1.921c1.654-1.212,2.92-3.436,2.035-5.286c-0.977-2.041-3.748-2.271-5.655-3.488
							c-0.844-0.539-1.594-1.495-1.341-2.464c0.313-1.198,1.846-1.403,3.063-1.635c5.555-1.055,10.727,0.182,15.284,0.789"/>
						
							<path style="fill:none;stroke:#00DD9E;stroke-width:0.75;stroke-linecap:round;stroke-linejoin:round;stroke-miterlimit:10;" d="
							M396.545,1.12c-2.087,0.157-4.178,0.26-6.27,0.308c-0.926,0.021-1.927,0.009-2.67-0.545c-0.768-0.572-1.063-1.59-1.122-2.546
							c-0.059-0.956,0.069-1.923-0.074-2.87c-0.402-2.662-3.235-4.696-5.886-4.227c-0.477,0.084-0.957,0.247-1.308,0.581
							c-0.443,0.421-0.615,1.048-0.733,1.648c-0.429,2.175-0.393,4.44,0.102,6.601c0.15,0.653,0.358,1.326,0.83,1.801
							c1.066,1.073,3.131,0.502,3.769-0.87c0.638-1.371,0.018-3.096-1.155-4.051c-1.173-0.955-2.764-1.25-4.276-1.192
							c-0.695,0.027-1.425,0.135-1.976,0.561c-0.767,0.592-0.997,1.632-1.169,2.585c-2.359,13.059-3.416,26.352-3.149,39.619"/>
						
							<path style="fill:none;stroke:#00DD9E;stroke-width:0.75;stroke-linecap:round;stroke-linejoin:round;stroke-miterlimit:10;" d="
							M328.856,38.248c0.666-6.552,1.417-13.095,2.254-19.628c0.08-0.624,0.169-1.272,0.513-1.799
							c0.606-0.929,1.808-1.225,2.895-1.446c5.148-1.046,10.296-2.092,15.443-3.138c1.325-0.269,2.749-0.593,3.643-1.608
							c0.606-0.687,0.88-1.603,1.053-2.502c0.429-2.227,0.331-4.554-0.281-6.738c-0.148-0.527-0.343-1.073-0.761-1.426
							c-0.46-0.388-1.098-0.468-1.697-0.528c-3.37-0.333-6.754-0.515-10.14-0.544c-1.079-0.009-2.21,0.01-3.157,0.527
							c-1.683,0.919-2.218,3.041-2.551,4.929c-0.124,0.704-0.234,1.47,0.104,2.1c0.609,1.132,2.201,1.143,3.478,1.001
							c2.68-0.299,5.359-0.598,8.039-0.897c0.348-0.039,0.708-0.082,1.006-0.265c0.84-0.518,0.678-1.893-0.062-2.547
							c-0.739-0.654-1.791-0.784-2.772-0.885c-0.662-0.068-1.363-0.13-1.963,0.157c-0.6,0.286-1.021,1.059-0.693,1.637
							c6.296,0.164,12.591,0.328,18.887,0.491c0.624,0.016,1.314,0.06,1.754,0.503c0.368,0.371,0.461,0.926,0.524,1.445
							c0.495,4.039,0.33,8.127,0.163,12.193c-0.135,3.307-0.271,6.615-0.406,9.922c-0.129,3.164-0.259,6.333-0.661,9.474"/>
						
							<path style="fill:none;stroke:#00DD9E;stroke-width:0.75;stroke-linecap:round;stroke-linejoin:round;stroke-miterlimit:10;" d="
							M312.517,38.481c-0.682-4.437-0.968-7.635-0.314-12.076c0.182-1.236,0.437-2.514,1.188-3.512
							c1.421-1.887,4.183-2.193,6.485-1.663c1.556,0.358,3.08,1.05,4.155,2.231c1.074,1.181,1.628,2.905,1.148,4.428
							c-0.609,1.934-2.962,3.112-4.875,2.441c-1.36-0.477-2.351-1.707-2.87-3.052c-0.519-1.344-0.629-2.807-0.702-4.247
							c-0.133-2.606-0.164-5.217-0.093-7.826c0.038-1.383,0.087-2.842-0.568-4.06c-1.205-2.239-4.157-2.706-6.691-2.914
							c-0.947-0.077-1.97-0.138-2.775,0.368c-1.467,0.923-1.361,3.059-1.078,4.769"/>
					</g>
				</g>
			</g>
			<g>
				<g>
					<path style="fill:#FF98E1;" d="M371.054,154.367L353.03,189.23v192.378c11.152-2.438,18.024,3.932,18.024,3.932
						c12.061,9.607,7.994,22.94,7.994,22.94l10.03-5.936v-0.56V189.23L371.054,154.367z"/>
					<g>
						<polyline style="fill:none;stroke:#262626;stroke-linecap:round;stroke-linejoin:round;stroke-miterlimit:10;" points="
							353.03,189.23 359.038,197.252 365.046,189.23 						"/>
						<polyline style="fill:none;stroke:#262626;stroke-linecap:round;stroke-linejoin:round;stroke-miterlimit:10;" points="
							365.046,189.23 371.054,197.252 377.062,189.23 						"/>
						<polyline style="fill:none;stroke:#262626;stroke-linecap:round;stroke-linejoin:round;stroke-miterlimit:10;" points="
							377.062,189.23 383.07,197.252 389.079,189.23 						"/>
						
							<line style="fill:none;stroke:#262626;stroke-linecap:round;stroke-linejoin:round;stroke-miterlimit:10;" x1="359.038" y1="200.994" x2="359.038" y2="372.707"/>
						
							<line style="fill:none;stroke:#262626;stroke-linecap:round;stroke-linejoin:round;stroke-miterlimit:10;" x1="371.054" y1="200.994" x2="371.054" y2="383.768"/>
						
							<line style="fill:none;stroke:#262626;stroke-linecap:round;stroke-linejoin:round;stroke-miterlimit:10;" x1="383.07" y1="200.994" x2="383.07" y2="402.543"/>
						<path style="fill:#262626;" d="M365.846,164.44l2.532,2.07c1.557,1.273,3.795,1.273,5.352,0l2.532-2.07l-5.208-10.073
							L365.846,164.44z"/>
					</g>
				</g>
				<g>
					<path style="fill:#00DD9E;" d="M460.275,203h-10.806l3.245,30.065l-12.49,4.576l-12.49-4.576L430.98,203h-10.257
						c0,0-17.53,21.032-17.734,22.761c-0.38,3.233,24.746,30.999,24.746,30.999v139.302c0,0,13.395,3.683,24.98,19.577V256.76
						c0,0,25.126-27.766,24.746-30.999C477.256,224.032,460.275,203,460.275,203z"/>
					<g>
						<polyline style="fill:none;stroke:#262626;stroke-linecap:round;stroke-linejoin:round;stroke-miterlimit:10;" points="
							449.469,203 452.714,233.065 440.224,237.64 						"/>
						
							<line style="fill:none;stroke:#262626;stroke-linecap:round;stroke-linejoin:round;stroke-miterlimit:10;" x1="449.444" y1="258.363" x2="449.444" y2="402.543"/>
						
							<line style="fill:none;stroke:#262626;stroke-linecap:round;stroke-linejoin:round;stroke-miterlimit:10;" x1="427.734" y1="256.76" x2="427.734" y2="369.523"/>
						
							<line style="fill:none;stroke:#262626;stroke-linecap:round;stroke-linejoin:round;stroke-miterlimit:10;" x1="406.383" y1="231.551" x2="422.95" y2="251.393"/>
						
							<line style="fill:none;stroke:#262626;stroke-linecap:round;stroke-linejoin:round;stroke-miterlimit:10;" x1="461.391" y1="204.388" x2="475.455" y2="222.537"/>
						
							<line style="fill:none;stroke:#262626;stroke-linecap:round;stroke-linejoin:round;stroke-miterlimit:10;" x1="430.679" y1="205.784" x2="427.734" y2="228.108"/>
					</g>
				</g>
			</g>
			<g>
				<path style="fill:none;stroke:#262626;stroke-linecap:round;stroke-linejoin:round;stroke-miterlimit:10;" d="M226.546,349.556
					c0,0-21.373-12.588-41.623,0c-20.25,12.588-19.703,42.69-19.703,42.69s-18.788-17.514-34.57-8.757
					c-15.782,8.757-11.161,24.99-11.161,24.99s-37.06-27.064-62.655-5.013c-32.037,27.602-12.568,56.645-12.568,56.645
					s-60.996-5.5-65.435,39.888"/>
				<path style="fill:none;stroke:#262626;stroke-linecap:round;stroke-linejoin:round;stroke-miterlimit:10;" d="M244.485,376.15
					c0,0-23.807-27.681-37.292-19.518c-13.486,8.162,3.194,39.392,3.194,39.392s-10.646-13.84-19.518-8.872
					c-8.872,4.968,0,20.938,0,20.938s-6.743-7.098-12.776-3.194s-1.774,12.066-1.774,12.066s-22.003-26.616-44.715-15.97
					c-22.712,10.646-11.001,44.005-11.001,44.005s-25.551-24.487-46.49-12.776c-20.938,11.711-15.615,47.199-15.615,47.199
					s-34.424-8.517-38.682,22.003"/>
				<path style="fill:none;stroke:#262626;stroke-linecap:round;stroke-linejoin:round;stroke-miterlimit:10;" d="M84.728,500
					c0,0-0.55-35.752,24.504-36.385c25.054-0.633,36.592,23.638,36.592,23.638s1.499-14.192,13.834-15.784
					c12.334-1.591,17.864,16.182,17.864,16.182"/>
				<path style="fill:none;stroke:#262626;stroke-linecap:round;stroke-linejoin:round;stroke-miterlimit:10;" d="M161.032,463.603
					c0,0-8.131-28.382,6.729-36.793c14.86-8.411,38.131,23.551,38.131,23.551s-14.299-29.719,2.523-36.729
					s28.878,9.813,28.878,9.813s-11.495-21.589-2.523-30.561c8.972-8.972,23.832,7.009,23.832,7.009"/>
				<path style="fill:none;stroke:#262626;stroke-linecap:round;stroke-linejoin:round;stroke-miterlimit:10;" d="M271.992,349.556
					c0,0,21.373-12.588,41.623,0c20.25,12.588,19.703,42.69,19.703,42.69s18.788-17.514,34.57-8.757
					c15.782,8.757,11.161,24.99,11.161,24.99s37.06-27.064,62.655-5.013c32.037,27.602,12.568,56.645,12.568,56.645
					s61.018-5.502,65.437,39.913"/>
				<g>
					
						<line style="fill:none;stroke:#262626;stroke-linecap:round;stroke-linejoin:round;stroke-miterlimit:10;" x1="225.693" y1="298.576" x2="227.398" y2="331.553"/>
					
						<line style="fill:none;stroke:#262626;stroke-linecap:round;stroke-linejoin:round;stroke-miterlimit:10;" x1="244.485" y1="305.967" x2="244.485" y2="336.67"/>
					
						<line style="fill:none;stroke:#262626;stroke-linecap:round;stroke-linejoin:round;stroke-miterlimit:10;" x1="262.081" y1="293.801" x2="262.081" y2="321.319"/>
					
						<line style="fill:none;stroke:#262626;stroke-linecap:round;stroke-linejoin:round;stroke-miterlimit:10;" x1="254.569" y1="315.064" x2="254.569" y2="336.67"/>
					
						<line style="fill:none;stroke:#262626;stroke-linecap:round;stroke-linejoin:round;stroke-miterlimit:10;" x1="268.838" y1="309.676" x2="268.838" y2="330.215"/>
					
						<line style="fill:none;stroke:#262626;stroke-linecap:round;stroke-linejoin:round;stroke-miterlimit:10;" x1="233.382" y1="323.081" x2="233.382" y2="341.457"/>
				</g>
				<path style="fill:none;stroke:#262626;stroke-linecap:round;stroke-linejoin:round;stroke-miterlimit:10;" d="M322.219,416.962
					c0,0,22.003-26.616,44.715-15.97c22.712,10.646,11.001,44.005,11.001,44.005s25.551-24.487,46.49-12.776
					c20.938,11.711,15.615,47.199,15.615,47.199s34.423-8.517,38.682,22.003"/>
				<path style="fill:none;stroke:#262626;stroke-linecap:round;stroke-linejoin:round;stroke-miterlimit:10;" d="M254.052,376.15
					c0,0,23.807-27.681,37.292-19.518c13.486,8.162-3.194,39.392-3.194,39.392s10.646-13.84,19.518-8.872
					c8.872,4.968,0,20.938,0,20.938"/>
				<path style="fill:none;stroke:#262626;stroke-linecap:round;stroke-linejoin:round;stroke-miterlimit:10;" d="M413.809,500
					c0,0,0.55-35.752-24.504-36.385c-25.054-0.633-36.592,23.638-36.592,23.638s-1.499-14.192-13.834-15.784
					c-12.334-1.591-17.864,16.182-17.864,16.182"/>
				<path style="fill:none;stroke:#262626;stroke-linecap:round;stroke-linejoin:round;stroke-miterlimit:10;" d="M257.942,440.417
					c0,0,10.254-36.626,34.41-29.848c24.157,6.778,10.08,44.49,10.08,44.49s13.208-18.422,24.157-11.296
					c10.949,7.125-3.65,27.285-3.65,27.285"/>
				<path style="fill:none;stroke:#262626;stroke-linecap:round;stroke-linejoin:round;stroke-miterlimit:10;" d="M223.184,493.988
					c0,0-13.556-37.502,7.647-44.038c21.202-6.535,35.627,31.85,35.627,31.85s-2.954-26.047,11.122-25.873
					s15.12,25.873,15.12,25.873s3.823-10.753,10.601-8.494c6.778,2.259,2.086,14.251,2.086,14.251"/>
			</g>
		</g>
	</g>
</g>
</svg>
